SplineFontDB: 3.0
FontName: Samim
FullName: Samim
FamilyName: Samim
Weight: Regular
Copyright: Copyright (c) 2003 by Bitstream, Inc. All Rights Reserved.\nDejaVu changes are in public domain\nCopyright (c) 2015 by Saber Rastikerdar. All Rights Reserved.\nNon-Arabic(Latin) glyphs and data are imported from Open Sans font under the Apache License, Version 2.0.
Version: 3.1.0
ItalicAngle: 0
UnderlinePosition: -200
UnderlineWidth: 100
Ascent: 1638
Descent: 410
InvalidEm: 0
LayerCount: 2
Layer: 0 1 "Back" 1
Layer: 1 1 "Fore" 0
XUID: [1021 502 1027637223 15701598]
UniqueID: 4254684
UseUniqueID: 1
FSType: 0
OS2Version: 1
OS2_WeightWidthSlopeOnly: 0
OS2_UseTypoMetrics: 1
CreationTime: 1431850356
ModificationTime: 1553436345
PfmFamily: 33
TTFWeight: 400
TTFWidth: 5
LineGap: 0
VLineGap: 0
Panose: 2 11 6 3 3 8 4 2 2 4
OS2TypoAscent: 2150
OS2TypoAOffset: 0
OS2TypoDescent: -1000
OS2TypoDOffset: 0
OS2TypoLinegap: 0
OS2WinAscent: 2150
OS2WinAOffset: 0
OS2WinDescent: 1000
OS2WinDOffset: 0
HheadAscent: 2150
HheadAOffset: 0
HheadDescent: -1000
HheadDOffset: 0
OS2SubXSize: 1331
OS2SubYSize: 1433
OS2SubXOff: 0
OS2SubYOff: 286
OS2SupXSize: 1331
OS2SupYSize: 1433
OS2SupXOff: 0
OS2SupYOff: 983
OS2StrikeYSize: 102
OS2StrikeYPos: 530
OS2CapHeight: 1638
OS2XHeight: 1082
OS2Vendor: '    '
OS2CodePages: 600001ff.dfff0000
Lookup: 1 9 0 "'fina' Terminal Forms in Arabic lookup 9" { "'fina' Terminal Forms in Arabic lookup 9 subtable"  } ['fina' ('arab' <'KUR ' 'SND ' 'URD ' 'dflt' > ) ]
Lookup: 1 9 0 "'medi' Medial Forms in Arabic lookup 11" { "'medi' Medial Forms in Arabic lookup 11 subtable"  } ['medi' ('arab' <'KUR ' 'SND ' 'URD ' 'dflt' > ) ]
Lookup: 1 9 0 "'init' Initial Forms in Arabic lookup 13" { "'init' Initial Forms in Arabic lookup 13 subtable"  } ['init' ('arab' <'KUR ' 'SND ' 'URD ' 'dflt' > ) ]
Lookup: 4 1 1 "'rlig' Required Ligatures in Arabic lookup 14" { "'rlig' Required Ligatures in Arabic lookup 14 subtable"  } ['rlig' ('arab' <'KUR ' 'dflt' > ) ]

StartChar: exclam
Encoding: 33 33 1
Width: 559
VWidth: 2170
GlyphClass: 2
Flags: W
LayerCount: 2
Fore
SplineSet
152.986328125 130.211914062 m 128,-1,1
 152.986328125 182.616210938 152.986328125 182.616210938 191.09765625 220.728515625 c 128,-1,2
 229.208984375 258.83984375 229.208984375 258.83984375 280.421875 257.649414062 c 0,3,4
 331.634765625 258.83984375 331.634765625 258.83984375 369.74609375 220.728515625 c 128,-1,5
 407.857421875 182.616210938 407.857421875 182.616210938 407.857421875 130.211914062 c 128,-1,6
 407.857421875 77.80859375 407.857421875 77.80859375 369.74609375 39.697265625 c 128,-1,7
 331.634765625 1.5859375 331.634765625 1.5859375 280.421875 2.77734375 c 0,8,9
 229.208984375 1.5859375 229.208984375 1.5859375 191.09765625 39.697265625 c 128,-1,0
 152.986328125 77.80859375 152.986328125 77.80859375 152.986328125 130.211914062 c 128,-1,1
179.26953125 1440.36035156 m 5,10,-1
 379.73046875 1440.36035156 l 5,11,-1
 358.990234375 414.459960938 l 1,12,-1
 201.046875 414.459960938 l 1,13,-1
 179.26953125 1440.36035156 l 5,10,-1
EndSplineSet
EndChar

StartChar: period
Encoding: 46 46 2
Width: 561
VWidth: 2170
GlyphClass: 2
Flags: W
LayerCount: 2
Fore
SplineSet
152.986328125 130.211914062 m 132,-1,1
 152.986328125 182.616210938 152.986328125 182.616210938 191.09765625 220.728515625 c 132,-1,2
 229.208984375 258.83984375 229.208984375 258.83984375 280.421875 257.649414062 c 4,3,4
 331.634765625 258.83984375 331.634765625 258.83984375 369.74609375 220.728515625 c 132,-1,5
 407.857421875 182.616210938 407.857421875 182.616210938 407.857421875 130.211914062 c 132,-1,6
 407.857421875 77.80859375 407.857421875 77.80859375 369.74609375 39.697265625 c 132,-1,7
 331.634765625 1.5859375 331.634765625 1.5859375 280.421875 2.77734375 c 4,8,9
 229.208984375 1.5859375 229.208984375 1.5859375 191.09765625 39.697265625 c 132,-1,0
 152.986328125 77.80859375 152.986328125 77.80859375 152.986328125 130.211914062 c 132,-1,1
EndSplineSet
EndChar

StartChar: colon
Encoding: 58 58 3
Width: 561
VWidth: 2170
GlyphClass: 2
Flags: W
LayerCount: 2
Fore
SplineSet
152.986328125 810.211914062 m 128,-1,1
 152.986328125 862.616210938 152.986328125 862.616210938 191.09765625 900.728515625 c 128,-1,2
 229.208984375 938.83984375 229.208984375 938.83984375 280.421875 937.649414062 c 0,3,4
 331.634765625 938.83984375 331.634765625 938.83984375 369.74609375 900.728515625 c 128,-1,5
 407.857421875 862.616210938 407.857421875 862.616210938 407.857421875 810.211914062 c 128,-1,6
 407.857421875 757.80859375 407.857421875 757.80859375 369.74609375 719.697265625 c 128,-1,7
 331.634765625 681.5859375 331.634765625 681.5859375 280.421875 682.77734375 c 0,8,9
 229.208984375 681.5859375 229.208984375 681.5859375 191.09765625 719.697265625 c 128,-1,0
 152.986328125 757.80859375 152.986328125 757.80859375 152.986328125 810.211914062 c 128,-1,1
152.986328125 130.211914062 m 128,-1,11
 152.986328125 182.616210938 152.986328125 182.616210938 191.09765625 220.728515625 c 128,-1,12
 229.208984375 258.83984375 229.208984375 258.83984375 280.421875 257.649414062 c 0,13,14
 331.634765625 258.83984375 331.634765625 258.83984375 369.74609375 220.728515625 c 128,-1,15
 407.857421875 182.616210938 407.857421875 182.616210938 407.857421875 130.211914062 c 128,-1,16
 407.857421875 77.80859375 407.857421875 77.80859375 369.74609375 39.697265625 c 128,-1,17
 331.634765625 1.5859375 331.634765625 1.5859375 280.421875 2.77734375 c 0,18,19
 229.208984375 1.5859375 229.208984375 1.5859375 191.09765625 39.697265625 c 128,-1,10
 152.986328125 77.80859375 152.986328125 77.80859375 152.986328125 130.211914062 c 128,-1,11
EndSplineSet
EndChar

StartChar: afii57388
Encoding: 1548 1548 5
Width: 543
VWidth: 2177
GlyphClass: 2
Flags: W
LayerCount: 2
Fore
SplineSet
280.298828125 0 m 6,0,1
 150.249023438 0 150.249023438 0 150.249023438 117.384765625 c 6,2,-1
 150.249023438 187.95703125 l 6,3,4
 150 438 150 438 374.977539062 610.844726562 c 5,5,-1
 442.516601562 577.107421875 l 5,6,7
 295 415 295 415 291.595703125 264.512695312 c 5,8,-1
 308.390625 264.512695312 l 6,9,10
 405.634765625 264.998046875 405.634765625 264.998046875 405.634765625 152.830078125 c 6,11,-1
 405.634765625 115.780273438 l 6,12,13
 406 0 406 0 293.98046875 0 c 6,14,-1
 280.298828125 0 l 6,0,1
EndSplineSet
EndChar

StartChar: uni0615
Encoding: 1557 1557 6
Width: 6
VWidth: 2317
GlyphClass: 4
Flags: W
AnchorPoint: "Anchor-10" 583.891 1359.45 mark 0
AnchorPoint: "Anchor-9" 583.891 1359.45 mark 0
AnchorPoint: "Anchor-1" 583.891 2096.68 basemark 0
AnchorPoint: "Anchor-1" 583.891 1359.45 mark 0
LayerCount: 2
Fore
SplineSet
503.888671875 1540.73730469 m 1,0,-1
 588.427734375 1540.73730469 l 2,1,2
 664.003765358 1541.02266939 664.003765358 1541.02266939 701.798828125 1553.99902344 c 0,3,4
 768 1577 768 1577 772.559570312 1642.765625 c 0,5,6
 776 1694 776 1694 732.268554688 1701.49609375 c 0,7,8
 692 1708 692 1708 634.7890625 1667.86816406 c 0,9,10
 571 1623 571 1623 503.888671875 1540.73730469 c 1,0,-1
849.317382812 1654.34179688 m 0,11,12
 849.000615673 1457.3828125 849.000615673 1457.3828125 614.514648438 1457.3828125 c 2,13,-1
 299.59765625 1457.3828125 l 1,14,-1
 299.59765625 1540.73730469 l 1,15,-1
 411.467773438 1540.73730469 l 1,16,-1
 411.467773438 2003.28320312 l 1,17,-1
 485.95703125 2003.28320312 l 1,18,-1
 485.95703125 1620.24707031 l 1,19,20
 600 1785 600 1785 729 1786.33648891 c 0,21,22
 773 1787 773 1787 805.620117188 1762.66015625 c 4,23,24
 849 1730 849 1730 849.317382812 1654.34179688 c 0,11,12
EndSplineSet
EndChar

StartChar: uni061B
Encoding: 1563 1563 7
Width: 543
VWidth: 2177
GlyphClass: 2
Flags: W
LayerCount: 2
Fore
SplineSet
152.986328125 130.211914062 m 132,-1,1
 152.986328125 182.616210938 152.986328125 182.616210938 191.09765625 220.728515625 c 132,-1,2
 229.208984375 258.83984375 229.208984375 258.83984375 280.421875 257.649414062 c 4,3,4
 331.634765625 258.83984375 331.634765625 258.83984375 369.74609375 220.728515625 c 132,-1,5
 407.857421875 182.616210938 407.857421875 182.616210938 407.857421875 130.211914062 c 132,-1,6
 407.857421875 77.80859375 407.857421875 77.80859375 369.74609375 39.697265625 c 132,-1,7
 331.634765625 1.5859375 331.634765625 1.5859375 280.421875 2.77734375 c 4,8,9
 229.208984375 1.5859375 229.208984375 1.5859375 191.09765625 39.697265625 c 132,-1,0
 152.986328125 77.80859375 152.986328125 77.80859375 152.986328125 130.211914062 c 132,-1,1
280.361328125 417.545898438 m 6,10,11
 150.311523438 417.545898438 150.311523438 417.545898438 150.311523438 534.930664062 c 6,12,-1
 150.311523438 605.502929688 l 6,13,14
 150 856 150 856 375.040039062 1028.390625 c 5,15,-1
 442.580078125 994.653320312 l 5,16,17
 295 832 295 832 291.658203125 682.05859375 c 5,18,-1
 308.454101562 682.05859375 l 6,19,20
 405.697265625 682 405.697265625 682 405.697265625 570.375976562 c 6,21,-1
 405.697265625 528.326171875 l 6,22,23
 406.000976562 417.545898438 406.000976562 417.545898438 294.04296875 417.545898438 c 6,24,-1
 280.361328125 417.545898438 l 6,10,11
EndSplineSet
EndChar

StartChar: uni061F
Encoding: 1567 1567 8
Width: 865
VWidth: 2170
GlyphClass: 2
Flags: W
LayerCount: 2
Fore
SplineSet
397.986328125 130.211914062 m 0,0,1
 398 183 398 183 436.59765625 220.728515625 c 0,2,3
 473.651367188 257.65234375 473.651367188 257.65234375 524.46484375 257.65234375 c 0,4,5
 579.337890625 257.65234375 579.337890625 257.65234375 615.24609375 220.728515625 c 0,6,7
 653 183 653 183 652.857421875 130.211914062 c 0,8,9
 653 78 653 78 614.74609375 39.697265625 c 0,10,11
 577.762695312 2.76171875 577.762695312 2.76171875 527.5 2.76171875 c 0,12,13
 473.239257812 2.76171875 473.239257812 2.76171875 436.09765625 39.697265625 c 0,14,15
 398 78 398 78 397.986328125 130.211914062 c 0,0,1
433.780273438 425.059570312 m 1,16,-1
 433.780273438 496.219726562 l 2,17,18
 434.000279328 592.121761141 434.000279328 592.121761141 349.1640625 675.029296875 c 2,19,-1
 255.864257812 766.208007812 l 2,20,21
 92 926 92 926 92.41796875 1080.70898438 c 0,22,23
 92 1242 92 1242 194 1337.12890625 c 0,24,25
 300 1436 300 1436 470.185546875 1435.76074219 c 0,26,27
 640 1436 640 1436 804.11328125 1320.58203125 c 1,28,-1
 735.321289062 1171.89453125 l 1,29,30
 612 1252 612 1252 475.372070312 1251.9921875 c 0,31,32
 394 1252 394 1252 338.840820312 1205.52441406 c 0,33,34
 277 1153 277 1153 276.759765625 1057.20019531 c 0,35,36
 276.999145542 969.313707823 276.999145542 969.313707823 393.55859375 854.048828125 c 2,37,-1
 469 779.4453125 l 2,38,39
 621.400390625 628.603704653 621.400390625 628.603704653 621.400390625 489.080078125 c 2,40,-1
 621.400390625 425.059570312 l 1,41,-1
 433.780273438 425.059570312 l 1,16,-1
EndSplineSet
EndChar

StartChar: uni0621
Encoding: 1569 1569 9
Width: 778
VWidth: 2311
GlyphClass: 2
Flags: W
AnchorPoint: "Anchor-7" 380.54 -155.76 basechar 0
AnchorPoint: "Anchor-10" 370.19 1021.23 basechar 0
LayerCount: 2
Fore
SplineSet
91.3408203125 -26.1484375 m 1,0,-1
 91.3408203125 119.052734375 l 1,1,-1
 301.677734375 202.56640625 l 1,2,3
 92 265 92 265 95.154296875 471.338867188 c 0,4,5
 98 633 98 633 237.250976562 717.856445312 c 0,6,7
 377 803 377 803 593.599609375 755.115234375 c 1,8,-1
 593.599609375 580.198242188 l 1,9,10
 430 625 430 625 340.4453125 579.555664062 c 4,11,12
 251 534 251 534 251.944335938 462.336914062 c 0,13,14
 252 326 252 326 434.59375 293.615234375 c 0,15,16
 473 287 473 287 513 289 c 128,-1,17
 553 291 553 291 686.879882812 350.873046875 c 1,18,-1
 686.879882812 189.375 l 1,19,-1
 91.3408203125 -26.1484375 l 1,0,-1
EndSplineSet
EndChar

StartChar: uni0627
Encoding: 1575 1575 15
Width: 448
VWidth: 2311
GlyphClass: 2
Flags: W
AnchorPoint: "Anchor-10" 224.19 1513.38 basechar 0
AnchorPoint: "Anchor-7" 231.61 -234.79 basechar 0
LayerCount: 2
Fore
SplineSet
137.786132812 1362.37109375 m 1,0,-1
 310.516601562 1417.2421875 l 5,1,-1
 310.516601562 1.58984375 l 1,2,-1
 181.4375 1.58984375 l 1,3,-1
 137.786132812 1362.37109375 l 1,0,-1
EndSplineSet
Substitution2: "'fina' Terminal Forms in Arabic lookup 9 subtable" uniFE8E
EndChar

StartChar: uni062D
Encoding: 1581 1581 21
Width: 1280
VWidth: 2311
GlyphClass: 2
Flags: W
AnchorPoint: "Anchor-10" 549.59 1217.96 basechar 0
AnchorPoint: "Anchor-7" 584.525 -813.648 basechar 0
LayerCount: 2
Fore
SplineSet
119.701171875 624.7109375 m 1,0,1
 292 878 292 878 489.719726562 874.5 c 0,2,3
 522 874 522 874 560.990234375 863.8046875 c 0,4,5
 600 853 600 853 757.486328125 776.234375 c 0,6,7
 915 700 915 700 995.791015625 671.354492188 c 0,8,9
 1077 643 1077 643 1169.60253906 630.88671875 c 1,10,-1
 1145.46582031 454.939453125 l 1,11,12
 1017 445 1017 445 994.629882812 443.098632812 c 0,13,14
 750 413 750 413 590.947265625 321.604492188 c 0,15,16
 265 134 265 134 265.084960938 -140.095703125 c 0,17,18
 265 -355 265 -355 460 -433.023353568 c 0,19,20
 576 -479 576 -479 776.735351562 -479.671875 c 0,21,22
 974 -480 974 -480 1151.05761719 -429.659179688 c 1,23,-1
 1195.06640625 -585.071289062 l 1,24,25
 987 -649 987 -649 778.907226562 -648.865234375 c 0,26,27
 520 -649 520 -649 339 -555 c 0,28,29
 97 -429 97 -429 96.4599609375 -143.330078125 c 0,30,31
 96 46 96 46 198.533203125 199.254882812 c 0,32,33
 353 431 353 431 685.275390625 528.139648438 c 0,34,35
 781 556 781 556 869.93359375 563.4765625 c 1,36,37
 801 581 801 581 671.255859375 642.354492188 c 0,38,39
 541 704 541 704 506.147460938 703.815429688 c 0,40,41
 371 704 371 704 234.82421875 528.734375 c 1,42,-1
 119.701171875 624.7109375 l 1,0,1
EndSplineSet
Substitution2: "'fina' Terminal Forms in Arabic lookup 9 subtable" uniFEA2
Substitution2: "'medi' Medial Forms in Arabic lookup 11 subtable" uniFEA4
Substitution2: "'init' Initial Forms in Arabic lookup 13 subtable" uniFEA3
EndChar

StartChar: uni062F
Encoding: 1583 1583 23
Width: 992
VWidth: 2311
GlyphClass: 2
Flags: W
AnchorPoint: "Anchor-10" 409.091 1221.98 basechar 0
AnchorPoint: "Anchor-7" 395.442 -216.688 basechar 0
LayerCount: 2
Fore
SplineSet
97.75390625 199.533203125 m 1,0,1
 226 157 226 157 361.6953125 157.565429688 c 4,2,3
 593 158 593 158 693.80859375 233.584960938 c 0,4,5
 743 270 743 270 742.81640625 315.80859375 c 0,6,7
 743 417 743 417 626.78067522 568 c 0,8,9
 532 690 532 690 374.004882812 810.703125 c 1,10,-1
 468.706054688 956.33203125 l 1,11,12
 667 808 667 808 774.236354414 658 c 0,13,14
 900 482 900 482 900.018554688 317.266601562 c 0,15,16
 900 156 900 156 750.693359375 65.9248046875 c 0,17,18
 611 -18 611 -18 349.1640625 -17.4072265625 c 0,19,20
 215 -17 215 -17 97.3447265625 24.60546875 c 1,21,-1
 97.75390625 199.533203125 l 1,0,1
EndSplineSet
Substitution2: "'fina' Terminal Forms in Arabic lookup 9 subtable" uniFEAA
EndChar

StartChar: uni0631
Encoding: 1585 1585 25
Width: 867
VWidth: 2317
GlyphClass: 2
Flags: W
AnchorPoint: "Anchor-7" 316.38 -648.85 basechar 0
AnchorPoint: "Anchor-10" 501.618 933.71 basechar 0
LayerCount: 2
Fore
SplineSet
627 -294.314453125 m 0,0,1
 451 -513 451 -513 81.1943359375 -514.038085938 c 1,2,-1
 26.484375 -378.100585938 l 1,3,4
 340 -356 340 -356 479 -211 c 0,5,6
 606 -79 606 -79 605.68359375 115.051757812 c 0,7,8
 606 209 606 209 539.689453125 455.208984375 c 1,9,-1
 690.200195312 531.986328125 l 5,10,11
 771 302 771 302 770.651367188 136.694335938 c 0,12,13
 771 -117 771 -117 627 -294.314453125 c 0,0,1
EndSplineSet
PairPos2: "'kern' Horizontal Kerning lookup 15-1" uni06CA dx=-85 dy=0 dh=-85 dv=0 dx=0 dy=0 dh=0 dv=0
PairPos2: "'kern' Horizontal Kerning lookup 15-1" uniFB90 dx=-307 dy=0 dh=-307 dv=0 dx=0 dy=0 dh=0 dv=0
PairPos2: "'kern' Horizontal Kerning lookup 15-1" uniFB8E dx=-307 dy=0 dh=-307 dv=0 dx=0 dy=0 dh=0 dv=0
PairPos2: "'kern' Horizontal Kerning lookup 15-1" uni06A9 dx=-307 dy=0 dh=-307 dv=0 dx=0 dy=0 dh=0 dv=0
PairPos2: "'kern' Horizontal Kerning lookup 15-1" uni064A dx=-106 dy=0 dh=-106 dv=0 dx=0 dy=0 dh=0 dv=0
PairPos2: "'kern' Horizontal Kerning lookup 15-1" afii57414 dx=-106 dy=0 dh=-106 dv=0 dx=0 dy=0 dh=0 dv=0
PairPos2: "'kern' Horizontal Kerning lookup 15-1" uniFBE8 dx=-212 dy=0 dh=-212 dv=0 dx=0 dy=0 dh=0 dv=0
PairPos2: "'kern' Horizontal Kerning lookup 15-1" uni0649 dx=-106 dy=0 dh=-106 dv=0 dx=0 dy=0 dh=0 dv=0
PairPos2: "'kern' Horizontal Kerning lookup 15-1" uni0648 dx=-85 dy=0 dh=-85 dv=0 dx=0 dy=0 dh=0 dv=0
PairPos2: "'kern' Horizontal Kerning lookup 15-1" afii57412 dx=-85 dy=0 dh=-85 dv=0 dx=0 dy=0 dh=0 dv=0
PairPos2: "'kern' Horizontal Kerning lookup 15-1" uniFEEB dx=-212 dy=0 dh=-212 dv=0 dx=0 dy=0 dh=0 dv=0
PairPos2: "'kern' Horizontal Kerning lookup 15-1" uni0647 dx=-212 dy=0 dh=-212 dv=0 dx=0 dy=0 dh=0 dv=0
PairPos2: "'kern' Horizontal Kerning lookup 15-1" uniFEE7 dx=-212 dy=0 dh=-212 dv=0 dx=0 dy=0 dh=0 dv=0
PairPos2: "'kern' Horizontal Kerning lookup 15-1" uni0646 dx=-159 dy=0 dh=-159 dv=0 dx=0 dy=0 dh=0 dv=0
PairPos2: "'kern' Horizontal Kerning lookup 15-1" uniFEE3 dx=-212 dy=0 dh=-212 dv=0 dx=0 dy=0 dh=0 dv=0
PairPos2: "'kern' Horizontal Kerning lookup 15-1" uni0645 dx=-212 dy=0 dh=-212 dv=0 dx=0 dy=0 dh=0 dv=0
PairPos2: "'kern' Horizontal Kerning lookup 15-1" uniFEFB dx=-212 dy=0 dh=-212 dv=0 dx=0 dy=0 dh=0 dv=0
PairPos2: "'kern' Horizontal Kerning lookup 15-1" uniFEDF dx=-212 dy=0 dh=-212 dv=0 dx=0 dy=0 dh=0 dv=0
PairPos2: "'kern' Horizontal Kerning lookup 15-1" uni0644 dx=-159 dy=0 dh=-159 dv=0 dx=0 dy=0 dh=0 dv=0
PairPos2: "'kern' Horizontal Kerning lookup 15-1" uniFEDB dx=-307 dy=0 dh=-307 dv=0 dx=0 dy=0 dh=0 dv=0
PairPos2: "'kern' Horizontal Kerning lookup 15-1" uni0643 dx=-212 dy=0 dh=-212 dv=0 dx=0 dy=0 dh=0 dv=0
PairPos2: "'kern' Horizontal Kerning lookup 15-1" uniFED7 dx=-212 dy=0 dh=-212 dv=0 dx=0 dy=0 dh=0 dv=0
PairPos2: "'kern' Horizontal Kerning lookup 15-1" uni0642 dx=-159 dy=0 dh=-159 dv=0 dx=0 dy=0 dh=0 dv=0
PairPos2: "'kern' Horizontal Kerning lookup 15-1" uniFED3 dx=-212 dy=0 dh=-212 dv=0 dx=0 dy=0 dh=0 dv=0
PairPos2: "'kern' Horizontal Kerning lookup 15-1" uni0641 dx=-212 dy=0 dh=-212 dv=0 dx=0 dy=0 dh=0 dv=0
PairPos2: "'kern' Horizontal Kerning lookup 15-1" uniFECF dx=-212 dy=0 dh=-212 dv=0 dx=0 dy=0 dh=0 dv=0
PairPos2: "'kern' Horizontal Kerning lookup 15-1" uniFECB dx=-212 dy=0 dh=-212 dv=0 dx=0 dy=0 dh=0 dv=0
PairPos2: "'kern' Horizontal Kerning lookup 15-1" uniFEC7 dx=-212 dy=0 dh=-212 dv=0 dx=0 dy=0 dh=0 dv=0
PairPos2: "'kern' Horizontal Kerning lookup 15-1" uni0638 dx=-212 dy=0 dh=-212 dv=0 dx=0 dy=0 dh=0 dv=0
PairPos2: "'kern' Horizontal Kerning lookup 15-1" uniFEC3 dx=-212 dy=0 dh=-212 dv=0 dx=0 dy=0 dh=0 dv=0
PairPos2: "'kern' Horizontal Kerning lookup 15-1" uni0637 dx=-212 dy=0 dh=-212 dv=0 dx=0 dy=0 dh=0 dv=0
PairPos2: "'kern' Horizontal Kerning lookup 15-1" uniFEBF dx=-212 dy=0 dh=-212 dv=0 dx=0 dy=0 dh=0 dv=0
PairPos2: "'kern' Horizontal Kerning lookup 15-1" uni0636 dx=-212 dy=0 dh=-212 dv=0 dx=0 dy=0 dh=0 dv=0
PairPos2: "'kern' Horizontal Kerning lookup 15-1" uniFEBB dx=-212 dy=0 dh=-212 dv=0 dx=0 dy=0 dh=0 dv=0
PairPos2: "'kern' Horizontal Kerning lookup 15-1" uni0635 dx=-212 dy=0 dh=-212 dv=0 dx=0 dy=0 dh=0 dv=0
PairPos2: "'kern' Horizontal Kerning lookup 15-1" uniFEB7 dx=-212 dy=0 dh=-212 dv=0 dx=0 dy=0 dh=0 dv=0
PairPos2: "'kern' Horizontal Kerning lookup 15-1" uni0634 dx=-212 dy=0 dh=-212 dv=0 dx=0 dy=0 dh=0 dv=0
PairPos2: "'kern' Horizontal Kerning lookup 15-1" uniFEB3 dx=-212 dy=0 dh=-212 dv=0 dx=0 dy=0 dh=0 dv=0
PairPos2: "'kern' Horizontal Kerning lookup 15-1" uni0633 dx=-212 dy=0 dh=-212 dv=0 dx=0 dy=0 dh=0 dv=0
PairPos2: "'kern' Horizontal Kerning lookup 15-1" uni0632 dx=-85 dy=0 dh=-85 dv=0 dx=0 dy=0 dh=0 dv=0
PairPos2: "'kern' Horizontal Kerning lookup 15-1" uni0631 dx=-85 dy=0 dh=-85 dv=0 dx=0 dy=0 dh=0 dv=0
PairPos2: "'kern' Horizontal Kerning lookup 15-1" uni0630 dx=-212 dy=0 dh=-212 dv=0 dx=0 dy=0 dh=0 dv=0
PairPos2: "'kern' Horizontal Kerning lookup 15-1" uni062F dx=-212 dy=0 dh=-212 dv=0 dx=0 dy=0 dh=0 dv=0
PairPos2: "'kern' Horizontal Kerning lookup 15-1" uniFEA7 dx=-212 dy=0 dh=-212 dv=0 dx=0 dy=0 dh=0 dv=0
PairPos2: "'kern' Horizontal Kerning lookup 15-1" uniFEA3 dx=-212 dy=0 dh=-212 dv=0 dx=0 dy=0 dh=0 dv=0
PairPos2: "'kern' Horizontal Kerning lookup 15-1" uniFE9F dx=-212 dy=0 dh=-212 dv=0 dx=0 dy=0 dh=0 dv=0
PairPos2: "'kern' Horizontal Kerning lookup 15-1" uniFE9B dx=-212 dy=0 dh=-212 dv=0 dx=0 dy=0 dh=0 dv=0
PairPos2: "'kern' Horizontal Kerning lookup 15-1" uni062B dx=-212 dy=0 dh=-212 dv=0 dx=0 dy=0 dh=0 dv=0
PairPos2: "'kern' Horizontal Kerning lookup 15-1" uniFE97 dx=-212 dy=0 dh=-212 dv=0 dx=0 dy=0 dh=0 dv=0
PairPos2: "'kern' Horizontal Kerning lookup 15-1" uni062A dx=-212 dy=0 dh=-212 dv=0 dx=0 dy=0 dh=0 dv=0
PairPos2: "'kern' Horizontal Kerning lookup 15-1" uni0629 dx=-212 dy=0 dh=-212 dv=0 dx=0 dy=0 dh=0 dv=0
PairPos2: "'kern' Horizontal Kerning lookup 15-1" uniFE91 dx=-85 dy=0 dh=-85 dv=0 dx=0 dy=0 dh=0 dv=0
PairPos2: "'kern' Horizontal Kerning lookup 15-1" uni0628 dx=-212 dy=0 dh=-212 dv=0 dx=0 dy=0 dh=0 dv=0
PairPos2: "'kern' Horizontal Kerning lookup 15-1" uni0627 dx=-212 dy=0 dh=-212 dv=0 dx=0 dy=0 dh=0 dv=0
PairPos2: "'kern' Horizontal Kerning lookup 15-1" uni0623 dx=-212 dy=0 dh=-212 dv=0 dx=0 dy=0 dh=0 dv=0
PairPos2: "'kern' Horizontal Kerning lookup 15-1" uni0622 dx=-212 dy=0 dh=-212 dv=0 dx=0 dy=0 dh=0 dv=0
PairPos2: "'kern' Horizontal Kerning lookup 15-1" uni0621 dx=-212 dy=0 dh=-212 dv=0 dx=0 dy=0 dh=0 dv=0
PairPos2: "'kern' Horizontal Kerning lookup 15-1" uniFB94 dx=-307 dy=0 dh=-307 dv=0 dx=0 dy=0 dh=0 dv=0
PairPos2: "'kern' Horizontal Kerning lookup 15-1" uniFB92 dx=-307 dy=0 dh=-307 dv=0 dx=0 dy=0 dh=0 dv=0
PairPos2: "'kern' Horizontal Kerning lookup 15-1" afii57509 dx=-307 dy=0 dh=-307 dv=0 dx=0 dy=0 dh=0 dv=0
PairPos2: "'kern' Horizontal Kerning lookup 15-1" afii57508 dx=-85 dy=0 dh=-85 dv=0 dx=0 dy=0 dh=0 dv=0
PairPos2: "'kern' Horizontal Kerning lookup 15-1" uniFB7C dx=-159 dy=0 dh=-159 dv=0 dx=0 dy=0 dh=0 dv=0
PairPos2: "'kern' Horizontal Kerning lookup 15-1" afii57506 dx=-212 dy=0 dh=-212 dv=0 dx=0 dy=0 dh=0 dv=0
PairPos2: "'kern' Horizontal Kerning lookup 15-1" afii57440 dx=-212 dy=0 dh=-212 dv=0 dx=0 dy=0 dh=0 dv=0
PairPos2: "'kern' Horizontal Kerning lookup 15-1" uniFE8B dx=-212 dy=0 dh=-212 dv=0 dx=0 dy=0 dh=0 dv=0
Substitution2: "'fina' Terminal Forms in Arabic lookup 9 subtable" uniFEAE
EndChar

StartChar: uni0633
Encoding: 1587 1587 27
Width: 2384
VWidth: 2311
GlyphClass: 2
Flags: W
AnchorPoint: "Anchor-7" 638.95 -728.09 basechar 0
AnchorPoint: "Anchor-10" 1687.64 1072.47 basechar 0
LayerCount: 2
Fore
SplineSet
1981.04980469 -0.0087890625 m 4,0,1
 1795 -2 1795 -2 1710.90039062 147.736328125 c 1,2,3
 1634 -1 1634 -1 1457.14160156 -0.31640625 c 0,4,5
 1385 0 1385 0 1300.55371094 51.03515625 c 1,6,7
 1298 -516 1298 -516 690.364257812 -517.545898438 c 0,8,9
 431 -518 431 -518 277 -400.52072632 c 0,10,11
 99 -264 99 -264 99.55859375 18.3544921875 c 0,12,13
 100 225 100 225 192.405273438 433.759765625 c 1,14,-1
 341.139648438 379.267578125 l 1,15,16
 261 184 261 184 260.893554688 35.2705078125 c 0,17,18
 261 -345 261 -345 693.024414062 -344.501953125 c 0,19,20
 1154 -344 1154 -344 1153.8515625 53.12109375 c 0,21,22
 1154 194 1154 194 1047.46191406 410.682617188 c 1,23,-1
 1188.29101562 505.477539062 l 1,24,-1
 1280.19433594 281.931640625 l 2,25,26
 1322 180 1322 180 1461.29589844 180.252929688 c 0,27,28
 1614.80877698 180.999070571 1614.80877698 180.999070571 1633.47851562 372.385742188 c 2,29,-1
 1652.04394531 562.703125 l 1,30,-1
 1770.06054688 562.703125 l 1,31,-1
 1795.99609375 370.999023438 l 2,32,33
 1822 176 1822 176 1979.18261719 180.405273438 c 28,34,35
 2073 183 2073 183 2106.56347656 248.400390625 c 4,36,37
 2133 301 2133 301 2132.72851562 382.4609375 c 4,38,39
 2133 440 2133 440 2119.23925781 511.131835938 c 4,40,41
 2100 617 2100 617 2084.54882812 658.997070312 c 5,42,-1
 2241.72363281 709.366210938 l 5,43,44
 2285 586 2285 586 2294.13183594 435.57421875 c 4,45,46
 2296 405 2296 405 2296.03515625 376.4609375 c 4,47,48
 2297 3 2297 3 1981.04980469 -0.0087890625 c 4,0,1
EndSplineSet
Substitution2: "'fina' Terminal Forms in Arabic lookup 9 subtable" uniFEB2
Substitution2: "'medi' Medial Forms in Arabic lookup 11 subtable" uniFEB4
Substitution2: "'init' Initial Forms in Arabic lookup 13 subtable" uniFEB3
EndChar

StartChar: uni0635
Encoding: 1589 1589 29
Width: 2514
VWidth: 2311
GlyphClass: 2
Flags: W
AnchorPoint: "Anchor-10" 1687.64 1072.47 basechar 0
AnchorPoint: "Anchor-7" 638.95 -728.09 basechar 0
LayerCount: 2
Fore
SplineSet
1279.19433594 281.931640625 m 2,0,1
 1301.93651906 226.004951253 1301.93651906 226.004951253 1364.87890625 221.095703125 c 1,2,3
 1739 758 1739 758 2069.15820312 757.188476562 c 0,4,5
 2222 757 2222 757 2316.26855469 669.135742188 c 0,6,7
 2416 577 2416 577 2417.58007812 422.947265625 c 0,8,9
 2419 236 2419 236 2256.95898438 113.663085938 c 0,10,11
 2104.89776025 -2.07781945606 2104.89776025 -2.07781945606 1728.84375 -0.7109375 c 2,12,-1
 1533.25195312 0 l 2,13,14
 1396 0 1396 0 1300.55371094 51.03515625 c 1,15,16
 1298 -516 1298 -516 690.364257812 -517.545898438 c 0,17,18
 431 -518 431 -518 277 -400.520507812 c 0,19,20
 99 -264 99 -264 99.55859375 18.3544921875 c 0,21,22
 100 225 100 225 192.405273438 433.759765625 c 1,23,-1
 341.139648438 379.267578125 l 1,24,25
 261 184 261 184 260.893554688 35.2705078125 c 0,26,27
 261 -345 261 -345 693.024414062 -344.501953125 c 0,28,29
 1154 -344 1154 -344 1153.8515625 53.12109375 c 0,30,31
 1154 194 1154 194 1047.46191406 410.682617188 c 1,32,-1
 1188.29101562 505.477539062 l 5,33,-1
 1279.19433594 281.931640625 l 2,0,1
1529.328125 180.91796875 m 1,34,-1
 1712.11328125 180.91796875 l 2,35,36
 1983 181 1983 181 2101.9375 226.807617188 c 0,37,38
 2251 285 2251 285 2239.97949219 428.157226562 c 0,39,40
 2236 477 2236 477 2208.31738281 513.896484375 c 0,41,42
 2159 578 2159 578 2063.90917969 577.580078125 c 0,43,44
 1940 578 1940 578 1801.01269531 471.708984375 c 0,45,46
 1698 394 1698 394 1529.328125 180.91796875 c 1,34,-1
EndSplineSet
Substitution2: "'fina' Terminal Forms in Arabic lookup 9 subtable" uniFEBA
Substitution2: "'medi' Medial Forms in Arabic lookup 11 subtable" uniFEBC
Substitution2: "'init' Initial Forms in Arabic lookup 13 subtable" uniFEBB
EndChar

StartChar: uni0637
Encoding: 1591 1591 31
Width: 1574
VWidth: 2311
GlyphClass: 2
Flags: W
AnchorPoint: "Anchor-10" 345.043 1476.92 basechar 0
AnchorPoint: "Anchor-7" 705.363 -234.3 basechar 0
LayerCount: 2
Fore
SplineSet
589.390625 180.62890625 m 1,0,-1
 772.174804688 180.62890625 l 2,1,2
 1042.95822117 181.004098858 1042.95822117 181.004098858 1161.99902344 228.518554688 c 0,3,4
 1301 284 1301 284 1300.74340773 411.087058581 c 0,5,6
 1301 472 1301 472 1268.37890625 514.607421875 c 0,7,8
 1220 578 1220 578 1122.3053379 578.295700757 c 0,9,10
 999.853264276 578.006733252 999.853264276 578.006733252 861.07421875 472.420898438 c 0,11,12
 760 396 760 396 589.390625 180.62890625 c 1,0,-1
436.043945312 255.59375 m 1,13,14
 801 758 801 758 1129.21972656 757.900390625 c 0,15,16
 1280 758 1280 758 1376.33007812 669.846679688 c 0,17,18
 1478 576 1478 576 1477.65385913 420.428272395 c 0,19,20
 1478 228 1478 228 1317.02148438 114.374023438 c 0,21,22
 1155 0 1155 0 788.905273438 0 c 2,23,-1
 683 0 l 2,24,25
 238 0 238 0 68 32 c 9,26,-1
 67.2548828125 180.477539062 l 1,27,-1
 294.129882812 180.479492188 l 1,28,-1
 261.3046875 1367.67480469 l 1,29,-1
 436.149414062 1417.00488281 l 5,30,-1
 436.043945312 255.59375 l 1,13,14
EndSplineSet
Substitution2: "'fina' Terminal Forms in Arabic lookup 9 subtable" uniFEC2
Substitution2: "'medi' Medial Forms in Arabic lookup 11 subtable" uniFEC4
Substitution2: "'init' Initial Forms in Arabic lookup 13 subtable" uniFEC3
EndChar

StartChar: uni0639
Encoding: 1593 1593 33
Width: 1227
VWidth: 2311
GlyphClass: 2
Flags: W
AnchorPoint: "Anchor-7" 584.525 -813.648 basechar 0
AnchorPoint: "Anchor-10" 627.59 1351.96 basechar 0
LayerCount: 2
Fore
SplineSet
460 771 m 24,0,1
 384 661 384 661 510.28125 512 c 4,2,3
 585 423 585 423 619.50390625 426.787109375 c 0,4,5
 728 438 728 438 760.690429688 440.799804688 c 0,6,7
 883 453 883 453 1005.98242188 464.71484375 c 1,8,-1
 1005.98242188 298.348632812 l 1,9,10
 885 289 885 289 792 275.782226562 c 0,11,12
 519 236 519 236 384.571289062 109 c 0,13,14
 265 -5 265 -5 266.14453125 -148.576171875 c 8,15,16
 267 -295 267 -295 380.045898438 -385.078125 c 0,17,18
 494 -477 494 -477 777.795898438 -477.551757812 c 0,19,20
 968 -478 968 -478 1100.33105469 -440.307617188 c 1,21,-1
 1144.33984375 -595.719726562 l 1,22,23
 978 -647 978 -647 779.967773438 -646.745117188 c 0,24,25
 372 -647 372 -647 207.927734375 -458.977539062 c 0,26,27
 96 -331 96 -331 97.51953125 -151.809570312 c 0,28,29
 99 23 99 23 186.629882812 147.620117188 c 0,30,31
 279 278 279 278 431.291992188 349.030273438 c 5,32,33
 268 512 268 512 268.61328125 673.392578125 c 0,34,35
 269 793 269 793 328 883.211914062 c 0,36,37
 433 1043 433 1043 626.859375 1042.85449219 c 0,38,39
 836 1043 836 1043 957.549804688 874.555664062 c 1,40,-1
 866 761 l 1,41,42
 768 861 768 861 647.958007812 863.700195312 c 0,43,44
 525 867 525 867 460 771 c 24,0,1
EndSplineSet
Substitution2: "'fina' Terminal Forms in Arabic lookup 9 subtable" uniFECA
Substitution2: "'medi' Medial Forms in Arabic lookup 11 subtable" uniFECC
Substitution2: "'init' Initial Forms in Arabic lookup 13 subtable" uniFECB
EndChar

StartChar: afii57440
Encoding: 1600 1600 35
Width: 260
VWidth: 2311
GlyphClass: 2
Flags: W
AnchorPoint: "Anchor-10" 133.44 1354.15 basechar 0
AnchorPoint: "Anchor-7" 133.44 -120.31 basechar 0
LayerCount: 2
Fore
SplineSet
266.620117188 0 m 2,0,-1
 -4 0 l 2,1,2
 -51.6240234375 0 -51.6240234375 0 -51.6240234375 74 c 2,3,-1
 -51.6240234375 108 l 2,4,5
 -52.0025038587 180.479492188 -52.0025038587 180.479492188 -3.6240234375 180.479492188 c 6,6,-1
 267.375976562 180.479492188 l 6,7,8
 285.375976562 179.989770904 285.375976562 179.989770904 285.375976562 108 c 2,9,-1
 285.375976562 74 l 2,10,11
 285 0 285 0 266.620117188 0 c 2,0,-1
EndSplineSet
EndChar

StartChar: uni0643
Encoding: 1603 1603 38
Width: 1876
VWidth: 2311
GlyphClass: 2
Flags: W
AnchorPoint: "Anchor-10" 958.52 1402.01 basechar 0
AnchorPoint: "Anchor-7" 798.06 -201.16 basechar 0
LayerCount: 2
Fore
SplineSet
732.576171875 784.887695312 m 2,0,1
 800.572265625 775.920898438 800.572265625 775.920898438 859.859375 776.087890625 c 0,2,3
 926.440429688 775.919921875 926.440429688 775.919921875 966.28125 791.7421875 c 0,4,5
 1044.09960938 822.559570312 1044.09960938 822.559570312 1043.51757812 869.092773438 c 0,6,7
 1043.04003906 892.51953125 1043.04003906 892.51953125 1023.1484375 907.950195312 c 0,8,9
 1002.75976562 923.259765625 1002.75976562 923.259765625 955.814453125 931.329101562 c 0,10,11
 886.16015625 942.33984375 886.16015625 942.33984375 850.266601562 981.633789062 c 0,12,13
 814.080078125 1021.83984375 814.080078125 1021.83984375 815.541015625 1076.2421875 c 0,14,15
 818.3203125 1178.71972656 818.3203125 1178.71972656 907.43359375 1224.10742188 c 0,16,17
 990.977539062 1266.63769531 990.977539062 1266.63769531 1112.80957031 1274.359375 c 2,18,-1
 1129.71582031 1275.43066406 l 1,19,-1
 1129.71582031 1182.32324219 l 1,20,-1
 1114.98535156 1181.23632812 l 2,21,22
 1039.86035156 1175.54003906 1039.86035156 1175.54003906 1002.64746094 1161.69726562 c 0,23,24
 911.599609375 1127.83984375 911.599609375 1127.83984375 911.950195312 1079.66308594 c 0,25,26
 911.599609375 1037.74023438 911.599609375 1037.74023438 954.403320312 1023.06542969 c 0,27,28
 978.379882812 1014.41992188 978.379882812 1014.41992188 1024.33691406 1007.75097656 c 0,29,30
 1139.5 990.040039062 1139.5 990.040039062 1139.55273438 876.780273438 c 0,31,32
 1139.5 779.099609375 1139.5 779.099609375 1027.10253906 715.190429688 c 0,33,34
 919.334960938 653.141601562 919.334960938 653.141601562 727.874023438 685.163085938 c 2,35,-1
 714.59765625 687.383789062 l 1,36,-1
 714.59765625 787.258789062 l 1,37,-1
 732.576171875 784.887695312 l 2,0,1
1597.86132812 465.981445312 m 2,38,-1
 1560.67285156 1368.8203125 l 1,39,-1
 1737.65820312 1417.03125 l 5,40,-1
 1737.65820312 434.375976562 l 2,41,42
 1738 411 1738 411 1734.84082031 374.500976562 c 0,43,44
 1719 146 1719 146 1409.84472656 49.197265625 c 0,45,46
 1258 2 1258 2 913.120117188 1.0595703125 c 0,47,48
 567 0 567 0 398.3828125 70.611328125 c 0,49,50
 125 187 125 187 101.770507812 462.961914062 c 0,51,52
 90 606 90 606 131.094726562 751.975585938 c 1,53,-1
 273.330078125 714.446289062 l 1,54,55
 250 567 250 567 252.846679688 507.09375 c 0,56,57
 267 222 267 222 640.66015625 190.389648438 c 0,58,59
 809 176 809 176 1195.43359375 192.786132812 c 0,60,61
 1608 210 1608 210 1597.86132812 465.981445312 c 2,38,-1
EndSplineSet
Substitution2: "'fina' Terminal Forms in Arabic lookup 9 subtable" uniFEDA
Substitution2: "'medi' Medial Forms in Arabic lookup 11 subtable" uniFEDC
Substitution2: "'init' Initial Forms in Arabic lookup 13 subtable" uniFEDB
EndChar

StartChar: uni0644
Encoding: 1604 1604 39
Width: 1369
VWidth: 2311
GlyphClass: 2
Flags: W
AnchorPoint: "Anchor-7" 638.95 -728.09 basechar 0
AnchorPoint: "Anchor-10" 624.91 1105.85 basechar 0
LayerCount: 2
Fore
SplineSet
663.024414062 -314.501953125 m 0,0,1
 1091.83463977 -314.999808014 1091.83463977 -314.999808014 1082.83203125 142.38671875 c 2,2,-1
 1058.77539062 1364.60839844 l 1,3,-1
 1231.49707031 1416.171875 l 5,4,-1
 1231.49707031 406.279296875 l 2,5,6
 1231 404 1231 404 1228.54003906 101.610351562 c 1,7,8
 1233 -487 1233 -487 660.364257812 -487.545898438 c 0,9,10
 424 -488 424 -488 279 -376.520507812 c 0,11,12
 89 -230 89 -230 89.55859375 48.3544921875 c 0,13,14
 90 232 90 232 192.405273438 463.759765625 c 1,15,-1
 341.139648438 409.267578125 l 1,16,17
 261 214 261 214 260.893554688 65.2705078125 c 0,18,19
 261 -88 261 -88 351 -198 c 0,20,21
 446 -314 446 -314 663.024414062 -314.501953125 c 0,0,1
EndSplineSet
Substitution2: "'fina' Terminal Forms in Arabic lookup 9 subtable" uniFEDE
Substitution2: "'medi' Medial Forms in Arabic lookup 11 subtable" uniFEE0
Substitution2: "'init' Initial Forms in Arabic lookup 13 subtable" uniFEDF
EndChar

StartChar: uni0645
Encoding: 1605 1605 40
Width: 1180
VWidth: 2311
GlyphClass: 2
Flags: W
AnchorPoint: "Anchor-10" 593.79 1029.87 basechar 0
AnchorPoint: "Anchor-7" 692.148 -222.569 basechar 0
LayerCount: 2
Fore
SplineSet
481.247070312 195.497070312 m 1,0,1
 675.031974852 186.146980664 675.031974852 186.146980664 724.532226562 185.5390625 c 0,2,3
 859 186 859 186 891.1875 207.874023438 c 0,4,5
 912 222 912 222 928.841796875 258.05078125 c 0,6,7
 993 395 993 395 702.887695312 515.171875 c 0,8,9
 631 545 631 545 573 521.826171875 c 0,10,11
 523 502 523 502 503.182617188 439.3203125 c 0,12,13
 488 391 488 391 481.388671875 265.76953125 c 1,14,-1
 481.247070312 195.497070312 l 1,0,1
826 7.34683640244 m 0,15,16
 779 6 779 6 719.388671875 7.3330078125 c 0,17,18
 535 13 535 13 413.092773438 13.240234375 c 0,19,20
 222.891234659 12.9998625451 222.891234659 12.9998625451 236.454101562 -265.125 c 2,21,-1
 259.916015625 -746.243164062 l 1,22,-1
 95.400390625 -819.765625 l 5,23,-1
 95.400390625 -216.3203125 l 2,24,25
 95 -19 95 -19 175.5078125 84.4716796875 c 0,26,27
 227 151 227 151 325.969726562 167.750976562 c 1,28,29
 308 560 308 560 496 678.515625 c 0,30,31
 563 721 563 721 636 720.322265625 c 0,32,33
 702 720 702 720 772.418945312 686.024414062 c 0,34,35
 1153 505 1153 505 1088.92773438 270.481445312 c 0,36,37
 1060 163 1060 163 1021.48887122 100 c 0,38,39
 968 12 968 12 826 7.34683640244 c 0,15,16
EndSplineSet
Substitution2: "'init' Initial Forms in Arabic lookup 13 subtable" uniFEE3
Substitution2: "'medi' Medial Forms in Arabic lookup 11 subtable" uniFEE4
Substitution2: "'fina' Terminal Forms in Arabic lookup 9 subtable" uniFEE2
EndChar

StartChar: uni0647
Encoding: 1607 1607 42
Width: 915
VWidth: 2311
GlyphClass: 2
Flags: W
AnchorPoint: "Anchor-10" 428.3 1166.62 basechar 0
AnchorPoint: "Anchor-7" 428.016 -217.273 basechar 0
LayerCount: 2
Fore
SplineSet
449.063476562 650.86328125 m 1,0,1
 258 477 258 477 259.057617188 321.1796875 c 0,2,3
 260 181 260 181 457.599609375 180.59375 c 4,4,5
 661 181 661 181 662.4921875 311.639648438 c 0,6,7
 664 469 664 469 449.063476562 650.86328125 c 1,0,1
458.944335938 3.7421875 m 0,8,9
 298 4 298 4 202 79 c 0,10,11
 100 158 100 158 99.1865234375 316.799804688 c 0,12,13
 97 512 97 512 329.345703125 761.205078125 c 1,14,-1
 292.557617188 792.41796875 l 1,15,-1
 393.400390625 932.799804688 l 1,16,17
 819 595 819 595 822.06640625 316.799804688 c 0,18,19
 824 158 824 158 706 68 c 0,20,21
 621 3 621 3 458.944335938 3.7421875 c 0,8,9
EndSplineSet
Substitution2: "'fina' Terminal Forms in Arabic lookup 9 subtable" uniFEEA
Substitution2: "'medi' Medial Forms in Arabic lookup 11 subtable" uniFEEC
Substitution2: "'init' Initial Forms in Arabic lookup 13 subtable" uniFEEB
EndChar

StartChar: uni0648
Encoding: 1608 1608 43
Width: 891
VWidth: 2311
GlyphClass: 2
Flags: W
AnchorPoint: "Anchor-7" 336.38 -648.85 basechar 0
AnchorPoint: "Anchor-10" 434.959 1021.28 basechar 0
LayerCount: 2
Fore
SplineSet
441.108398438 547.790039062 m 0,0,1
 306 544 306 544 260.57421875 364.853515625 c 0,2,3
 208 160 208 160 438.83984375 160.7578125 c 0,4,5
 560 161 560 161 630.270507812 214.696289062 c 1,6,7
 630 272 630 272 626 309 c 0,8,9
 598 553 598 553 441.108398438 547.790039062 c 0,0,1
727.16015625 533.513671875 m 0,10,11
 791 402 791 402 790.135742188 182.3203125 c 0,12,13
 789 -117 789 -117 662.885742188 -280.151367188 c 0,14,15
 482.903849669 -514.124993917 482.903849669 -514.124993917 102.82421875 -517.419921875 c 2,16,-1
 100.909179688 -517.436523438 l 1,17,-1
 45.548828125 -377.798828125 l 1,18,19
 571 -347 571 -347 622.213867188 39.9794921875 c 1,20,21
 532 -9 532 -9 414.49609375 -8.74609375 c 0,22,23
 319 -8 319 -8 254.400390625 21.7412109375 c 0,24,25
 97 94 97 94 98.8798828125 275.599609375 c 0,26,27
 100 392 100 392 149.642578125 501.83984375 c 0,28,29
 247 719 247 719 443 720.208984375 c 0,30,31
 637 721 637 721 727.16015625 533.513671875 c 0,10,11
EndSplineSet
Substitution2: "'fina' Terminal Forms in Arabic lookup 9 subtable" uniFEEE
EndChar

StartChar: uni0649
Encoding: 1609 1609 44
Width: 1470
VWidth: 2311
GlyphClass: 2
Flags: W
AnchorPoint: "Anchor-10" 628.105 762.314 basechar 0
AnchorPoint: "Anchor-7" 636.429 -707.4 basechar 0
LayerCount: 2
Fore
SplineSet
1044.74414062 149.737304688 m 2,0,-1
 1100.40234375 150.900390625 l 1,1,2
 1207 151 1207 151 1268.38964844 125.749023438 c 0,3,4
 1373 83 1373 83 1373.4375 -53.2724609375 c 0,5,6
 1374 -183 1374 -183 1294.17285156 -283 c 0,7,8
 1118 -504 1118 -504 707.80859375 -504.716796875 c 0,9,10
 513 -505 513 -505 383.521484375 -448.900390625 c 0,11,12
 99 -324 99 -324 97.111328125 31 c 0,13,14
 96 231 96 231 222.884765625 501.415039062 c 1,15,-1
 360 441 l 1,16,17
 267 230 267 230 262.9765625 53 c 0,18,19
 254 -332 254 -332 716.275390625 -328.954101562 c 0,20,21
 1020 -327 1020 -327 1164 -188.465820312 c 0,22,23
 1219 -136 1219 -136 1220.52539062 -93.3251953125 c 0,24,25
 1223.98250091 -24.3491408099 1223.98250091 -24.3491408099 1138.52734375 -23.970703125 c 2,26,-1
 1028.04785156 -23.4814453125 l 2,27,28
 772 -22 772 -22 772.156637392 179 c 0,29,30
 773 401 773 401 977.522460938 563.444335938 c 0,31,32
 1120.72364112 676.781275061 1120.72364112 676.781275061 1321.3515625 682.516601562 c 2,33,-1
 1359.27050781 683.600585938 l 1,34,-1
 1329.35449219 492.115234375 l 1,35,-1
 1315.15820312 492.124023438 l 2,36,37
 1189 492 1189 492 1082 422.568359375 c 0,38,39
 1002 370 1002 370 958.806969568 283 c 0,40,41
 941 247 941 247 935.5 210.5 c 0,42,43
 926 147 926 147 1044.74414062 149.737304688 c 2,0,-1
EndSplineSet
Substitution2: "'fina' Terminal Forms in Arabic lookup 9 subtable" uniFEF0
Substitution2: "'medi' Medial Forms in Arabic lookup 11 subtable" uniFBE9
Substitution2: "'init' Initial Forms in Arabic lookup 13 subtable" uniFBE8
EndChar

StartChar: uni064B
Encoding: 1611 1611 46
Width: -26
VWidth: 2316
GlyphClass: 4
Flags: W
AnchorPoint: "Anchor-10" 583.551 1123.65 mark 0
AnchorPoint: "Anchor-9" 583.551 1123.65 mark 0
AnchorPoint: "Anchor-1" 553.285 1596.25 basemark 0
AnchorPoint: "Anchor-1" 583.551 1123.65 mark 0
LayerCount: 2
Fore
SplineSet
326.700195312 1076.40039062 m 1,0,-1
 326.700195312 1179.97753906 l 1,1,-1
 782.099609375 1366.27832031 l 1,2,-1
 782.099609375 1262.70019531 l 1,3,-1
 326.700195312 1076.40039062 l 1,0,-1
326.700195312 1288.40039062 m 1,4,-1
 326.700195312 1391.97753906 l 1,5,-1
 782.099609375 1578.27832031 l 1,6,-1
 782.099609375 1474.70019531 l 1,7,-1
 326.700195312 1288.40039062 l 1,4,-1
EndSplineSet
EndChar

StartChar: uni064C
Encoding: 1612 1612 47
Width: -26
VWidth: 2316
GlyphClass: 4
Flags: W
AnchorPoint: "Anchor-10" 680.906 1278.67 mark 0
AnchorPoint: "Anchor-9" 680.906 1278.67 mark 0
AnchorPoint: "Anchor-1" 571.739 1885.46 basemark 0
AnchorPoint: "Anchor-1" 680.906 1278.67 mark 0
LayerCount: 2
Fore
SplineSet
633.040039062 1462.46289062 m 6,0,1
 489.000347825 1514.41652454 489.000347825 1514.41652454 489.095703125 1628.60546875 c 0,2,3
 489 1692 489 1692 525.045898438 1735.86328125 c 0,4,5
 571 1791 571 1791 651.81640625 1791.01269531 c 0,6,7
 713 1791 713 1791 757.556640625 1755.05273438 c 0,8,9
 790 1729 790 1729 804.584960938 1690.25097656 c 0,10,11
 815 1662 815 1662 814.391601562 1628.453125 c 0,12,13
 814 1570 814 1570 788.653320312 1509.30078125 c 1,14,15
 807 1503 807 1503 830.497070312 1502.51953125 c 1,16,-1
 830.497070312 1427.00878906 l 1,17,18
 801 1428 801 1428 753.71875 1436.33105469 c 1,19,20
 659 1212 659 1212 473.6796875 1210.96386719 c 0,21,22
 273 1210 273 1210 268 1490 c 1,23,-1
 346.795898438 1504.47949219 l 1,24,25
 351 1289 351 1289 472.537109375 1289.27539062 c 4,26,27
 584 1290 584 1290 672.62890625 1448.18359375 c 5,28,-1
 633.040039062 1462.46289062 l 6,0,1
708.779296875 1522.83300781 m 1,29,-1
 714.9453125 1537.05273438 l 2,30,31
 735.845703125 1585.05273438 735.845703125 1585.05273438 736.00390625 1626.76953125 c 0,32,33
 735.845703125 1668.05273438 735.845703125 1668.05273438 710.932617188 1688.43457031 c 0,34,35
 685.845703125 1710.05273438 685.845703125 1710.05273438 655.787109375 1710.52441406 c 0,36,37
 610.845703125 1711.05273438 610.845703125 1711.05273438 586.24609375 1678.953125 c 0,38,39
 568.845703125 1656.05273438 568.845703125 1656.05273438 568.713867188 1625.08007812 c 0,40,41
 568.845703125 1578.05273438 568.845703125 1578.05273438 634.583984375 1547.84277344 c 0,42,43
 657.845703125 1537.05273438 657.845703125 1537.05273438 708.779296875 1522.83300781 c 1,29,-1
EndSplineSet
EndChar

StartChar: uni064D
Encoding: 1613 1613 48
Width: -26
VWidth: 2316
GlyphClass: 4
Flags: W
AnchorPoint: "Anchor-7" 542.278 32.7109 mark 0
AnchorPoint: "Anchor-6" 542.278 32.7109 mark 0
AnchorPoint: "Anchor-0" 592.022 -407.025 basemark 0
AnchorPoint: "Anchor-0" 542.278 32.7109 mark 0
LayerCount: 2
Fore
SplineSet
332.099609375 -446 m 1,0,-1
 332.099609375 -342.422851562 l 1,1,-1
 787.5 -156.122070312 l 1,2,-1
 787.5 -259.700195312 l 1,3,-1
 332.099609375 -446 l 1,0,-1
332.099609375 -234 m 1,4,-1
 332.099609375 -130.422851562 l 1,5,-1
 787.5 55.8779296875 l 1,6,-1
 787.5 -47.7001953125 l 1,7,-1
 332.099609375 -234 l 1,4,-1
EndSplineSet
EndChar

StartChar: uni064E
Encoding: 1614 1614 49
Width: -26
VWidth: 2316
GlyphClass: 4
Flags: W
AnchorPoint: "Anchor-10" 545.66 1397.63 mark 0
AnchorPoint: "Anchor-9" 545.66 1397.63 mark 0
AnchorPoint: "Anchor-1" 541.396 1651.77 basemark 0
AnchorPoint: "Anchor-1" 545.66 1397.63 mark 0
LayerCount: 2
Fore
SplineSet
296.099609375 1349.09960938 m 1,0,-1
 296.099609375 1452.67773438 l 1,1,-1
 751.5 1638.97851562 l 1,2,-1
 751.5 1535.40039062 l 1,3,-1
 296.099609375 1349.09960938 l 1,0,-1
EndSplineSet
EndChar

StartChar: uni064F
Encoding: 1615 1615 50
Width: -26
VWidth: 2316
GlyphClass: 4
Flags: W
AnchorPoint: "Anchor-10" 591.295 1359.37 mark 0
AnchorPoint: "Anchor-9" 591.295 1359.37 mark 0
AnchorPoint: "Anchor-1" 570.134 1910.4 basemark 0
AnchorPoint: "Anchor-1" 591.295 1359.37 mark 0
LayerCount: 2
Fore
SplineSet
722.65234375 1427.00195312 m 1,0,1
 681 1427 681 1427 642.682617188 1433.07324219 c 1,2,3
 545 1296 545 1296 299.57421875 1282.671875 c 1,4,-1
 299.57421875 1360.92578125 l 5,5,6
 496 1379 496 1379 565.90625 1454.50097656 c 5,7,8
 516 1464 516 1464 466.532226562 1491.44140625 c 0,9,10
 380 1540 380 1540 380.25 1625.55273438 c 0,11,12
 381 1690 381 1690 416.200195312 1732.81054688 c 0,13,14
 462 1788 462 1788 542.970703125 1787.95996094 c 0,15,16
 604 1788 604 1788 648.7109375 1752 c 0,17,18
 681 1726 681 1726 695.739257812 1687.19824219 c 0,19,20
 706 1659 706 1659 705.545898438 1625.40039062 c 0,21,22
 705 1567 705 1567 679.807617188 1506.24804688 c 1,23,24
 700 1503 700 1503 722.65234375 1502.28222656 c 1,25,-1
 722.65234375 1427.00195312 l 1,0,1
599.93359375 1519.78027344 m 1,26,-1
 606.099609375 1534 l 2,27,28
 627 1582 627 1582 627.158203125 1623.71679688 c 0,29,30
 627 1665 627 1665 602.086914062 1685.38183594 c 0,31,32
 577 1707 577 1707 546.94140625 1707.47167969 c 0,33,34
 502 1708 502 1708 477.400390625 1675.90039062 c 0,35,36
 460 1653 460 1653 459.868164062 1622.02734375 c 0,37,38
 460 1575 460 1575 525.73828125 1544.79003906 c 0,39,40
 549 1534 549 1534 599.93359375 1519.78027344 c 1,26,-1
EndSplineSet
EndChar

StartChar: uni0650
Encoding: 1616 1616 51
Width: -26
VWidth: 2316
GlyphClass: 4
Flags: W
AnchorPoint: "Anchor-7" 571.144 -44.8242 mark 0
AnchorPoint: "Anchor-6" 571.144 -44.8242 mark 0
AnchorPoint: "Anchor-0" 619.091 -324.624 basemark 0
AnchorPoint: "Anchor-0" 571.144 -44.8242 mark 0
LayerCount: 2
Fore
SplineSet
342.900390625 -345.599609375 m 1,0,-1
 342.900390625 -242.022460938 l 1,1,-1
 798.299804688 -55.7216796875 l 1,2,-1
 798.299804688 -159.299804688 l 1,3,-1
 342.900390625 -345.599609375 l 1,0,-1
EndSplineSet
EndChar

StartChar: uni0651
Encoding: 1617 1617 52
Width: -26
VWidth: 2393
GlyphClass: 4
Flags: W
AnchorPoint: "Anchor-10" 598.801 1463.71 mark 0
AnchorPoint: "Anchor-9" 598.801 1463.71 mark 0
AnchorPoint: "Anchor-1" 570.087 1849.1 basemark 0
AnchorPoint: "Anchor-1" 598.801 1463.71 mark 0
LayerCount: 2
Fore
SplineSet
608.421875 1768.46289062 m 1,0,1
 610.200195312 1727.09960938 610.200195312 1727.09960938 610.623046875 1685.90234375 c 0,2,3
 610.200195312 1593.90039062 610.200195312 1593.90039062 676.689453125 1594.25195312 c 0,4,5
 747 1594.79980469 747 1594.79980469 747.626953125 1695.16894531 c 0,6,7
 747.900390625 1733.40039062 747.900390625 1733.40039062 731.092773438 1812.90917969 c 1,8,-1
 819.168945312 1826.859375 l 1,9,10
 837 1764.90039062 837 1764.90039062 836.52734375 1705.04003906 c 0,11,12
 837 1503 837 1503 690.397460938 1501.66601562 c 4,13,14
 626.400390625 1501.20019531 626.400390625 1501.20019531 583.87890625 1555.26660156 c 1,15,16
 553.5 1438.20019531 553.5 1438.20019531 431.985351562 1437.88964844 c 0,17,18
 297 1438.20019531 297 1438.20019531 294.302734375 1606.5 c 0,19,20
 293.400390625 1665.90039062 293.400390625 1665.90039062 307.078125 1715.74121094 c 1,21,-1
 385.392578125 1702.72070312 l 1,22,23
 375.299804688 1656 375.299804688 1656 375.577148438 1619.63378906 c 0,24,25
 376.200195312 1536.29980469 376.200195312 1536.29980469 443.658203125 1535.90234375 c 0,26,27
 525.599609375 1535.40039062 525.599609375 1535.40039062 529.950195312 1649.21582031 c 0,28,29
 531.900390625 1700.09960938 531.900390625 1700.09960938 531.095703125 1768.46289062 c 1,30,-1
 608.421875 1768.46289062 l 1,0,1
EndSplineSet
EndChar

StartChar: uni0652
Encoding: 1618 1618 53
Width: -26
VWidth: 2316
GlyphClass: 4
Flags: W
AnchorPoint: "Anchor-10" 595.219 1271.43 mark 0
AnchorPoint: "Anchor-9" 595.219 1271.43 mark 0
AnchorPoint: "Anchor-1" 595.537 1682.66 basemark 0
AnchorPoint: "Anchor-1" 595.219 1271.43 mark 0
LayerCount: 2
Fore
SplineSet
421.07421875 1461.82128906 m 128,-1,1
 421.07421875 1534.5078125 421.07421875 1534.5078125 471.39453125 1584.82910156 c 128,-1,2
 521.715820312 1635.14941406 521.715820312 1635.14941406 594.40234375 1635.14941406 c 128,-1,3
 667.087890625 1635.14941406 667.087890625 1635.14941406 717.41015625 1584.82910156 c 128,-1,4
 767.731445312 1534.5078125 767.731445312 1534.5078125 767.731445312 1461.82128906 c 128,-1,5
 767.731445312 1389.13574219 767.731445312 1389.13574219 717.41015625 1338.81445312 c 128,-1,6
 667.087890625 1288.49316406 667.087890625 1288.49316406 594.40234375 1288.49316406 c 128,-1,7
 521.715820312 1288.49316406 521.715820312 1288.49316406 471.39453125 1338.81445312 c 128,-1,0
 421.07421875 1389.13574219 421.07421875 1389.13574219 421.07421875 1461.82128906 c 128,-1,1
502.666015625 1461.02246094 m 0,8,9
 502 1422 502 1422 529.983398438 1394.24609375 c 0,10,11
 557 1367 557 1367 596.758789062 1366.92871094 c 0,12,13
 636 1367 636 1367 663.533203125 1394.24609375 c 0,14,15
 691 1422 691 1422 690.8515625 1461.02246094 c 0,16,17
 691 1500 691 1500 663.533203125 1527.796875 c 0,18,19
 636 1555 636 1555 596.758789062 1555.11425781 c 0,20,21
 557 1555 557 1555 529.983398438 1527.796875 c 0,22,23
 502 1500 502 1500 502.666015625 1461.02246094 c 0,8,9
EndSplineSet
EndChar

StartChar: uni0653
Encoding: 1619 1619 54
Width: 0
VWidth: 2317
GlyphClass: 4
Flags: W
AnchorPoint: "Anchor-10" 431.25 1353.11 mark 0
AnchorPoint: "Anchor-9" 431.25 1353.11 mark 0
AnchorPoint: "Anchor-1" 469.41 1723.53 basemark 0
AnchorPoint: "Anchor-1" 431.25 1353.11 mark 0
LayerCount: 2
Fore
SplineSet
163 1323 m 5,0,-1
 78.4404296875 1424.08007812 l 1,1,2
 184.220964119 1593.3535941 184.220964119 1593.3535941 331.780273438 1567.66015625 c 2,3,-1
 466.400390625 1544.21972656 l 2,4,5
 544 1531 544 1531 661.440429688 1601.45996094 c 1,6,-1
 726.099609375 1486.12011719 l 1,7,8
 623 1392 623 1392 476.860351562 1407.3203125 c 2,9,-1
 330.719726562 1422.51953125 l 2,10,11
 237 1432 237 1432 163 1323 c 5,0,-1
EndSplineSet
EndChar

StartChar: uni0657
Encoding: 1623 1623 57
Width: -26
VWidth: 2316
GlyphClass: 4
Flags: W
AnchorPoint: "Anchor-10" 513.285 1400.55 mark 0
AnchorPoint: "Anchor-9" 513.285 1400.55 mark 0
AnchorPoint: "Anchor-1" 573.285 2089.85 basemark 0
AnchorPoint: "Anchor-1" 513.285 1400.55 mark 0
LayerCount: 2
Fore
SplineSet
264.529296875 1804.66113281 m 1,0,1
 324 1803 324 1803 394.52734375 1795.6015625 c 1,2,-1
 395.744140625 1797.33398438 l 2,3,4
 545 2010 545 2010 784.673828125 2032.71289062 c 1,5,-1
 784.673828125 1954.59179688 l 1,6,7
 600 1925 600 1925 486.279296875 1778.19140625 c 1,8,9
 548 1760 548 1760 591.110351562 1728.47753906 c 0,10,11
 658 1678 658 1678 657.9765625 1598.87109375 c 0,12,13
 658 1529 658 1529 613.258789062 1482.93261719 c 0,14,15
 570 1438 570 1438 501.358398438 1438.01367188 c 0,16,17
 427 1438 427 1438 373.69921875 1490.15820312 c 0,18,19
 332 1532 332 1532 331.635742188 1603.27929688 c 0,20,21
 332 1647 332 1647 355.373046875 1722.42480469 c 1,22,23
 315 1726 315 1726 264.529296875 1726.37695312 c 1,24,-1
 264.529296875 1804.66113281 l 1,0,1
501.342773438 1516.40234375 m 0,25,26
 542 1517 542 1517 561.741210938 1544 c 0,27,28
 577 1566 577 1566 577.313476562 1596.63378906 c 0,29,30
 577 1656 577 1656 499 1689 c 0,31,32
 468 1702 468 1702 437.249023438 1708.89453125 c 1,33,34
 410 1645 410 1645 410.0234375 1604.96484375 c 0,35,36
 410 1584 410 1584 416.790039062 1568.4453125 c 0,37,38
 427 1545 427 1545 452 1530.51660156 c 128,-1,39
 477 1516 477 1516 501.342773438 1516.40234375 c 0,25,26
EndSplineSet
EndChar

StartChar: uni065A
Encoding: 1626 1626 58
Width: 1135
VWidth: 2316
GlyphClass: 4
Flags: W
AnchorPoint: "Anchor-10" 573.285 1350.55 mark 0
AnchorPoint: "Anchor-9" 573.285 1350.55 mark 0
AnchorPoint: "Anchor-1" 571.012 1862.38 basemark 0
AnchorPoint: "Anchor-1" 573.285 1350.55 mark 0
LayerCount: 2
Fore
SplineSet
502.3671875 1444.42578125 m 5,0,-1
 308.524414062 1768.49023438 l 5,1,-1
 432.922851562 1768.49023438 l 5,2,-1
 573.28515625 1527.93945312 l 5,3,-1
 713.6484375 1768.49023438 l 5,4,-1
 838.047851562 1768.49023438 l 5,5,-1
 644.202148438 1444.42578125 l 5,6,-1
 502.3671875 1444.42578125 l 5,0,-1
EndSplineSet
EndChar

StartChar: afii57392
Encoding: 1632 1632 59
Width: 826
VWidth: 2311
GlyphClass: 2
Flags: W
LayerCount: 2
Fore
SplineSet
312.130859375 550.768554688 m 128,-1,1
 312.130859375 508.778320312 312.130859375 508.778320312 341.775390625 478.962890625 c 128,-1,2
 371.40234375 449.162109375 371.40234375 449.162109375 413.114257812 449.162109375 c 128,-1,3
 454.82421875 449.162109375 454.82421875 449.162109375 484.453125 478.962890625 c 128,-1,4
 514.096679688 508.776367188 514.096679688 508.776367188 514.096679688 550.768554688 c 128,-1,5
 514.096679688 592.758789062 514.096679688 592.758789062 484.454101562 622.576171875 c 128,-1,6
 454.828125 652.377929688 454.828125 652.377929688 413.114257812 652.377929688 c 128,-1,7
 371.40234375 652.377929688 371.40234375 652.377929688 341.774414062 622.576171875 c 128,-1,0
 312.130859375 592.759765625 312.130859375 592.759765625 312.130859375 550.768554688 c 128,-1,1
150.469726562 553.634765625 m 128,-1,9
 150.469726562 662.8046875 150.469726562 662.8046875 227.5390625 740.32421875 c 128,-1,10
 304.56640625 817.801757812 304.56640625 817.801757812 413.010742188 817.801757812 c 128,-1,11
 521.459960938 817.801757812 521.459960938 817.801757812 598.483398438 740.32421875 c 128,-1,12
 675.55078125 662.802734375 675.55078125 662.802734375 675.55078125 553.634765625 c 128,-1,13
 675.55078125 444.459960938 675.55078125 444.459960938 598.482421875 366.948242188 c 128,-1,14
 521.450195312 289.471679688 521.450195312 289.471679688 413.010742188 289.471679688 c 128,-1,15
 304.565429688 289.471679688 304.565429688 289.471679688 227.540039062 366.948242188 c 128,-1,8
 150.469726562 444.46484375 150.469726562 444.46484375 150.469726562 553.634765625 c 128,-1,9
EndSplineSet
EndChar

StartChar: afii57393
Encoding: 1633 1633 60
Width: 746
VWidth: 2311
GlyphClass: 2
Flags: W
LayerCount: 2
Fore
SplineSet
468.147460938 708 m 4,0,1
 510 403 510 403 510.645507812 9.009765625 c 1,2,-1
 348.249023438 9.009765625 l 1,3,-1
 348.244140625 12.1845703125 l 2,4,5
 348.005018556 389.089731866 348.005018556 389.089731866 296.129882812 697.580078125 c 4,6,7
 233 1073 233 1073 114.756835938 1328.546875 c 5,8,-1
 269.240234375 1403.38085938 l 5,9,10
 421 1049 421 1049 468.147460938 708 c 4,0,1
EndSplineSet
EndChar

StartChar: afii57394
Encoding: 1634 1634 61
Width: 1106
VWidth: 2170
GlyphClass: 2
Flags: W
LayerCount: 2
Fore
SplineSet
269.240234375 1403.38085938 m 5,0,1
 367 1131.69433594 l 6,2,3
 410 1013 410 1013 598.440429688 1012.80761719 c 4,4,5
 736 1013 736 1013 804.709960938 1170.48730469 c 4,6,7
 834 1237 834 1237 856.360351562 1402.25097656 c 5,8,-1
 999.112304688 1362.66113281 l 5,9,10
 985 1174 985 1174 928.73828125 1053.3203125 c 4,11,12
 826 831 826 831 599.959960938 831.840820312 c 4,13,14
 519 832 519 832 441.205078125 857.64453125 c 5,15,16
 510 475 510 475 510.645507812 9.009765625 c 1,17,-1
 348.249023438 9.009765625 l 1,18,-1
 348.244140625 12.1845703125 l 2,19,20
 348.005018556 389.089731866 348.005018556 389.089731866 296.129882812 697.580078125 c 4,21,22
 233 1073 233 1073 114.756835938 1328.546875 c 5,23,-1
 269.240234375 1403.38085938 l 5,0,1
EndSplineSet
EndChar

StartChar: afii57395
Encoding: 1635 1635 62
Width: 1305
VWidth: 2170
GlyphClass: 2
Flags: W
LayerCount: 2
Fore
SplineSet
441.205078125 857.64453125 m 5,0,1
 509 500 509 500 510.645507812 9.009765625 c 1,2,-1
 348.249023438 9.009765625 l 1,3,-1
 348.244140625 12.1845703125 l 2,4,5
 348 391 348 391 296.129882812 697.580078125 c 4,6,7
 233 1073 233 1073 114.756835938 1328.546875 c 5,8,-1
 269.240234375 1403.38085938 l 5,9,10
 369.166992188 1125 l 6,11,12
 411 1008 411 1008 538.940429688 1007.85253906 c 4,13,14
 592 1008 592 1008 623 1040 c 4,15,16
 675.53515625 1095.50884434 675.53515625 1095.50884434 675.53515625 1351.0546875 c 6,17,-1
 675.53515625 1354.25878906 l 5,18,-1
 804.923828125 1353.2890625 l 5,19,20
 815 1169 815 1169 821.942382812 1108.99023438 c 4,21,22
 834 1009 834 1009 951.336914062 1009.22851562 c 4,23,24
 1085 1010 1085 1010 1056.05664062 1393.9609375 c 5,25,-1
 1204.22070312 1391.83789062 l 5,26,27
 1242 836 1242 836 949.9609375 838.609375 c 4,28,29
 815 840 815 840 745.743164062 939.53515625 c 5,30,31
 683 837 683 837 551.404296875 836.181640625 c 4,32,33
 498 836 498 836 441.205078125 857.64453125 c 5,0,1
EndSplineSet
EndChar

StartChar: afii57396
Encoding: 1636 1636 63
Width: 990
VWidth: 2442
GlyphClass: 2
Flags: W
LayerCount: 2
Fore
SplineSet
726.124023438 740.22265625 m 1,0,1
 272 539 272 539 272.419921875 362.51953125 c 0,2,3
 272.000499007 180.216893783 272.000499007 180.216893783 577.689453125 181.259765625 c 2,4,-1
 891.421875 182.330078125 l 1,5,-1
 893.618164062 -0.0029296875 l 1,6,-1
 537.630859375 0.3857421875 l 2,7,8
 97 1 97 1 96.4599609375 324.360351562 c 0,9,10
 96 544 96 544 433.989257812 771.817382812 c 1,11,12
 174 833 174 833 174.232421875 1051.04101562 c 4,13,14
 174 1376 174 1376 690.456054688 1412.90625 c 5,15,-1
 690.456054688 1224.09570312 l 5,16,17
 365 1206 365 1206 364.826171875 1071.52050781 c 4,18,19
 365 885 365 885 723.916015625 876.705078125 c 5,20,-1
 726.124023438 740.22265625 l 1,0,1
EndSplineSet
EndChar

StartChar: afii57397
Encoding: 1637 1637 64
Width: 1174
VWidth: 2311
GlyphClass: 2
Flags: W
LayerCount: 2
Fore
SplineSet
604.984375 193.802734375 m 0,0,1
 901 194 901 194 897.334960938 478.01953125 c 4,2,3
 894 791 894 791 569.471679688 1093.68261719 c 1,4,5
 279 789 279 789 279.563476562 496.534179688 c 4,6,7
 280 194 280 194 604.984375 193.802734375 c 0,0,1
364.040039062 1251.30371094 m 1,8,-1
 489.99609375 1415.38671875 l 1,9,10
 1081 964 1081 964 1081.5 474.379882812 c 4,11,12
 1082 15 1082 15 604.047851562 14.126953125 c 0,13,14
 104.922098257 13.9997252413 104.922098257 13.9997252413 96.6201171875 471.879882812 c 4,15,16
 90 847 90 847 426.96875 1192.74414062 c 1,17,-1
 364.040039062 1251.30371094 l 1,8,-1
EndSplineSet
EndChar

StartChar: afii57398
Encoding: 1638 1638 65
Width: 1175
VWidth: 2311
GlyphClass: 2
Flags: W
LayerCount: 2
Fore
SplineSet
95.34765625 1396.77050781 m 5,0,1
 482 1295 482 1295 926.709960938 1397.44335938 c 5,2,-1
 926.728515625 1393.47070312 l 6,3,4
 928 1070 928 1070 964.515625 724.350585938 c 4,5,6
 1012 267 1012 267 1078.06542969 9.009765625 c 1,7,-1
 888.5625 9.009765625 l 1,8,9
 835 217 835 217 791.766601562 683.8671875 c 0,10,11
 759 1039 759 1039 756.29296875 1196.85253906 c 5,12,13
 629 1160 629 1160 454.084960938 1159.88476562 c 4,14,15
 279 1160 279 1160 95.34765625 1212.58789062 c 5,16,-1
 95.34765625 1396.77050781 l 5,0,1
EndSplineSet
EndChar

StartChar: afii57399
Encoding: 1639 1639 66
Width: 1220
VWidth: 2311
GlyphClass: 2
Flags: W
LayerCount: 2
Fore
SplineSet
525.734375 9.009765625 m 1,0,1
 452 621 452 621 105.444335938 1316.06152344 c 5,2,-1
 266.16015625 1402.78320312 l 5,3,4
 518 886 518 886 615.330078125 356.770507812 c 1,5,6
 715 875 715 875 953.899414062 1402.78417969 c 5,7,-1
 1114.46875 1316.0546875 l 5,8,9
 790 614 790 614 695.03515625 9.009765625 c 1,10,-1
 525.734375 9.009765625 l 1,0,1
EndSplineSet
EndChar

StartChar: afii57400
Encoding: 1640 1640 67
Width: 1220
VWidth: 2311
GlyphClass: 2
Flags: W
LayerCount: 2
Fore
SplineSet
525.734375 1402.78417969 m 5,0,1
 695.03515625 1402.78417969 l 5,2,3
 789 798 789 798 1114.46875 95.7392578125 c 1,4,-1
 953.899414062 9.009765625 l 1,5,6
 715 537 715 537 615.330078125 1055.0234375 c 5,7,8
 518 526 518 526 266.16015625 9.0107421875 c 1,9,-1
 105.444335938 95.732421875 l 1,10,11
 452 791 452 791 525.734375 1402.78417969 c 5,0,1
EndSplineSet
EndChar

StartChar: afii57401
Encoding: 1641 1641 68
Width: 1179
VWidth: 2311
GlyphClass: 2
Flags: W
LayerCount: 2
Fore
SplineSet
850 -20 m 5,0,1
 786 175 786 175 748.818359375 668.16796875 c 1,2,3
 449 648 449 648 284.080078125 733.173828125 c 0,4,5
 104 827 104 827 103.879882812 1029.76953125 c 0,6,7
 104 1196 104 1196 219.778320312 1310.95703125 c 0,8,9
 334 1426 334 1426 498.200195312 1426.48046875 c 0,10,11
 865 1429 865 1429 891.024414062 995.502929688 c 0,12,13
 906 751 906 751 923.8984375 528.62890625 c 0,14,15
 945 258 945 258 1006.13476562 29.009765625 c 5,16,-1
 850 -20 l 5,0,1
730.58203125 841.556640625 m 1,17,-1
 725.282226562 941.61328125 l 2,18,19
 709 1250 709 1250 508.501953125 1248.07519531 c 0,20,21
 416 1247 416 1247 351.919921875 1196.37304688 c 0,22,23
 282 1141 282 1141 282.095703125 1036.44628906 c 0,24,25
 282 925 282 925 400.9609375 868.421875 c 0,26,27
 505 819 505 819 730.58203125 841.556640625 c 1,17,-1
EndSplineSet
EndChar

StartChar: afii57381
Encoding: 1642 1642 69
Width: 1253
VWidth: 2317
GlyphClass: 2
Flags: W
LayerCount: 2
Fore
SplineSet
269.572265625 1297.6875 m 132,-1,1
 269.572265625 1346.89355469 269.572265625 1346.89355469 305.357421875 1382.6796875 c 132,-1,2
 341.142578125 1418.46484375 341.142578125 1418.46484375 389.229492188 1417.34667969 c 4,3,4
 437.317382812 1418.46484375 437.317382812 1418.46484375 473.102539062 1382.6796875 c 132,-1,5
 508.887695312 1346.89355469 508.887695312 1346.89355469 508.887695312 1297.6875 c 132,-1,6
 508.887695312 1248.48242188 508.887695312 1248.48242188 473.102539062 1212.69726562 c 132,-1,7
 437.317382812 1176.91210938 437.317382812 1176.91210938 389.229492188 1178.03027344 c 4,8,9
 341.142578125 1176.91210938 341.142578125 1176.91210938 305.357421875 1212.69726562 c 132,-1,0
 269.572265625 1248.48242188 269.572265625 1248.48242188 269.572265625 1297.6875 c 132,-1,1
749.572265625 180.6875 m 128,-1,11
 749.572265625 229.893554688 749.572265625 229.893554688 785.357421875 265.6796875 c 128,-1,12
 821.142578125 301.46484375 821.142578125 301.46484375 869.229492188 300.346679688 c 0,13,14
 917.317382812 301.46484375 917.317382812 301.46484375 953.102539062 265.6796875 c 128,-1,15
 988.887695312 229.893554688 988.887695312 229.893554688 988.887695312 180.6875 c 128,-1,16
 988.887695312 131.482421875 988.887695312 131.482421875 953.102539062 95.697265625 c 128,-1,17
 917.317382812 59.912109375 917.317382812 59.912109375 869.229492188 61.0302734375 c 0,18,19
 821.142578125 59.912109375 821.142578125 59.912109375 785.357421875 95.697265625 c 128,-1,10
 749.572265625 131.482421875 749.572265625 131.482421875 749.572265625 180.6875 c 128,-1,11
906.044921875 1418.86035156 m 1,20,-1
 1030 1355 l 1,21,-1
 323.564453125 -1.17578125 l 1,22,-1
 200.326171875 66.548828125 l 1,23,-1
 906.044921875 1418.86035156 l 1,20,-1
EndSplineSet
EndChar

StartChar: uni066B
Encoding: 1643 1643 70
Width: 760
VWidth: 2317
GlyphClass: 2
Flags: W
LayerCount: 2
Fore
SplineSet
432.1953125 523.545898438 m 5,0,-1
 565.171875 461.045898438 l 5,1,-1
 173.008789062 -245.129882812 l 1,2,-1
 44.3896484375 -179.41796875 l 1,3,-1
 432.1953125 523.545898438 l 5,0,-1
EndSplineSet
EndChar

StartChar: uni066C
Encoding: 1644 1644 71
Width: 627
VWidth: 2442
GlyphClass: 2
Flags: W
LayerCount: 2
Fore
SplineSet
316.940429688 257.719726562 m 0,0,1
 458 255 458 255 467.631835938 135.653320312 c 0,2,3
 476 26 476 26 417 -86 c 0,4,5
 357 -198 357 -198 235 -287 c 5,6,-1
 182 -238.239257812 l 5,7,8
 306 -126 306 -126 348.546875 -0.3564453125 c 1,9,10
 316 -1 316 -1 305.188476562 -0.0341796875 c 0,11,12
 157 8 157 8 179.209960938 149.53515625 c 0,13,14
 197 261 197 261 316.940429688 257.719726562 c 0,0,1
EndSplineSet
EndChar

StartChar: uni066E
Encoding: 1646 1646 72
Width: 1832
VWidth: 2311
GlyphClass: 2
Flags: W
AnchorPoint: "Anchor-10" 806.894 1117.77 basechar 0
AnchorPoint: "Anchor-7" 563.093 -218.36 basechar 0
LayerCount: 2
Fore
SplineSet
921 181.604492188 m 4,0,1
 1058 182 1058 182 1127.91796875 187.845703125 c 4,2,3
 1571 229 1571 229 1571.51953125 335.830078125 c 0,4,5
 1571 530 1571 530 1527.95898438 721.672851562 c 1,6,-1
 1685.48535156 760.583007812 l 1,7,8
 1735 558 1735 558 1734.54296875 412 c 0,9,10
 1734 298 1734 298 1698.8515625 222.056640625 c 0,11,12
 1596 0 1596 0 907.125976562 0 c 16,13,14
 567 0 567 0 398.397460938 70.6044921875 c 0,15,16
 125 184 125 184 99.65234375 467.181640625 c 0,17,18
 88 600 88 600 131.100585938 751.973632812 c 1,19,-1
 273.30859375 714.452148438 l 1,20,21
 252 573 252 573 254.96875 507.0546875 c 0,22,23
 267 244 267 244 593.8359375 196.705078125 c 4,24,25
 704 181 704 181 921 181.604492188 c 4,0,1
EndSplineSet
Substitution2: "'init' Initial Forms in Arabic lookup 13 subtable" uni066E.init
Substitution2: "'medi' Medial Forms in Arabic lookup 11 subtable" uni066E.medi
Substitution2: "'fina' Terminal Forms in Arabic lookup 9 subtable" uni066E.fina
EndChar

StartChar: uni066F
Encoding: 1647 1647 73
Width: 1427
VWidth: 2311
GlyphClass: 2
Flags: W
AnchorPoint: "Anchor-10" 152.36 1081.41 basechar 0
AnchorPoint: "Anchor-7" 283.8 -666 basechar 0
LayerCount: 2
Fore
SplineSet
1330.2421875 201.044921875 m 4,0,1
 1330 -111 1330 -111 1248 -238.754882812 c 0,2,3
 1106 -462 1106 -462 750.495117188 -463.553710938 c 8,4,5
 435 -465 435 -465 272.130859375 -340.528320312 c 0,6,7
 99 -207 99 -207 99.689453125 72.3466796875 c 0,8,9
 100 279 100 279 192.536132812 487.751953125 c 1,10,-1
 341.270507812 433.259765625 l 1,11,12
 261 238 261 238 261.024414062 89.2626953125 c 0,13,14
 261 -289 261 -289 743.155273438 -290.509765625 c 0,15,16
 992 -291 992 -291 1098 -175.063820277 c 0,17,18
 1173 -93 1173 -93 1176.46582031 89.59765625 c 1,19,20
 1103 38 1103 38 958.413085938 38.068359375 c 0,21,22
 793 38 793 38 713.880859375 146.942382812 c 0,23,24
 667 211 667 211 667.165039062 309.75390625 c 0,25,26
 667 439 667 439 721.517578125 546.830078125 c 0,27,28
 815 733 815 733 995.077148438 732.310546875 c 0,29,30
 1164 732 1164 732 1248.60742188 588.541015625 c 0,31,32
 1330 451 1330 451 1330.2421875 201.044921875 c 4,0,1
977.209960938 210.19140625 m 0,33,34
 1100 209 1100 209 1178.68261719 267.447265625 c 1,35,36
 1178 292 1178 292 1165.46875 370.521484375 c 0,37,38
 1136 560 1136 560 995.97265625 560.528320312 c 0,39,40
 868 561 868 561 826.194335938 388.373046875 c 0,41,42
 817 349 817 349 816.387695312 317.650390625 c 0,43,44
 817 211 817 211 977.209960938 210.19140625 c 0,33,34
EndSplineSet
Substitution2: "'init' Initial Forms in Arabic lookup 13 subtable" uni066F.init
Substitution2: "'medi' Medial Forms in Arabic lookup 11 subtable" uni066F.medi
Substitution2: "'fina' Terminal Forms in Arabic lookup 9 subtable" uni066F.fina
EndChar

StartChar: uni0670
Encoding: 1648 1648 74
Width: 6
VWidth: 2317
GlyphClass: 4
Flags: W
AnchorPoint: "Anchor-10" 583.891 1359.45 mark 0
AnchorPoint: "Anchor-9" 583.891 1359.45 mark 0
AnchorPoint: "Anchor-1" 583.891 1876.62 basemark 0
AnchorPoint: "Anchor-1" 583.891 1359.45 mark 0
LayerCount: 2
Fore
SplineSet
557.712890625 1407.47851562 m 1,0,-1
 532.012695312 1769.93164062 l 5,1,-1
 635.671875 1830.97460938 l 5,2,-1
 635.671875 1407.47851562 l 1,3,-1
 557.712890625 1407.47851562 l 1,0,-1
EndSplineSet
EndChar

StartChar: uni0674
Encoding: 1652 1652 75
Width: 683
VWidth: 2317
GlyphClass: 2
Flags: W
LayerCount: 2
Fore
SplineSet
305.339295456 2010.55235102 m 0,0,1
 416.799176791 2033.27771107 416.799176791 2033.27771107 511.840252328 1977.29096655 c 2,2,-1
 516.764648438 1974.39010599 l 1,3,-1
 516.764648438 1968.67480469 l 1,4,-1
 516.764648438 1856.87304688 l 1,5,-1
 516.764648438 1840.69447866 l 1,6,-1
 502.293388535 1847.928337 l 1,7,-1
 482.350345011 1857.8974173 l 2,8,9
 420.080204221 1889.03061372 420.080204221 1889.03061372 357.650924977 1882.23739902 c 0,10,11
 338.574761273 1880.17902906 338.574761273 1880.17902906 323.421287744 1875.79640903 c 128,-1,12
 308.267814215 1871.41378901 308.267814215 1871.41378901 296.987408497 1864.80600856 c 128,-1,13
 285.70700278 1858.1982281 285.70700278 1858.1982281 277.946018319 1849.1788115 c 128,-1,14
 270.185033857 1840.1593949 270.185033857 1840.1593949 265.867197686 1829.03200953 c 128,-1,15
 261.549361514 1817.90462415 261.549361514 1817.90462415 260.347677679 1804.27821654 c 0,16,17
 253.937092418 1730.05228763 253.937092418 1730.05228763 360.04609701 1697.90827445 c 0,18,19
 392.355063962 1688.11937877 392.355063962 1688.11937877 528.329925001 1719.5641643 c 2,20,-1
 540.583007812 1722.39774366 l 1,21,-1
 540.583007812 1709.82128906 l 1,22,-1
 540.583007812 1594.234375 l 1,23,-1
 540.583007812 1586.23054214 l 1,24,-1
 532.773570162 1584.47725265 l 1,25,-1
 143.743296725 1497.13643234 l 1,26,-1
 131.552734375 1494.39954067 l 1,27,-1
 131.552734375 1506.89355469 l 1,28,-1
 131.552734375 1620.31738281 l 1,29,-1
 131.552734375 1628.27264164 l 1,30,-1
 139.304297595 1630.06133129 l 1,31,-1
 209.370079721 1646.22915913 l 1,32,33
 133.8203125 1703.6708356 133.8203125 1703.6708356 133.8203125 1796.35742188 c 0,34,35
 133.8203125 1899.44171882 133.8203125 1899.44171882 205.866084116 1962.98390198 c 0,36,37
 219.504569551 1974.87928228 219.504569551 1974.87928228 235.170438559 1984.14728866 c 128,-1,38
 250.836307567 1993.41529504 250.836307567 1993.41529504 268.363158534 2000.00141833 c 128,-1,39
 285.890009501 2006.58754162 285.890009501 2006.58754162 305.339295456 2010.55235102 c 0,0,1
EndSplineSet
EndChar

StartChar: uni06A1
Encoding: 1697 1697 79
Width: 1857
VWidth: 2311
GlyphClass: 2
Flags: W
AnchorPoint: "Anchor-10" 534.823 1301.98 basechar 0
AnchorPoint: "Anchor-7" 648.243 -158.873 basechar 0
LayerCount: 2
Fore
SplineSet
1397.23730469 528.8828125 m 0,0,1
 1520 528 1520 528 1598.70996094 586.138671875 c 1,2,3
 1598 611 1598 611 1585.49609375 689.212890625 c 0,4,5
 1556 879 1556 879 1416 879.219726562 c 0,6,7
 1288 880 1288 880 1246.22167969 707.064453125 c 0,8,9
 1237 668 1237 668 1236.41503906 636.341796875 c 0,10,11
 1237 530.03515625 1237 530.03515625 1397.23730469 528.8828125 c 0,0,1
1758.55078125 537.419921875 m 8,12,13
 1759 420 1759 420 1733.57226562 334.930664062 c 0,14,15
 1670 123 1670 123 1447.95996094 51.9404296875 c 0,16,17
 1287 0 1287 0 907.125976562 0 c 16,18,19
 567 0 567 0 398.397460938 70.6044921875 c 0,20,21
 125 184 125 184 99.65234375 467.181640625 c 0,22,23
 88 600 88 600 131.100585938 751.973632812 c 1,24,-1
 273.30859375 714.452148438 l 1,25,26
 252 573 252 573 254.96875 507.0546875 c 0,27,28
 267 243 267 243 593.8359375 195.705078125 c 4,29,30
 697 181 697 181 921 180.604492188 c 4,31,32
 1271 180 1271 180 1404.79882812 220.830078125 c 4,33,34
 1569 271 1569 271 1591 407 c 1,35,36
 1519 357 1519 357 1378.44042969 356.759765625 c 0,37,38
 1213 357 1213 357 1133.90820312 465.633789062 c 0,39,40
 1086 532 1086 532 1087.19238281 628.4453125 c 0,41,42
 1089 761 1089 761 1141.54492188 865.521484375 c 0,43,44
 1235 1052 1235 1052 1415.10449219 1051.00195312 c 0,45,46
 1584 1051 1584 1051 1668.63476562 907.232421875 c 0,47,48
 1758 756 1758 756 1758.55078125 537.419921875 c 8,12,13
EndSplineSet
Substitution2: "'init' Initial Forms in Arabic lookup 13 subtable" uni06A1.init
Substitution2: "'medi' Medial Forms in Arabic lookup 11 subtable" uni06A1.medi
Substitution2: "'fina' Terminal Forms in Arabic lookup 9 subtable" uni06A1.fina
EndChar

StartChar: uni06A9
Encoding: 1705 1705 80
Width: 1967
VWidth: 2311
GlyphClass: 2
Flags: W
AnchorPoint: "Anchor-7" 798.06 -201.16 basechar 0
AnchorPoint: "Anchor-10" 980.9 1349.66 basechar 0
LayerCount: 2
Fore
SplineSet
1258.65722656 1005.63183594 m 5,0,-1
 1604.15332031 620.109375 l 6,1,2
 1707 505 1707 505 1706.94238281 368.94140625 c 4,3,4
 1707 0 1707 0 1259.45996094 0 c 6,5,-1
 907.125976562 0 l 4,6,7
 567 0 567 0 398.397460938 70.6044921875 c 4,8,9
 125 184 125 184 99.65234375 467.181640625 c 4,10,11
 88 600 88 600 131.100585938 751.973632812 c 5,12,-1
 273.30859375 714.452148438 l 5,13,14
 252 573 252 573 254.96875 507.0546875 c 4,15,16
 267 228 267 228 593.8359375 195.705078125 c 4,17,18
 754.287036909 180.596314212 754.287036909 180.596314212 861 180.604492188 c 6,19,-1
 1294.26171875 180.637695312 l 6,20,21
 1553 181 1553 181 1552.75976562 357.834960938 c 4,22,23
 1552.99985651 423.960478841 1552.99985651 423.960478841 1485.87695312 500.44921875 c 6,24,-1
 1099.68261719 940.530273438 l 5,25,26
 1089.99817697 1108.0315309 1089.99817697 1108.0315309 1131.68261719 1127.34570312 c 14,27,-1
 1855.68261719 1462.80566406 l 5,28,-1
 1855.68261719 1279.75390625 l 5,29,-1
 1258.65722656 1005.63183594 l 5,0,-1
EndSplineSet
Substitution2: "'init' Initial Forms in Arabic lookup 13 subtable" uniFB90
Substitution2: "'medi' Medial Forms in Arabic lookup 11 subtable" uniFB91
Substitution2: "'fina' Terminal Forms in Arabic lookup 9 subtable" uniFB8F
EndChar

StartChar: afii57514
Encoding: 1722 1722 82
Width: 1403
VWidth: 2317
GlyphClass: 2
Flags: W
AnchorPoint: "Anchor-10" 632.479 978.46 basechar 0
AnchorPoint: "Anchor-7" 575.075 -555.182 basechar 0
LayerCount: 2
Fore
SplineSet
1244 -183.108398438 m 0,0,1
 1107 -447 1107 -447 690.364257812 -447.545898438 c 0,2,3
 431 -448 431 -448 277 -330.520507812 c 0,4,5
 99 -194 99 -194 99.55859375 88.3544921875 c 0,6,7
 100 295 100 295 192.405273438 503.759765625 c 1,8,-1
 341.139648438 449.267578125 l 1,9,10
 261 254 261 254 260.893554688 105.270507812 c 0,11,12
 261 -275 261 -275 693.024414062 -274.501953125 c 0,13,14
 1154 -274 1154 -274 1153.8515625 123.12109375 c 0,15,16
 1154 264 1154 264 1047.46191406 480.682617188 c 1,17,-1
 1192.29101562 576.477539062 l 5,18,19
 1314 336 1314 336 1314.51953125 129 c 0,20,21
 1315 -45 1315 -45 1244 -183.108398438 c 0,0,1
EndSplineSet
Substitution2: "'init' Initial Forms in Arabic lookup 13 subtable" uni06BA.init
Substitution2: "'medi' Medial Forms in Arabic lookup 11 subtable" uni06BA.medi
Substitution2: "'fina' Terminal Forms in Arabic lookup 9 subtable" uniFB9F
EndChar

StartChar: uni06F4
Encoding: 1780 1780 89
Width: 1108
VWidth: 2311
GlyphClass: 2
Flags: W
LayerCount: 2
Fore
SplineSet
388 1079 m 21,0,1
 388 1182 388 1182 471 1280 c 4,2,3
 574 1401 574 1401 771 1400.26074219 c 4,4,5
 894 1400 894 1400 937.790039062 1371.28222656 c 1,6,-1
 937.790039062 1209.00390625 l 5,7,8
 840 1229 840 1229 792.280273438 1229.1953125 c 4,9,10
 688 1229 688 1229 614 1187 c 4,11,12
 523 1136 523 1136 512.6328125 1032.59570312 c 4,13,14
 498 889 498 889 762.693359375 887.32421875 c 4,15,16
 867 887 867 887 999.28125 934.310546875 c 5,17,-1
 1001.60058594 763.407226562 l 5,18,19
 866 726 866 726 754.439453125 726.51953125 c 4,20,21
 568 727 568 727 448 823 c 5,22,23
 509 499 509 499 510.645507812 9.009765625 c 1,24,-1
 348.249023438 9.009765625 l 1,25,-1
 348.244140625 12.1845703125 l 2,26,27
 348 395 348 395 296.129882812 697.580078125 c 4,28,29
 233 1073 233 1073 114.756835938 1328.546875 c 5,30,-1
 269.240234375 1403.38085938 l 5,31,-1
 388 1079 l 21,0,1
EndSplineSet
EndChar

StartChar: uni06F5
Encoding: 1781 1781 90
Width: 1214
VWidth: 2170
GlyphClass: 2
Flags: W
LayerCount: 2
Fore
SplineSet
815.852539062 187.615234375 m 0,0,1
 950 186 950 186 949.672851562 361.01171875 c 0,2,3
 949 723 949 723 588.35546875 1100.640625 c 1,4,5
 263 706 263 706 263.752929688 360.796875 c 0,6,7
 264 188 264 188 391.607421875 187.798828125 c 4,8,9
 532.091710153 186.999478173 532.091710153 186.999478173 546 379.500976562 c 2,10,-1
 550.440429688 440.959960938 l 1,11,-1
 675.360351562 440.959960938 l 1,12,-1
 681.990234375 379.33203125 l 2,13,14
 702 189 702 189 815.852539062 187.615234375 c 0,0,1
612.166015625 158.462890625 m 1,15,16
 558 9 558 9 387.211914062 8.8662109375 c 0,17,18
 283 9 283 9 213 61 c 0,19,20
 97 148 97 148 97.4267578125 330.7265625 c 0,21,22
 98 733 98 733 463.392578125 1208.62988281 c 1,23,-1
 414.702148438 1250.90332031 l 1,24,-1
 522.45703125 1400.34863281 l 1,25,26
 1123 870 1123 870 1119.81152344 335.008789062 c 0,27,28
 1119 176 1119 176 1029 85 c 0,29,30
 953 9 953 9 832.158203125 9.1103515625 c 0,31,32
 667 10 667 10 612.166015625 158.462890625 c 1,15,16
EndSplineSet
EndChar

StartChar: uni06F6
Encoding: 1782 1782 91
Width: 1008
VWidth: 2311
GlyphClass: 2
Flags: W
LayerCount: 2
Fore
SplineSet
591.301757812 1409.64355469 m 4,0,1
 670 1410 670 1410 769 1378.22949219 c 5,2,-1
 769 1213 l 5,3,4
 549 1279 549 1279 436.442382812 1199.36816406 c 4,5,6
 342 1132 342 1132 342.384765625 1033.33691406 c 4,7,8
 342 934 342 934 416.521484375 878.438476562 c 4,9,10
 555 778 555 778 665.418945312 826.23828125 c 4,11,12
 929 942 929 942 941.430664062 945.706054688 c 5,13,-1
 951.430664062 766.248046875 l 5,14,15
 541 637 541 637 238.534179688 9.009765625 c 1,16,-1
 98 72.6103515625 l 1,17,18
 249 413 249 413 491.700195312 671.040039062 c 5,19,20
 188 737 188 737 175.965820312 993.481445312 c 4,21,22
 167 1182 167 1182 292.411132812 1302.2421875 c 4,23,24
 404 1409 404 1409 591.301757812 1409.64355469 c 4,0,1
EndSplineSet
EndChar

StartChar: uniFB8F
Encoding: 64399 64399 106
Width: 2132
VWidth: 2311
GlyphClass: 2
Flags: W
AnchorPoint: "Anchor-10" 1157.9 1334.66 basechar 0
AnchorPoint: "Anchor-7" 798.06 -201.16 basechar 0
LayerCount: 2
Fore
SplineSet
1258.65722656 1005.63183594 m 1,0,-1
 1908.51757812 284.239257812 l 2,1,2
 2001.99106402 181.009868631 2001.99106402 181.009868631 2093.95410156 180.338867188 c 2,3,-1
 2139.05859375 180.009765625 l 2,4,5
 2157.05859375 179.999968107 2157.05859375 179.999968107 2157.05859375 108.530273438 c 2,6,-1
 2157.05859375 74.5302734375 l 2,7,8
 2157.00025747 0.327502216433 2157.00025747 0.327502216433 2138.30273438 0.5302734375 c 2,9,-1
 2089.40625 1.060546875 l 2,10,11
 1907 3 1907 3 1701.68261719 272.530273438 c 1,12,13
 1643.02138869 1.09896758795 1643.02138869 1.09896758795 1262.20996094 0.5302734375 c 2,14,-1
 907.125976562 0 l 2,15,16
 557.603344588 -0.989795866555 557.603344588 -0.989795866555 398.397460938 70.6044921875 c 0,17,18
 124 194 124 194 99.65234375 467.181640625 c 0,19,20
 88 600 88 600 131.100585938 751.973632812 c 1,21,-1
 273.30859375 714.452148438 l 1,22,23
 252 573 252 573 254.96875 507.0546875 c 0,24,25
 267 232 267 232 593.8359375 195.705078125 c 4,26,27
 751.364169777 178.745471727 751.364169777 178.745471727 852.743164062 179.009765625 c 2,28,-1
 1297.01171875 180.16796875 l 2,29,30
 1554 181 1554 181 1555.50976562 358.365234375 c 0,31,32
 1555.99883537 424.841698826 1555.99883537 424.841698826 1488.62695312 500.979492188 c 2,33,-1
 1099.68261719 940.530273438 l 1,34,35
 1089.99817697 1108.0315309 1089.99817697 1108.0315309 1131.68261719 1127.34570312 c 10,36,-1
 1855.68261719 1462.80566406 l 1,37,-1
 1855.68261719 1279.75390625 l 1,38,-1
 1258.65722656 1005.63183594 l 1,0,-1
EndSplineSet
EndChar

StartChar: uniFB9F
Encoding: 64415 64415 114
Width: 1487
VWidth: 2311
GlyphClass: 2
Flags: W
AnchorPoint: "Anchor-10" 393.357 757.317 basechar 0
AnchorPoint: "Anchor-7" 293.314 -739.99 basechar 0
LayerCount: 2
Fore
SplineSet
1047.46191406 410.682617188 m 1,0,1
 1188.29101562 505.477539062 l 1,2,-1
 1279.19433594 281.931640625 l 2,3,4
 1320.05869818 181.856250205 1320.05869818 181.856250205 1440.83691406 180.90234375 c 2,5,-1
 1494.37597656 180.479492188 l 6,6,7
 1512.37597656 179.989770904 1512.37597656 179.989770904 1512.37597656 108 c 6,8,-1
 1512.37597656 74 l 6,9,10
 1511.99903937 -0.189071381821 1511.99903937 -0.189071381821 1493.62011719 0 c 6,11,-1
 1442.07421875 0.5302734375 l 2,12,13
 1337 2 1337 2 1300.55371094 51.03515625 c 1,14,15
 1298 -516 1298 -516 690.364257812 -517.545898438 c 0,16,17
 431 -518 431 -518 277 -400.520507812 c 0,18,19
 99 -264 99 -264 99.55859375 18.3544921875 c 0,20,21
 100 225 100 225 192.405273438 433.759765625 c 1,22,-1
 341.139648438 379.267578125 l 1,23,24
 261 184 261 184 260.893554688 35.2705078125 c 0,25,26
 261 -345 261 -345 693.024414062 -344.501953125 c 0,27,28
 1154 -344 1154 -344 1153.8515625 53.12109375 c 0,29,30
 1154 194 1154 194 1047.46191406 410.682617188 c 1,0,1
EndSplineSet
EndChar

StartChar: uniFBE8
Encoding: 64488 64488 117
Width: 640
VWidth: 2317
GlyphClass: 2
Flags: W
AnchorPoint: "Anchor-10" 293.546 1080.67 basechar 0
AnchorPoint: "Anchor-7" 327.466 -116.07 basechar 0
LayerCount: 2
Fore
SplineSet
440.529296875 80.3642578125 m 0,0,1
 347 0 347 0 85.48828125 0 c 2,2,-1
 -2 0 l 2,3,4
 -51.6240234375 0 -51.6240234375 0 -51.6240234375 74 c 2,5,-1
 -51.6240234375 108 l 2,6,7
 -52.0025038587 180.479492188 -52.0025038587 180.479492188 -4 180.479492188 c 2,8,-1
 89.091796875 180.479492188 l 2,9,10
 180 180 180 180 209.141601562 184.481445312 c 0,11,12
 323 200 323 200 355.022460938 276.791992188 c 0,13,14
 377 329 377 329 376.485830733 413.692970411 c 0,15,16
 376 527 376 527 334.603515625 695.670898438 c 5,17,-1
 487.750976562 741.78125 l 1,18,19
 541 588 541 588 541.465820312 426.180664062 c 0,20,21
 541 168 541 168 440.529296875 80.3642578125 c 0,0,1
EndSplineSet
EndChar

StartChar: uniFBE9
Encoding: 64489 64489 118
Width: 774
VWidth: 2311
GlyphClass: 2
Flags: W
AnchorPoint: "Anchor-10" 297.926 1025.55 basechar 0
AnchorPoint: "Anchor-7" 265.065 -264.47 basechar 0
LayerCount: 2
Fore
SplineSet
779.620117188 0 m 2,0,1
 736.977539062 0 l 2,2,3
 581 0 581 0 461.1953125 130.317382812 c 1,4,5
 344 0 344 0 159.21484375 0 c 2,6,-1
 -6 0 l 2,7,8
 -51.6240234375 0 -51.6240234375 0 -51.6240234375 74 c 2,9,-1
 -51.6240234375 108 l 2,10,11
 -52.0025038587 180.479492188 -52.0025038587 180.479492188 -5.6240234375 180.479492188 c 2,12,-1
 162.551757812 180.479492188 l 2,13,14
 376.264399452 179.999406051 376.264399452 179.999406051 380.291015625 366.598632812 c 2,15,-1
 385.14453125 591.517578125 l 1,16,-1
 538.528320312 618.0234375 l 1,17,-1
 547.69921875 366.637695312 l 2,18,19
 553.98381262 180.479492188 553.98381262 180.479492188 739.999023438 180.479492188 c 2,20,-1
 780.375976562 180.479492188 l 2,21,22
 798.375976562 179.989770904 798.375976562 179.989770904 798.375976562 108 c 2,23,-1
 798.375976562 74 l 2,24,25
 798 0 798 0 779.620117188 0 c 2,0,1
EndSplineSet
EndChar

StartChar: uniFE73
Encoding: 65139 65139 126
Width: 613
VWidth: 2317
GlyphClass: 2
Flags: W
AnchorPoint: "Anchor-10" 226.617 1348.45 basechar 0
AnchorPoint: "Anchor-7" 226.617 -126.01 basechar 0
LayerCount: 2
Fore
SplineSet
320.364257812 363.96484375 m 2,0,1
 320.364257812 185.502929688 320.364257812 185.502929688 548.73046875 185.502929688 c 6,2,-1
 623.1953125 185.502929688 l 1,3,-1
 623.1953125 0.009765625 l 1,4,-1
 536.349609375 0.009765625 l 2,5,6
 132.870117188 -3.14463386437e-06 132.870117188 -3.14463386437e-06 132.870117188 350.354492188 c 2,7,-1
 132.870117188 388.524414062 l 1,8,-1
 320.364257812 388.524414062 l 1,9,-1
 320.364257812 363.96484375 l 2,0,1
EndSplineSet
EndChar

StartChar: uniFE8E
Encoding: 65166 65166 152
Width: 557
VWidth: 2311
GlyphClass: 2
Flags: W
AnchorPoint: "Anchor-10" 216.907 1483.98 basechar 0
AnchorPoint: "Anchor-7" 264.947 -215.71 basechar 0
LayerCount: 2
Fore
SplineSet
564.375976562 180.479492188 m 6,0,1
 582.375976562 180.479492188 582.375976562 180.479492188 582.375976562 108 c 6,2,-1
 582.375976562 74 l 6,3,4
 582 0 582 0 563.620117188 0 c 6,5,-1
 523.619140625 0 l 6,6,7
 320 0 320 0 233.518554688 132.852539062 c 4,8,9
 173.285778272 226.555420666 173.285778272 226.555420666 166.962890625 431.23828125 c 6,10,-1
 138.262695312 1360.31347656 l 5,11,-1
 310.995117188 1416.28515625 l 5,12,-1
 310.568359375 444.966796875 l 6,13,14
 310.001028521 180.479492188 310.001028521 180.479492188 523.459960938 180.479492188 c 6,15,-1
 564.375976562 180.479492188 l 6,0,1
EndSplineSet
EndChar

StartChar: uniFEA2
Encoding: 65186 65186 172
Width: 1333
VWidth: 2311
GlyphClass: 2
Flags: W
AnchorPoint: "Anchor-7" 584.525 -813.648 basechar 0
AnchorPoint: "Anchor-10" 549.59 1217.96 basechar 0
LayerCount: 2
Fore
SplineSet
864 421 m 1,0,1
 714 392 714 392 590.947265625 321.604492188 c 0,2,3
 265 134 265 134 265.084960938 -140.095703125 c 0,4,5
 265 -355 265 -355 460 -433.023353568 c 0,6,7
 576 -479 576 -479 776.735351562 -479.671875 c 0,8,9
 974 -480 974 -480 1151.05761719 -429.659179688 c 1,10,-1
 1195.06640625 -585.071289062 l 1,11,12
 987 -649 987 -649 778.907226562 -648.865234375 c 0,13,14
 520 -649 520 -649 339 -555 c 0,15,16
 97 -429 97 -429 96.4599609375 -143.330078125 c 0,17,18
 96 46 96 46 198.533203125 199.254882812 c 0,19,20
 353 431 353 431 685.275390625 528.139648438 c 0,21,22
 781 556 781 556 869.93359375 563.4765625 c 1,23,24
 801 581 801 581 671.255859375 642.354492188 c 0,25,26
 541 704 541 704 506.147460938 703.815429688 c 0,27,28
 371 704 371 704 234.82421875 528.734375 c 1,29,-1
 119.701171875 624.7109375 l 1,30,31
 292 878 292 878 489.719726562 874.5 c 0,32,33
 522 874 522 874 560.990234375 863.8046875 c 0,34,35
 600 853 600 853 757.486328125 776.234375 c 0,36,37
 915 700 915 700 995.791015625 671.354492188 c 0,38,39
 1077 643 1077 643 1169.60253906 630.88671875 c 1,40,-1
 1145.46582031 454.939453125 l 1,41,42
 1070 447 1070 447 995 439.564453125 c 1,43,44
 999.000345133 175.977258806 999.000345133 175.977258806 1292.09765625 179.842773438 c 6,45,-1
 1340.37597656 180.479492188 l 6,46,47
 1358.37597656 181.01110409 1358.37597656 181.01110409 1358.37597656 108 c 2,48,-1
 1358.37597656 74 l 2,49,50
 1358.0011548 0.22728812468 1358.0011548 0.22728812468 1339.62011719 0 c 2,51,-1
 1296.73632812 -0.5302734375 l 2,52,53
 879 -6 879 -6 864 421 c 1,0,1
EndSplineSet
EndChar

StartChar: uniFEA3
Encoding: 65187 65187 173
Width: 1381
VWidth: 2311
GlyphClass: 2
Flags: W
AnchorPoint: "Anchor-10" 658.26 1079.07 basechar 0
AnchorPoint: "Anchor-7" 619.96 -217.83 basechar 0
LayerCount: 2
Fore
SplineSet
1285.13085938 524.958007812 m 5,0,-1
 1260.79785156 378.294921875 l 5,1,2
 1212 368 1212 368 648.430664062 95.1689453125 c 4,3,4
 452 0 452 0 69.0302734375 0 c 6,5,-1
 -4 0 l 2,6,7
 -51.6240234375 0 -51.6240234375 0 -51.6240234375 74 c 2,8,-1
 -51.6240234375 108 l 2,9,10
 -52.0025038587 180.479492188 -52.0025038587 180.479492188 -4 180.479492188 c 2,11,-1
 59.85546875 180.479492188 l 6,12,13
 377 180 377 180 521.943359375 232.760742188 c 4,14,15
 725 306 725 306 965.965820312 423.328125 c 5,16,17
 884 432 884 432 704.346679688 510.837890625 c 4,18,19
 507 598 507 598 454.266601562 604.65234375 c 4,20,21
 444 606 444 606 432.642578125 606.204101562 c 4,22,23
 322 606 322 606 199.857421875 445.389648438 c 5,24,-1
 84.6552734375 534.006835938 l 5,25,26
 185 675 185 675 244.036132812 718.075195312 c 4,27,28
 333 782 333 782 439.518554688 781.916015625 c 4,29,30
 528 782 528 782 664 722.1328125 c 4,31,32
 705 704 705 704 910.130859375 606.637695312 c 4,33,34
 1105 514 1105 514 1285.13085938 524.958007812 c 5,0,-1
EndSplineSet
EndChar

StartChar: uniFEA4
Encoding: 65188 65188 174
Width: 1423
VWidth: 2311
GlyphClass: 2
Flags: W
AnchorPoint: "Anchor-7" 619.96 -217.83 basechar 0
AnchorPoint: "Anchor-10" 659.26 1079.07 basechar 0
LayerCount: 2
Fore
SplineSet
910.130859375 606.637695312 m 0,0,1
 1108 514 1108 514 1285.13085938 524.958007812 c 1,2,-1
 1260.80566406 378.338867188 l 1,3,4
 1173 357 1173 357 1020.92382812 279.545898438 c 1,5,6
 1036.05831226 183.630443484 1036.05831226 183.630443484 1311.09960938 181.432617188 c 2,7,-1
 1430.37597656 180.479492188 l 6,8,9
 1448.37597656 179.989770904 1448.37597656 179.989770904 1448.37597656 108 c 6,10,-1
 1448.37597656 74 l 6,11,12
 1448 0 1448 0 1429.62011719 0 c 6,13,-1
 1288.41503906 0 l 2,14,15
 943 0 943 0 875.592773438 212.096679688 c 1,16,17
 764 151 764 151 648.430664062 95.1689453125 c 0,18,19
 452 0 452 0 69.0302734375 0 c 2,20,-1
 -4 0 l 2,21,22
 -51.6240234375 0 -51.6240234375 0 -51.6240234375 74 c 2,23,-1
 -51.6240234375 108 l 2,24,25
 -52.0025038587 180.479492188 -52.0025038587 180.479492188 -4 180.479492188 c 2,26,-1
 59.85546875 180.479492188 l 2,27,28
 383 180 383 180 521.943359375 232.760742188 c 0,29,30
 737 313 737 313 965.965820312 423.328125 c 1,31,32
 884 432 884 432 704.346679688 510.837890625 c 0,33,34
 507 598 507 598 454.266601562 604.65234375 c 0,35,36
 444 606 444 606 432.642578125 606.204101562 c 0,37,38
 322 606 322 606 199.857421875 445.389648438 c 1,39,-1
 84.6552734375 534.006835938 l 1,40,41
 185 675 185 675 244.036132812 718.075195312 c 0,42,43
 333 782 333 782 439.518554688 781.916015625 c 0,44,45
 537 782 537 782 664 722.1328125 c 0,46,47
 786 665 786 665 910.130859375 606.637695312 c 0,0,1
EndSplineSet
EndChar

StartChar: uniFEAA
Encoding: 65194 65194 180
Width: 1162
VWidth: 2311
GlyphClass: 2
Flags: W
AnchorPoint: "Anchor-10" 515.149 1289.65 basechar 0
AnchorPoint: "Anchor-7" 475.41 -246.98 basechar 0
LayerCount: 2
Fore
SplineSet
1169.37597656 180.479492188 m 6,0,1
 1187.37597656 179.925054481 1187.37597656 179.925054481 1187.37597656 108 c 2,2,-1
 1187.37597656 74 l 2,3,4
 1187 0 1187 0 1168.62011719 0 c 2,5,-1
 1137.85644531 0 l 2,6,7
 977 0 977 0 873.306640625 136.989257812 c 1,8,9
 751 -22 751 -22 405.526367188 -21.7431640625 c 0,10,11
 258 -22 258 -22 95.5849609375 34.3486328125 c 1,12,-1
 95.5849609375 222.038085938 l 1,13,14
 236 161 236 161 396.702148438 161.22265625 c 4,15,16
 635 161 635 161 722.692382812 248.98828125 c 0,17,18
 744 270 744 270 743.815429688 297.967773438 c 0,19,20
 744.000986155 325.144432595 744.000986155 325.144432595 727.919921875 358.47265625 c 2,21,-1
 484 864 l 1,22,-1
 628.970703125 959.772460938 l 1,23,-1
 890.375 399.999023438 l 2,24,25
 989.99780468 186.004715646 989.99780468 186.004715646 1141.03222656 181.352539062 c 6,26,-1
 1169.37597656 180.479492188 l 6,0,1
EndSplineSet
EndChar

StartChar: uniFEAE
Encoding: 65198 65198 184
Width: 966
VWidth: 2317
GlyphClass: 2
Flags: W
AnchorPoint: "Anchor-7" 316.38 -648.85 basechar 0
AnchorPoint: "Anchor-10" 501.618 933.71 basechar 0
LayerCount: 2
Fore
SplineSet
539.689453125 455.208984375 m 5,0,-1
 690.200195312 531.986328125 l 5,1,2
 725.878704797 397.464135304 725.878704797 397.464135304 758.278320312 262.284179688 c 4,3,4
 777.885076434 180.479492188 777.885076434 180.479492188 932.770507812 180.479492188 c 6,5,-1
 973.375976562 180.479492188 l 6,6,7
 991.375976562 179.989770904 991.375976562 179.989770904 991.375976562 108 c 6,8,-1
 991.375976562 74 l 6,9,10
 990.999973665 -0.00518326465794 990.999973665 -0.00518326465794 972.620117188 0 c 6,11,-1
 937.991210938 0.009765625 l 6,12,13
 801 0 801 0 763.02734375 40.390625 c 5,14,15
 672 -512 672 -512 81.1943359375 -514.038085938 c 1,16,-1
 26.484375 -378.100585938 l 1,17,18
 339 -356 339 -356 479 -213 c 0,19,20
 605 -84 605 -84 605.627793134 116 c 0,21,22
 606 208 606 208 539.689453125 455.208984375 c 5,0,-1
EndSplineSet
PairPos2: "'kern' Horizontal Kerning lookup 15-1" uni06CA dx=-85 dy=0 dh=-85 dv=0 dx=0 dy=0 dh=0 dv=0
PairPos2: "'kern' Horizontal Kerning lookup 15-1" uniFB90 dx=-307 dy=0 dh=-307 dv=0 dx=0 dy=0 dh=0 dv=0
PairPos2: "'kern' Horizontal Kerning lookup 15-1" uniFB8E dx=-307 dy=0 dh=-307 dv=0 dx=0 dy=0 dh=0 dv=0
PairPos2: "'kern' Horizontal Kerning lookup 15-1" uni06A9 dx=-307 dy=0 dh=-307 dv=0 dx=0 dy=0 dh=0 dv=0
PairPos2: "'kern' Horizontal Kerning lookup 15-1" uni064A dx=-106 dy=0 dh=-106 dv=0 dx=0 dy=0 dh=0 dv=0
PairPos2: "'kern' Horizontal Kerning lookup 15-1" afii57414 dx=-106 dy=0 dh=-106 dv=0 dx=0 dy=0 dh=0 dv=0
PairPos2: "'kern' Horizontal Kerning lookup 15-1" uniFBE8 dx=-212 dy=0 dh=-212 dv=0 dx=0 dy=0 dh=0 dv=0
PairPos2: "'kern' Horizontal Kerning lookup 15-1" uni0649 dx=-85 dy=0 dh=-85 dv=0 dx=0 dy=0 dh=0 dv=0
PairPos2: "'kern' Horizontal Kerning lookup 15-1" uni0648 dx=-85 dy=0 dh=-85 dv=0 dx=0 dy=0 dh=0 dv=0
PairPos2: "'kern' Horizontal Kerning lookup 15-1" afii57412 dx=-85 dy=0 dh=-85 dv=0 dx=0 dy=0 dh=0 dv=0
PairPos2: "'kern' Horizontal Kerning lookup 15-1" uniFEEB dx=-212 dy=0 dh=-212 dv=0 dx=0 dy=0 dh=0 dv=0
PairPos2: "'kern' Horizontal Kerning lookup 15-1" uni0647 dx=-212 dy=0 dh=-212 dv=0 dx=0 dy=0 dh=0 dv=0
PairPos2: "'kern' Horizontal Kerning lookup 15-1" uniFEE7 dx=-212 dy=0 dh=-212 dv=0 dx=0 dy=0 dh=0 dv=0
PairPos2: "'kern' Horizontal Kerning lookup 15-1" uni0646 dx=-159 dy=0 dh=-159 dv=0 dx=0 dy=0 dh=0 dv=0
PairPos2: "'kern' Horizontal Kerning lookup 15-1" uniFEE3 dx=-212 dy=0 dh=-212 dv=0 dx=0 dy=0 dh=0 dv=0
PairPos2: "'kern' Horizontal Kerning lookup 15-1" uni0645 dx=-212 dy=0 dh=-212 dv=0 dx=0 dy=0 dh=0 dv=0
PairPos2: "'kern' Horizontal Kerning lookup 15-1" uniFEFB dx=-212 dy=0 dh=-212 dv=0 dx=0 dy=0 dh=0 dv=0
PairPos2: "'kern' Horizontal Kerning lookup 15-1" uniFEDF dx=-212 dy=0 dh=-212 dv=0 dx=0 dy=0 dh=0 dv=0
PairPos2: "'kern' Horizontal Kerning lookup 15-1" uni0644 dx=-159 dy=0 dh=-159 dv=0 dx=0 dy=0 dh=0 dv=0
PairPos2: "'kern' Horizontal Kerning lookup 15-1" uniFEDB dx=-307 dy=0 dh=-307 dv=0 dx=0 dy=0 dh=0 dv=0
PairPos2: "'kern' Horizontal Kerning lookup 15-1" uni0643 dx=-212 dy=0 dh=-212 dv=0 dx=0 dy=0 dh=0 dv=0
PairPos2: "'kern' Horizontal Kerning lookup 15-1" uniFED7 dx=-212 dy=0 dh=-212 dv=0 dx=0 dy=0 dh=0 dv=0
PairPos2: "'kern' Horizontal Kerning lookup 15-1" uni0642 dx=-159 dy=0 dh=-159 dv=0 dx=0 dy=0 dh=0 dv=0
PairPos2: "'kern' Horizontal Kerning lookup 15-1" uniFED3 dx=-212 dy=0 dh=-212 dv=0 dx=0 dy=0 dh=0 dv=0
PairPos2: "'kern' Horizontal Kerning lookup 15-1" uni0641 dx=-212 dy=0 dh=-212 dv=0 dx=0 dy=0 dh=0 dv=0
PairPos2: "'kern' Horizontal Kerning lookup 15-1" uniFECF dx=-212 dy=0 dh=-212 dv=0 dx=0 dy=0 dh=0 dv=0
PairPos2: "'kern' Horizontal Kerning lookup 15-1" uniFECB dx=-212 dy=0 dh=-212 dv=0 dx=0 dy=0 dh=0 dv=0
PairPos2: "'kern' Horizontal Kerning lookup 15-1" uniFEC7 dx=-212 dy=0 dh=-212 dv=0 dx=0 dy=0 dh=0 dv=0
PairPos2: "'kern' Horizontal Kerning lookup 15-1" uni0638 dx=-212 dy=0 dh=-212 dv=0 dx=0 dy=0 dh=0 dv=0
PairPos2: "'kern' Horizontal Kerning lookup 15-1" uniFEC3 dx=-212 dy=0 dh=-212 dv=0 dx=0 dy=0 dh=0 dv=0
PairPos2: "'kern' Horizontal Kerning lookup 15-1" uni0637 dx=-212 dy=0 dh=-212 dv=0 dx=0 dy=0 dh=0 dv=0
PairPos2: "'kern' Horizontal Kerning lookup 15-1" uniFEBF dx=-212 dy=0 dh=-212 dv=0 dx=0 dy=0 dh=0 dv=0
PairPos2: "'kern' Horizontal Kerning lookup 15-1" uni0636 dx=-212 dy=0 dh=-212 dv=0 dx=0 dy=0 dh=0 dv=0
PairPos2: "'kern' Horizontal Kerning lookup 15-1" uniFEBB dx=-212 dy=0 dh=-212 dv=0 dx=0 dy=0 dh=0 dv=0
PairPos2: "'kern' Horizontal Kerning lookup 15-1" uni0635 dx=-212 dy=0 dh=-212 dv=0 dx=0 dy=0 dh=0 dv=0
PairPos2: "'kern' Horizontal Kerning lookup 15-1" uniFEB7 dx=-212 dy=0 dh=-212 dv=0 dx=0 dy=0 dh=0 dv=0
PairPos2: "'kern' Horizontal Kerning lookup 15-1" uni0634 dx=-212 dy=0 dh=-212 dv=0 dx=0 dy=0 dh=0 dv=0
PairPos2: "'kern' Horizontal Kerning lookup 15-1" uniFEB3 dx=-212 dy=0 dh=-212 dv=0 dx=0 dy=0 dh=0 dv=0
PairPos2: "'kern' Horizontal Kerning lookup 15-1" uni0633 dx=-212 dy=0 dh=-212 dv=0 dx=0 dy=0 dh=0 dv=0
PairPos2: "'kern' Horizontal Kerning lookup 15-1" uni0632 dx=-85 dy=0 dh=-85 dv=0 dx=0 dy=0 dh=0 dv=0
PairPos2: "'kern' Horizontal Kerning lookup 15-1" uni0631 dx=-85 dy=0 dh=-85 dv=0 dx=0 dy=0 dh=0 dv=0
PairPos2: "'kern' Horizontal Kerning lookup 15-1" uni0630 dx=-212 dy=0 dh=-212 dv=0 dx=0 dy=0 dh=0 dv=0
PairPos2: "'kern' Horizontal Kerning lookup 15-1" uni062F dx=-212 dy=0 dh=-212 dv=0 dx=0 dy=0 dh=0 dv=0
PairPos2: "'kern' Horizontal Kerning lookup 15-1" uniFEA7 dx=-212 dy=0 dh=-212 dv=0 dx=0 dy=0 dh=0 dv=0
PairPos2: "'kern' Horizontal Kerning lookup 15-1" uniFEA3 dx=-212 dy=0 dh=-212 dv=0 dx=0 dy=0 dh=0 dv=0
PairPos2: "'kern' Horizontal Kerning lookup 15-1" uniFE9F dx=-212 dy=0 dh=-212 dv=0 dx=0 dy=0 dh=0 dv=0
PairPos2: "'kern' Horizontal Kerning lookup 15-1" uniFE9B dx=-212 dy=0 dh=-212 dv=0 dx=0 dy=0 dh=0 dv=0
PairPos2: "'kern' Horizontal Kerning lookup 15-1" uni062B dx=-212 dy=0 dh=-212 dv=0 dx=0 dy=0 dh=0 dv=0
PairPos2: "'kern' Horizontal Kerning lookup 15-1" uniFE97 dx=-212 dy=0 dh=-212 dv=0 dx=0 dy=0 dh=0 dv=0
PairPos2: "'kern' Horizontal Kerning lookup 15-1" uni062A dx=-212 dy=0 dh=-212 dv=0 dx=0 dy=0 dh=0 dv=0
PairPos2: "'kern' Horizontal Kerning lookup 15-1" uni0629 dx=-212 dy=0 dh=-212 dv=0 dx=0 dy=0 dh=0 dv=0
PairPos2: "'kern' Horizontal Kerning lookup 15-1" uniFE91 dx=-85 dy=0 dh=-85 dv=0 dx=0 dy=0 dh=0 dv=0
PairPos2: "'kern' Horizontal Kerning lookup 15-1" uni0628 dx=-212 dy=0 dh=-212 dv=0 dx=0 dy=0 dh=0 dv=0
PairPos2: "'kern' Horizontal Kerning lookup 15-1" uni0627 dx=-212 dy=0 dh=-212 dv=0 dx=0 dy=0 dh=0 dv=0
PairPos2: "'kern' Horizontal Kerning lookup 15-1" uni0623 dx=-212 dy=0 dh=-212 dv=0 dx=0 dy=0 dh=0 dv=0
PairPos2: "'kern' Horizontal Kerning lookup 15-1" uni0622 dx=-212 dy=0 dh=-212 dv=0 dx=0 dy=0 dh=0 dv=0
PairPos2: "'kern' Horizontal Kerning lookup 15-1" uni0621 dx=-212 dy=0 dh=-212 dv=0 dx=0 dy=0 dh=0 dv=0
PairPos2: "'kern' Horizontal Kerning lookup 15-1" uniFB94 dx=-307 dy=0 dh=-307 dv=0 dx=0 dy=0 dh=0 dv=0
PairPos2: "'kern' Horizontal Kerning lookup 15-1" uniFB92 dx=-307 dy=0 dh=-307 dv=0 dx=0 dy=0 dh=0 dv=0
PairPos2: "'kern' Horizontal Kerning lookup 15-1" afii57509 dx=-307 dy=0 dh=-307 dv=0 dx=0 dy=0 dh=0 dv=0
PairPos2: "'kern' Horizontal Kerning lookup 15-1" afii57508 dx=-85 dy=0 dh=-85 dv=0 dx=0 dy=0 dh=0 dv=0
PairPos2: "'kern' Horizontal Kerning lookup 15-1" uniFB7C dx=-159 dy=0 dh=-159 dv=0 dx=0 dy=0 dh=0 dv=0
PairPos2: "'kern' Horizontal Kerning lookup 15-1" afii57506 dx=-212 dy=0 dh=-212 dv=0 dx=0 dy=0 dh=0 dv=0
PairPos2: "'kern' Horizontal Kerning lookup 15-1" afii57440 dx=-212 dy=0 dh=-212 dv=0 dx=0 dy=0 dh=0 dv=0
PairPos2: "'kern' Horizontal Kerning lookup 15-1" uniFE8B dx=-212 dy=0 dh=-212 dv=0 dx=0 dy=0 dh=0 dv=0
EndChar

StartChar: uniFEB2
Encoding: 65202 65202 188
Width: 2555
VWidth: 2311
GlyphClass: 2
Flags: W
AnchorPoint: "Anchor-10" 1687.64 1072.47 basechar 0
AnchorPoint: "Anchor-7" 638.95 -728.09 basechar 0
LayerCount: 2
Fore
SplineSet
1047.46191406 410.682617188 m 5,0,1
 1188.29101562 505.477539062 l 5,2,-1
 1280.19433594 281.931640625 l 6,3,4
 1322 180 1322 180 1472.12597656 180.26171875 c 0,5,6
 1614.35414795 181.001842908 1614.35414795 181.001842908 1633.12792969 373.455078125 c 2,7,-1
 1651.69335938 563.772460938 l 1,8,-1
 1769.70996094 563.772460938 l 1,9,-1
 1795.14941406 371.734375 l 2,10,11
 1820 181 1820 181 1984.00488281 180.434570312 c 0,12,13
 2136.05098004 179.999854243 2136.05098004 179.999854243 2153.12792969 373.455078125 c 2,14,-1
 2171.69335938 583.772460938 l 1,15,-1
 2289.70996094 583.772460938 l 1,16,-1
 2315.14941406 371.734375 l 2,17,18
 2338.04811085 184.606839385 2338.04811085 184.606839385 2515.20898438 180.962890625 c 2,19,-1
 2561.54785156 180.009765625 l 2,20,21
 2609.54785156 179.009422987 2609.54785156 179.009422987 2609.54785156 108.530273438 c 2,22,-1
 2609.54785156 74.5302734375 l 2,23,24
 2610.00288842 0.5302734375 2610.00288842 0.5302734375 2560.79199219 0.5302734375 c 2,25,-1
 2509.07128906 0.5302734375 l 2,26,27
 2300 1 2300 1 2229.78515625 138.01953125 c 1,28,29
 2155 3 2155 3 1984.52734375 2.6474609375 c 0,30,31
 1783 3 1783 3 1710.54980469 148.805664062 c 1,32,33
 1632 -0 1632 -0 1476.14160156 -0.31640625 c 0,34,35
 1385 0 1385 0 1300.55371094 51.03515625 c 1,36,37
 1298 -516 1298 -516 690.364257812 -517.545898438 c 0,38,39
 431 -518 431 -518 277 -400.520507812 c 0,40,41
 99 -264 99 -264 99.55859375 18.3544921875 c 0,42,43
 100 225 100 225 192.405273438 433.759765625 c 1,44,-1
 341.139648438 379.267578125 l 1,45,46
 261 184 261 184 260.893554688 35.2705078125 c 0,47,48
 261 -345 261 -345 693.024414062 -344.501953125 c 0,49,50
 1154 -344 1154 -344 1153.8515625 53.12109375 c 0,51,52
 1154 194 1154 194 1047.46191406 410.682617188 c 5,0,1
EndSplineSet
EndChar

StartChar: uniFEB3
Encoding: 65203 65203 189
Width: 1582
VWidth: 2311
GlyphClass: 2
Flags: W
AnchorPoint: "Anchor-10" 654.23 1013.89 basechar 0
AnchorPoint: "Anchor-7" 675.43 -198.22 basechar 0
LayerCount: 2
Fore
SplineSet
-3.6240234375 180.479492188 m 2,0,-1
 53.38671875 180.477539062 l 2,1,2
 271.279682495 179.999386254 271.279682495 179.999386254 289.513671875 375.888671875 c 2,3,-1
 306.953125 563.2421875 l 1,4,-1
 425.35546875 563.2421875 l 1,5,-1
 450.176757812 376.092773438 l 2,6,7
 476 181 476 181 652.7734375 180.791992188 c 0,8,9
 806.136202746 179.999296 806.136202746 179.999296 824.956054688 372.924804688 c 2,10,-1
 843.521484375 563.2421875 l 1,11,-1
 961.538085938 563.2421875 l 1,12,-1
 987.473632812 371.538085938 l 2,13,14
 1014 179 1014 179 1170.66015625 180.944335938 c 4,15,16
 1264 182 1264 182 1298.04101562 248.939453125 c 4,17,18
 1324.48852862 301.330093259 1324.48852862 301.330093259 1324.20651552 383 c 4,19,20
 1324.00912541 440.163414229 1324.00912541 440.163414229 1310.71679688 511.670898438 c 4,21,22
 1291 618 1291 618 1276.02636719 659.536132812 c 5,23,-1
 1433.20117188 709.905273438 l 5,24,25
 1476 587 1476 587 1485.609375 436.11328125 c 4,26,27
 1487.47596658 405.479463288 1487.47596658 405.479463288 1487.51227586 377 c 4,28,29
 1487.98932195 2.82531786208 1487.98932195 2.82531786208 1172.52734375 0.5302734375 c 4,30,31
 986 -1 986 -1 902.377929688 148.275390625 c 1,32,33
 825 0 825 0 648.619140625 0.22265625 c 0,34,35
 444 1 444 1 359.09375 136.830078125 c 1,36,37
 258 0 258 0 50.779296875 0 c 2,38,-1
 -4 0 l 2,39,40
 -51.6240234375 0 -51.6240234375 0 -51.6240234375 74 c 2,41,-1
 -51.6240234375 108 l 2,42,43
 -52 180 -52 180 -3.6240234375 180.479492188 c 2,0,-1
EndSplineSet
EndChar

StartChar: uniFEB4
Encoding: 65204 65204 190
Width: 1746
VWidth: 2306
GlyphClass: 2
Flags: W
AnchorPoint: "Anchor-10" 675.43 1008.59 basechar 0
AnchorPoint: "Anchor-7" 774.01 -219.42 basechar 0
LayerCount: 2
Fore
SplineSet
1506.97753906 371.204101562 m 6,0,1
 1529.3069466 185.088275422 1529.3069466 185.088275422 1707.03710938 181.432617188 c 6,2,-1
 1753.37597656 180.479492188 l 6,3,4
 1771.37597656 179.989770904 1771.37597656 179.989770904 1771.37597656 108 c 6,5,-1
 1771.37597656 74 l 6,6,7
 1771 0 1771 0 1752.62011719 0 c 6,8,-1
 1700.89941406 0 l 6,9,10
 1492 0 1492 0 1421.61328125 137.489257812 c 5,11,12
 1347 2 1347 2 1176.35546875 2.1171875 c 4,13,14
 975 2 975 2 902.377929688 148.275390625 c 5,15,16
 816 1 816 1 651.798828125 1.2822265625 c 4,17,18
 443 2 443 2 359.09375 136.830078125 c 5,19,20
 258 0 258 0 50.779296875 0 c 6,21,-1
 -4 0 l 2,22,23
 -51.6240234375 0 -51.6240234375 0 -51.6240234375 74 c 2,24,-1
 -51.6240234375 108 l 2,25,26
 -52.0025125134 180.481149581 -52.0025125134 180.481149581 -3.6240234375 180.479492188 c 2,27,-1
 53.38671875 180.477539062 l 6,28,29
 271.279682495 179.999386254 271.279682495 179.999386254 289.513671875 375.888671875 c 6,30,-1
 306.953125 563.2421875 l 5,31,-1
 425.35546875 563.2421875 l 5,32,-1
 450.176757812 376.092773438 l 6,33,34
 476 181 476 181 652.7734375 180.791992188 c 4,35,36
 806.136202746 179.999296 806.136202746 179.999296 824.956054688 372.924804688 c 6,37,-1
 843.521484375 563.2421875 l 5,38,-1
 961.538085938 563.2421875 l 5,39,-1
 986.977539062 371.204101562 l 6,40,41
 1012 181 1012 181 1175.83300781 180.904296875 c 4,42,43
 1327.92596578 180.00043997 1327.92596578 180.00043997 1344.95605469 372.924804688 c 6,44,-1
 1363.52148438 583.2421875 l 5,45,-1
 1481.53808594 583.2421875 l 5,46,-1
 1506.97753906 371.204101562 l 6,0,1
EndSplineSet
EndChar

StartChar: uniFEBA
Encoding: 65210 65210 196
Width: 2610
VWidth: 2311
GlyphClass: 2
Flags: W
AnchorPoint: "Anchor-10" 1687.64 1072.47 basechar 0
AnchorPoint: "Anchor-7" 638.95 -728.09 basechar 0
LayerCount: 2
Fore
SplineSet
1527.20605469 180.91796875 m 1,0,-1
 1709.99023438 180.91796875 l 2,1,2
 1978 181 1978 181 2099.81445312 228.807617188 c 0,3,4
 2238 283 2238 283 2238.55859375 410.375976562 c 0,5,6
 2239 471 2239 471 2206.19433594 513.896484375 c 0,7,8
 2158 578 2158 578 2060.12109375 577.584960938 c 0,9,10
 1935 578 1935 578 1798.88964844 471.709960938 c 0,11,12
 1696 393 1696 393 1527.20605469 180.91796875 c 1,0,-1
1047.46191406 410.682617188 m 5,13,14
 1188.29101562 505.477539062 l 5,15,-1
 1279.19433594 281.931640625 l 6,16,17
 1300 231 1300 231 1364.87695312 220.975585938 c 1,18,19
 1735 757 1735 757 2067.03613281 757.189453125 c 0,20,21
 2219 757 2219 757 2314.14648438 669.135742188 c 0,22,23
 2416 574 2416 574 2415.45898438 422.947265625 c 0,24,25
 2415 287 2415 287 2343.80664062 181.189453125 c 1,26,-1
 2572.28710938 181.19140625 l 2,27,-1
 2617.18261719 180.768554688 l 2,28,29
 2635.18261719 181.002372172 2635.18261719 181.002372172 2635.18261719 107.2890625 c 2,30,-1
 2635.18261719 73.2890625 l 2,31,32
 2635.00071057 -0.7109375 2635.00071057 -0.7109375 2616.42675781 -0.7109375 c 2,33,-1
 2560.21191406 -0.7109375 l 2,34,35
 2274 -1 2274 -1 2200.80664062 81.2890625 c 1,36,37
 2049.18973518 -1.89590135593 2049.18973518 -1.89590135593 1726.72167969 -0.7109375 c 2,38,-1
 1533.25195312 0 l 2,39,40
 1398 0 1398 0 1300.55371094 51.03515625 c 1,41,42
 1298 -516 1298 -516 690.364257812 -517.545898438 c 0,43,44
 431 -518 431 -518 277 -400.520507812 c 0,45,46
 99 -264 99 -264 99.55859375 18.3544921875 c 0,47,48
 100 225 100 225 192.405273438 433.759765625 c 1,49,-1
 341.139648438 379.267578125 l 1,50,51
 261 184 261 184 260.893554688 35.2705078125 c 0,52,53
 261 -345 261 -345 693.024414062 -344.501953125 c 0,54,55
 1154 -344 1154 -344 1153.8515625 53.12109375 c 0,56,57
 1154 194 1154 194 1047.46191406 410.682617188 c 5,13,14
EndSplineSet
EndChar

StartChar: uniFEBB
Encoding: 65211 65211 197
Width: 1690
VWidth: 2311
GlyphClass: 2
Flags: W
AnchorPoint: "Anchor-10" 934.378 1097.17 basechar 0
AnchorPoint: "Anchor-7" 680.518 -265 basechar 0
LayerCount: 2
Fore
SplineSet
706.399414062 180.62890625 m 1,0,-1
 889.18359375 180.62890625 l 2,1,2
 1159.97459438 181.004121679 1159.97459438 181.004121679 1279.0078125 228.518554688 c 0,3,4
 1418 284 1418 284 1417.75195312 411.086914062 c 0,5,6
 1418 472 1418 472 1385.38769531 514.607421875 c 0,7,8
 1337 578 1337 578 1239.31445312 578.295898438 c 0,9,10
 1116.87395642 578.006786122 1116.87395642 578.006786122 978.083007812 472.420898438 c 0,11,12
 877 396 877 396 706.399414062 180.62890625 c 1,0,-1
-3.6240234375 180.479492188 m 6,13,-1
 48.509765625 180.478515625 l 6,14,15
 252.063138361 179.999851528 252.063138361 179.999851528 256.426757812 369.384765625 c 2,16,-1
 261.544921875 591.517578125 l 1,17,-1
 414.928710938 618.0234375 l 1,18,-1
 422.115234375 368.143554688 l 2,19,20
 426 242 426 242 544.0703125 220.686523438 c 1,21,22
 913 758 913 758 1246.22949219 757.900390625 c 0,23,24
 1399 758 1399 758 1493.33984375 669.846679688 c 0,25,26
 1593 578 1593 578 1594.65234375 423.658203125 c 0,27,28
 1596 231 1596 231 1434.03125 114.374023438 c 0,29,30
 1276 0 1276 0 905.915039062 0 c 2,31,-1
 753.72265625 0 l 2,32,33
 472 0 472 0 339.706054688 133.088867188 c 1,34,35
 240 0 240 0 47.830078125 0 c 2,36,-1
 -4 0 l 2,37,38
 -51.6240234375 0 -51.6240234375 0 -51.6240234375 74 c 2,39,-1
 -51.6240234375 108 l 2,40,41
 -52 180 -52 180 -3.6240234375 180.479492188 c 6,13,-1
EndSplineSet
EndChar

StartChar: uniFEBC
Encoding: 65212 65212 198
Width: 1789
VWidth: 2311
GlyphClass: 2
Flags: W
AnchorPoint: "Anchor-7" 680.518 -265 basechar 0
AnchorPoint: "Anchor-10" 934.378 1097.17 basechar 0
LayerCount: 2
Fore
SplineSet
706.399414062 180.62890625 m 5,0,-1
 889.18359375 180.62890625 l 6,1,2
 1159.97459438 181.004121679 1159.97459438 181.004121679 1279.0078125 228.518554688 c 0,3,4
 1418 284 1418 284 1417.75195312 411.086914062 c 0,5,6
 1418 472 1418 472 1385.38769531 514.607421875 c 0,7,8
 1337 578 1337 578 1239.31445312 578.295898438 c 0,9,10
 1116.87395642 578.006786122 1116.87395642 578.006786122 978.083007812 472.420898438 c 0,11,12
 877 396 877 396 706.399414062 180.62890625 c 5,0,-1
-3.6240234375 180.479492188 m 2,13,-1
 48.509765625 180.478515625 l 2,14,15
 252.063138361 179.999851528 252.063138361 179.999851528 256.426757812 369.384765625 c 2,16,-1
 261.544921875 591.517578125 l 1,17,-1
 414.928710938 618.0234375 l 1,18,-1
 422.115234375 368.143554688 l 2,19,20
 426 242 426 242 544.0703125 220.686523438 c 1,21,22
 914 758 914 758 1246.22949219 757.900390625 c 0,23,24
 1399 758 1399 758 1493.33984375 669.846679688 c 0,25,26
 1594 577 1594 577 1594.65234375 423.658203125 c 0,27,28
 1595 287 1595 287 1523 180.900390625 c 1,29,-1
 1751.48046875 180.90234375 l 2,30,-1
 1796.37597656 180.479492188 l 2,31,32
 1814.37597656 179.989770904 1814.37597656 179.989770904 1814.37597656 108 c 2,33,-1
 1814.37597656 74 l 2,34,35
 1814 0 1814 0 1795.62011719 0 c 2,36,-1
 1739.40527344 0 l 2,37,38
 1454 0 1454 0 1380 82 c 1,39,40
 1228 0 1228 0 905.915039062 0 c 2,41,-1
 752.72265625 0 l 2,42,43
 472 0 472 0 339.706054688 133.088867188 c 1,44,45
 240 0 240 0 47.830078125 0 c 2,46,-1
 -4 0 l 2,47,48
 -51.6240234375 0 -51.6240234375 0 -51.6240234375 74 c 2,49,-1
 -51.6240234375 108 l 2,50,51
 -52 180 -52 180 -3.6240234375 180.479492188 c 2,13,-1
EndSplineSet
EndChar

StartChar: uniFEC2
Encoding: 65218 65218 204
Width: 1672
VWidth: 2311
GlyphClass: 2
Flags: W
AnchorPoint: "Anchor-7" 732.918 -235.32 basechar 0
AnchorPoint: "Anchor-10" 335.13 1483.42 basechar 0
LayerCount: 2
Fore
SplineSet
589.390625 180.62890625 m 1,0,-1
 772.174804688 180.62890625 l 2,1,2
 1029 181 1029 181 1161.99902344 233.518554688 c 0,3,4
 1301 289 1301 289 1300.74340773 411.087058581 c 0,5,6
 1301 472 1301 472 1268.37890625 514.607421875 c 0,7,8
 1220 578 1220 578 1122.3053379 578.295700757 c 0,9,10
 999.853264276 578.006733252 999.853264276 578.006733252 861.07421875 472.420898438 c 0,11,12
 760 396 760 396 589.390625 180.62890625 c 1,0,-1
1262.99023438 82 m 1,13,14
 1111 0 1111 0 788.905273438 0 c 2,15,-1
 683 0 l 2,16,17
 238 0 238 0 68 32 c 9,18,-1
 67.2548828125 180.477539062 l 1,19,-1
 294.129882812 180.479492188 l 1,20,-1
 261.3046875 1367.67480469 l 1,21,-1
 436.149414062 1417.00488281 l 5,22,-1
 436.043945312 255.59375 l 1,23,24
 801 758 801 758 1129.21972656 757.900390625 c 0,25,26
 1280 758 1280 758 1376.33007812 669.846679688 c 0,27,28
 1477 577 1477 577 1477.64257812 423.658203125 c 0,29,30
 1478 293 1478 293 1405.99023438 180.900390625 c 1,31,-1
 1634.47070312 180.90234375 l 2,32,-1
 1679.36621094 180.479492188 l 2,33,34
 1697.36621094 179.990042113 1697.36621094 179.990042113 1697.36621094 108 c 2,35,-1
 1697.36621094 74 l 2,36,37
 1697 0 1697 0 1678.61035156 0 c 2,38,-1
 1622.39550781 0 l 2,39,40
 1337 0 1337 0 1262.99023438 82 c 1,13,14
EndSplineSet
EndChar

StartChar: uniFEC3
Encoding: 65219 65219 205
Width: 1472
VWidth: 2311
GlyphClass: 2
Flags: W
AnchorPoint: "Anchor-7" 595.363 -234.3 basechar 0
AnchorPoint: "Anchor-10" 235.043 1476.92 basechar 0
LayerCount: 2
Fore
SplineSet
485.190429688 180.62890625 m 1,0,-1
 667.974609375 180.62890625 l 2,1,2
 936 181 936 181 1057.79882812 228.518554688 c 0,3,4
 1196 283 1196 283 1196.54296875 411.086914062 c 0,5,6
 1197 472 1197 472 1164.17871094 514.607421875 c 0,7,8
 1116 578 1116 578 1018.10546875 578.295898438 c 0,9,10
 895.38208425 578.005634086 895.38208425 578.005634086 756.874023438 472.420898438 c 0,11,12
 656 396 656 396 485.190429688 180.62890625 c 1,0,-1
-3.6240234375 180.479492188 m 2,13,-1
 189.9296875 180.479492188 l 1,14,-1
 157.104492188 1367.67480469 l 1,15,-1
 331.950195312 1417.00488281 l 5,16,-1
 331.84375 255.59375 l 1,17,18
 696 758 696 758 1025.01953125 757.900390625 c 0,19,20
 1176 758 1176 758 1272.13085938 669.846679688 c 0,21,22
 1372 578 1372 578 1373.44238281 423.658203125 c 0,23,24
 1375 229 1375 229 1212.82128906 114.374023438 c 0,25,26
 1050 0 1050 0 684.705078125 0 c 2,27,-1
 -4 0 l 2,28,29
 -51.6240234375 0 -51.6240234375 0 -51.6240234375 74 c 2,30,-1
 -51.6240234375 108 l 2,31,32
 -52 180 -52 180 -3.6240234375 180.479492188 c 2,13,-1
EndSplineSet
EndChar

StartChar: uniFEC4
Encoding: 65220 65220 206
Width: 1568
VWidth: 2311
GlyphClass: 2
Flags: W
AnchorPoint: "Anchor-7" 595.363 -234.3 basechar 0
AnchorPoint: "Anchor-10" 235.043 1476.92 basechar 0
LayerCount: 2
Fore
SplineSet
485.190429688 180.62890625 m 1,0,-1
 667.974609375 180.62890625 l 2,1,2
 924 181 924 181 1057.79882812 233.518554688 c 0,3,4
 1196 288 1196 288 1196.54296875 411.086914062 c 0,5,6
 1197 472 1197 472 1164.17871094 514.607421875 c 0,7,8
 1116 578 1116 578 1018.10546875 578.295898438 c 0,9,10
 895.38208425 578.005634086 895.38208425 578.005634086 756.874023438 472.420898438 c 0,11,12
 656 396 656 396 485.190429688 180.62890625 c 1,0,-1
1158.79003906 82 m 1,13,14
 1009 0 1009 0 684.705078125 0 c 2,15,-1
 -4 0 l 2,16,17
 -51.6240234375 0 -51.6240234375 0 -51.6240234375 74 c 2,18,-1
 -51.6240234375 108 l 2,19,20
 -52.0025038587 180.479492188 -52.0025038587 180.479492188 -3.6240234375 180.479492188 c 2,21,-1
 189.9296875 180.479492188 l 1,22,-1
 157.104492188 1367.67480469 l 1,23,-1
 331.950195312 1417.00488281 l 5,24,-1
 331.84375 255.59375 l 1,25,26
 696 758 696 758 1025.01953125 757.900390625 c 0,27,28
 1176 758 1176 758 1272.13085938 669.846679688 c 0,29,30
 1373 577 1373 577 1373.44238281 423.658203125 c 0,31,32
 1374 290 1374 290 1301.79003906 180.900390625 c 1,33,-1
 1530.27050781 180.90234375 l 2,34,-1
 1575.16601562 180.479492188 l 2,35,36
 1593.16601562 179.995536433 1593.16601562 179.995536433 1593.16601562 108 c 2,37,-1
 1593.16601562 74 l 2,38,39
 1593 0 1593 0 1574.41015625 0 c 2,40,-1
 1518.1953125 0 l 2,41,42
 1233 0 1233 0 1158.79003906 82 c 1,13,14
EndSplineSet
EndChar

StartChar: uniFECA
Encoding: 65226 65226 212
Width: 1218
VWidth: 2311
GlyphClass: 2
Flags: W
AnchorPoint: "Anchor-7" 584.525 -813.648 basechar 0
AnchorPoint: "Anchor-10" 603.4 1212.21 basechar 0
LayerCount: 2
Fore
SplineSet
1225.37597656 180.479492188 m 6,0,1
 1243.37597656 180.334971513 1243.37597656 180.334971513 1243.37597656 108 c 2,2,-1
 1243.37597656 74 l 2,3,4
 1242.99908128 -0.180822552629 1242.99908128 -0.180822552629 1224.62011719 0 c 2,5,-1
 1170.72265625 0.5302734375 l 2,6,7
 807 4 807 4 569.360351562 238.888671875 c 1,8,-1
 557.723632812 236.919921875 l 1,9,10
 270 81 270 81 265.084960938 -140.095703125 c 24,11,12
 262 -293 262 -293 378.986328125 -387.198242188 c 0,13,14
 493 -479 493 -479 776.735351562 -479.671875 c 0,15,16
 923 -480 923 -480 1070.33105469 -438.1875 c 1,17,-1
 1114.33984375 -593.599609375 l 1,18,19
 933 -649 933 -649 778.907226562 -648.865234375 c 0,20,21
 551 -649 551 -649 389 -581 c 0,22,23
 96 -458 96 -458 96.4599609375 -143.330078125 c 0,24,25
 97 134 97 134 457.459960938 348.280273438 c 1,26,27
 170 546 170 546 176.87890625 682.350585938 c 0,28,29
 188 908 188 908 622.219726562 908.586914062 c 0,30,31
 1051 909 1051 909 1051.51953125 672.955078125 c 0,32,33
 1052 500 1052 500 717.583007812 323.015625 c 1,34,35
 892.812550964 183.14961945 892.812550964 183.14961945 1172.70996094 180.90234375 c 6,36,-1
 1225.37597656 180.479492188 l 6,0,1
889.19921875 648.767578125 m 0,37,38
 889 745 889 745 621.862304688 745.178710938 c 0,39,40
 365.230028572 744.249132756 365.230028572 744.249132756 366.925770231 676 c 0,41,42
 368.832557968 599.256818814 368.832557968 599.256818814 601.885742188 435.309570312 c 1,43,44
 718 486 718 486 813.651367188 561.602539062 c 0,45,46
 889 620 889 620 889.19921875 648.767578125 c 0,37,38
EndSplineSet
EndChar

StartChar: uniFECB
Encoding: 65227 65227 213
Width: 974
VWidth: 2311
GlyphClass: 2
Flags: W
AnchorPoint: "Anchor-10" 488.841 1130.38 basechar 0
AnchorPoint: "Anchor-7" 483.696 -239.05 basechar 0
LayerCount: 2
Fore
SplineSet
-3.6240234375 180.479492188 m 6,0,-1
 249.887695312 180.51953125 l 5,1,2
 125 291 125 291 125.61328125 471.392578125 c 0,3,4
 126 591 126 591 185 681.211914062 c 0,5,6
 291 841 291 841 493.859375 840.854492188 c 0,7,8
 703 841 703 841 824.549804688 672.555664062 c 1,9,-1
 733 559 l 1,10,11
 633 661 633 661 514.957550217 661.700450563 c 24,12,13
 376 662 376 662 317 569 c 0,14,15
 292 529 292 529 292.17626923 464.188648005 c 0,16,17
 292 421 292 421 311.138671875 373 c 0,18,19
 347 282 347 282 457.374023438 216.703125 c 0,20,21
 474 207 474 207 508.665009985 206.986057979 c 0,22,23
 554.926628372 206.999977923 554.926628372 206.999977923 633.258789062 224.151367188 c 2,24,-1
 877.919921875 277.721679688 l 1,25,-1
 877.919921875 110.21484375 l 1,26,27
 449.710440926 -0.0745786921133 449.710440926 -0.0745786921133 96.998046875 -0.0166015625 c 2,28,-1
 -4 0 l 2,29,30
 -51.6240234375 0 -51.6240234375 0 -51.6240234375 74 c 2,31,-1
 -51.6240234375 108 l 2,32,33
 -52 180 -52 180 -3.6240234375 180.479492188 c 6,0,-1
EndSplineSet
EndChar

StartChar: uniFECC
Encoding: 65228 65228 214
Width: 1169
VWidth: 2311
GlyphClass: 2
Flags: W
AnchorPoint: "Anchor-10" 548.215 1135.79 basechar 0
AnchorPoint: "Anchor-7" 577.375 -203.35 basechar 0
LayerCount: 2
Fore
SplineSet
-3.6240234375 180.479492188 m 2,0,-1
 123.479492188 180.479492188 l 6,1,2
 381 180 381 180 467.421875 238.689453125 c 5,3,4
 153 387 153 387 152.099609375 559.436523438 c 4,5,6
 152 589 152 589 163.03515625 621 c 4,7,8
 200.413770007 734.224240045 200.413770007 734.224240045 419.90625 784.041992188 c 4,9,10
 473.164856134 796.568375568 473.164856134 796.568375568 591.306640625 796.60546875 c 6,11,-1
 603.748046875 796.609375 l 6,12,13
 681.492200022 796.96146917 681.492200022 796.96146917 762.055664062 787.2421875 c 4,14,15
 963 763 963 763 1019.56054688 651.916015625 c 4,16,17
 1040 612 1040 612 1040.2109375 570.147460938 c 4,18,19
 1040 398 1040 398 748.493164062 237.9453125 c 5,20,21
 855.115277712 180.476858137 855.115277712 180.476858137 1061.67480469 180.478515625 c 6,22,-1
 1183.37597656 180.479492188 l 6,23,24
 1194.37597656 179.983031116 1194.37597656 179.983031116 1194.37597656 108 c 6,25,-1
 1194.37597656 74 l 6,26,27
 1193.99975647 -0.047930809763 1193.99975647 -0.047930809763 1182.62011719 0 c 6,28,-1
 1056.72363281 0.5302734375 l 6,29,30
 794 2 794 2 609.111328125 142.913085938 c 5,31,32
 423 0 423 0 117.232421875 0 c 6,33,-1
 -4 0 l 2,34,35
 -51.6240234375 0 -51.6240234375 0 -51.6240234375 74 c 2,36,-1
 -51.6240234375 108 l 2,37,38
 -52 180 -52 180 -3.6240234375 180.479492188 c 2,0,-1
879.673828125 534.745117188 m 4,39,40
 879.000649456 630.907226562 879.000649456 630.907226562 605.837890625 630.907226562 c 6,41,-1
 585.291992188 630.907226562 l 6,42,43
 309 631 309 631 310.528320312 546.83984375 c 4,44,45
 311 513 311 513 407 449.491210938 c 4,46,47
 496 391 496 391 612.395507812 336.267578125 c 5,48,49
 706 376 706 376 808.177734375 450.391601562 c 4,50,51
 879 502 879 502 879.673828125 534.745117188 c 4,39,40
EndSplineSet
EndChar

StartChar: uniFEDA
Encoding: 65242 65242 228
Width: 1956
VWidth: 2311
GlyphClass: 2
Flags: W
AnchorPoint: "Anchor-7" 798.06 -201.16 basechar 0
AnchorPoint: "Anchor-10" 958.52 1401.01 basechar 0
LayerCount: 2
Fore
SplineSet
1962.62011719 0 m 2,0,-1
 1924.03710938 0.5302734375 l 2,1,2
 1737 3 1737 3 1610.71875 128.477539062 c 1,3,4
 1490 55 1490 55 1322.71875 27.490234375 c 0,5,6
 1161 1 1161 1 913.143554688 1.041015625 c 0,7,8
 561 1 561 1 411.7421875 64.771484375 c 0,9,10
 264 127 264 127 187.387695312 226.663085938 c 0,11,12
 113 324 113 324 101.422851562 465.737304688 c 0,13,14
 90 606 90 606 130.734375 751.975585938 c 1,15,-1
 272.969726562 714.446289062 l 1,16,17
 250 567 250 567 252.486328125 507.09375 c 0,18,19
 266 243 266 243 593.475585938 195.705078125 c 0,20,21
 674 184 674 184 879.3515625 183.149414062 c 0,22,23
 1091 183 1091 183 1202.02734375 188.40234375 c 0,24,25
 1608.78299862 205.990616776 1608.78299862 205.990616776 1597.87011719 466.272460938 c 2,26,-1
 1559.99121094 1369.71777344 l 1,27,-1
 1738.71777344 1417.50097656 l 5,28,-1
 1738.71777344 434.368164062 l 1,29,30
 1736 338 1736 338 1712.28710938 267.416992188 c 1,31,32
 1771.64206097 183.50602368 1771.64206097 183.50602368 1936.58789062 180.90234375 c 2,33,-1
 1963.37597656 180.479492188 l 2,34,35
 1981.37597656 179.989770904 1981.37597656 179.989770904 1981.37597656 108 c 2,36,-1
 1981.37597656 74 l 2,37,38
 1981 -0 1981 -0 1962.62011719 0 c 2,0,-1
732.576171875 784.887695312 m 2,39,40
 800.572265625 775.920898438 800.572265625 775.920898438 859.859375 776.087890625 c 0,41,42
 926.440429688 775.919921875 926.440429688 775.919921875 966.28125 791.7421875 c 0,43,44
 1044.09960938 822.559570312 1044.09960938 822.559570312 1043.51757812 869.092773438 c 0,45,46
 1043.04003906 892.51953125 1043.04003906 892.51953125 1023.1484375 907.950195312 c 0,47,48
 1002.75976562 923.259765625 1002.75976562 923.259765625 955.814453125 931.329101562 c 0,49,50
 886.16015625 942.33984375 886.16015625 942.33984375 850.266601562 981.633789062 c 0,51,52
 814.080078125 1021.83984375 814.080078125 1021.83984375 815.541015625 1076.2421875 c 0,53,54
 818.3203125 1178.71972656 818.3203125 1178.71972656 907.43359375 1224.10742188 c 0,55,56
 990.977539062 1266.63769531 990.977539062 1266.63769531 1112.80957031 1274.359375 c 2,57,-1
 1129.71582031 1275.43066406 l 1,58,-1
 1129.71582031 1182.32324219 l 1,59,-1
 1114.98535156 1181.23632812 l 2,60,61
 1039.86035156 1175.54003906 1039.86035156 1175.54003906 1002.64746094 1161.69726562 c 0,62,63
 911.599609375 1127.83984375 911.599609375 1127.83984375 911.950195312 1079.66308594 c 0,64,65
 911.599609375 1037.74023438 911.599609375 1037.74023438 954.403320312 1023.06542969 c 0,66,67
 978.379882812 1014.41992188 978.379882812 1014.41992188 1024.33691406 1007.75097656 c 0,68,69
 1139.5 990.040039062 1139.5 990.040039062 1139.55273438 876.780273438 c 0,70,71
 1139.5 779.099609375 1139.5 779.099609375 1027.10253906 715.190429688 c 0,72,73
 919.334960938 653.141601562 919.334960938 653.141601562 727.874023438 685.163085938 c 2,74,-1
 714.59765625 687.383789062 l 1,75,-1
 714.59765625 787.258789062 l 1,76,-1
 732.576171875 784.887695312 l 2,39,40
EndSplineSet
EndChar

StartChar: uniFEDB
Encoding: 65243 65243 229
Width: 874
VWidth: 2311
GlyphClass: 2
Flags: W
AnchorPoint: "Anchor-10" 222.07 1465.98 basechar 0
AnchorPoint: "Anchor-7" 326.48 -240.62 basechar 0
LayerCount: 2
Fore
SplineSet
-3.6240234375 180.479492188 m 6,0,-1
 255.329101562 180.637695312 l 6,1,2
 514 181 514 181 513.827128172 357.83526554 c 0,3,4
 513.999149982 424.669748075 513.999149982 424.669748075 446.944335938 500.44921875 c 2,5,-1
 58 940 l 1,6,7
 47.9793137487 1107.3454604 47.9793137487 1107.3454604 90 1126.81542969 c 10,8,-1
 814 1462.27539062 l 1,9,-1
 814 1279.22363281 l 1,10,-1
 216.974609375 1005.1015625 l 1,11,-1
 565.220703125 620.109375 l 2,12,13
 668 506 668 506 668.00941603 368.941340866 c 0,14,15
 668 0 668 0 220.52734375 0 c 2,16,-1
 -4 0 l 2,17,18
 -51.6240234375 0 -51.6240234375 0 -51.6240234375 74 c 2,19,-1
 -51.6240234375 108 l 2,20,21
 -52 180 -52 180 -3.6240234375 180.479492188 c 6,0,-1
EndSplineSet
EndChar

StartChar: uniFEDC
Encoding: 65244 65244 230
Width: 1090
VWidth: 2311
GlyphClass: 2
Flags: W
AnchorPoint: "Anchor-10" 222.07 1465.98 basechar 0
AnchorPoint: "Anchor-7" 339.2 -240.02 basechar 0
LayerCount: 2
Fore
SplineSet
216.974609375 1005.1015625 m 1,0,-1
 866.834960938 283.708984375 l 2,1,2
 958.558179633 181.492365887 958.558179633 181.492365887 1052.27148438 180.80859375 c 2,3,-1
 1097.37597656 180.479492188 l 2,4,5
 1115.37597656 179.989770904 1115.37597656 179.989770904 1115.37597656 108 c 2,6,-1
 1115.37597656 74 l 2,7,8
 1114.99898732 -0.199315487962 1114.99898732 -0.199315487962 1096.62011719 0 c 2,9,-1
 1047.72363281 0.5302734375 l 2,10,11
 866 2 866 2 660 272 c 1,12,13
 601 0 601 0 220.52734375 0 c 2,14,-1
 -4 0 l 2,15,16
 -51.6240234375 0 -51.6240234375 0 -51.6240234375 74 c 2,17,-1
 -51.6240234375 108 l 2,18,19
 -52.0023495206 180.44993625 -52.0023495206 180.44993625 -3.6240234375 180.479492188 c 6,20,-1
 255.329101562 180.637695312 l 6,21,22
 514 181 514 181 513.827128172 357.83526554 c 0,23,24
 513.999149982 424.669748075 513.999149982 424.669748075 446.944335938 500.44921875 c 2,25,-1
 58 940 l 1,26,27
 47.9793137487 1107.3454604 47.9793137487 1107.3454604 90 1126.81542969 c 10,28,-1
 814 1462.27539062 l 1,29,-1
 814 1279.22363281 l 1,30,-1
 216.974609375 1005.1015625 l 1,0,-1
EndSplineSet
EndChar

StartChar: uniFEDE
Encoding: 65246 65246 232
Width: 1500
VWidth: 2311
GlyphClass: 2
Flags: W
AnchorPoint: "Anchor-10" 624.91 1105.85 basechar 0
AnchorPoint: "Anchor-7" 603.612 -721.916 basechar 0
LayerCount: 2
Fore
SplineSet
1082.83203125 142.38671875 m 2,0,1
 1058.77539062 1364.60839844 l 1,2,-1
 1231.49707031 1416.171875 l 5,3,-1
 1231.49707031 415.399414062 l 2,4,5
 1230.99938899 182.714329386 1230.99938899 182.714329386 1455.08300781 180.90234375 c 2,6,-1
 1507.37597656 180.479492188 l 2,7,8
 1525.37597656 179.989770904 1525.37597656 179.989770904 1525.37597656 108 c 2,9,-1
 1525.37597656 74 l 2,10,11
 1524.99868257 -0.259296931497 1524.99868257 -0.259296931497 1506.62011719 0 c 2,12,-1
 1469.03515625 0.5302734375 l 2,13,14
 1291 3 1291 3 1225.27441406 67.3798828125 c 1,15,16
 1220 -486 1220 -486 660.364257812 -487.545898438 c 0,17,18
 424 -488 424 -488 279 -376.520507812 c 0,19,20
 89 -230 89 -230 89.55859375 48.3544921875 c 0,21,22
 90 232 90 232 192.405273438 463.759765625 c 1,23,-1
 341.139648438 409.267578125 l 1,24,25
 261 214 261 214 260.893554688 65.2705078125 c 0,26,27
 261 -88 261 -88 351 -198 c 0,28,29
 446 -314 446 -314 663.024414062 -314.501953125 c 0,30,31
 1092 -315 1092 -315 1082.83203125 142.38671875 c 2,0,1
EndSplineSet
EndChar

StartChar: uniFEDF
Encoding: 65247 65247 233
Width: 561
VWidth: 2311
GlyphClass: 2
Flags: W
AnchorPoint: "Anchor-10" 336.773 1491.4 basechar 0
AnchorPoint: "Anchor-7" 247.754 -202.99 basechar 0
LayerCount: 2
Fore
SplineSet
-3.6240234375 180.479492188 m 2,0,-1
 38.0009765625 180.479492188 l 2,1,2
 289.201582349 179.99961491 289.201582349 179.99961491 279.08984375 479.5546875 c 2,3,-1
 249.323242188 1361.375 l 1,4,-1
 423.120117188 1417.33203125 l 5,5,-1
 423.120117188 466.072265625 l 2,6,7
 423 220 423 220 323.564453125 109.7265625 c 0,8,9
 224 0 224 0 47.3818359375 0 c 2,10,-1
 -4 0 l 2,11,12
 -51.6240234375 0 -51.6240234375 0 -51.6240234375 74 c 2,13,-1
 -51.6240234375 108 l 2,14,15
 -52 180 -52 180 -3.6240234375 180.479492188 c 2,0,-1
EndSplineSet
EndChar

StartChar: uniFEE0
Encoding: 65248 65248 234
Width: 668
VWidth: 2311
GlyphClass: 2
Flags: W
AnchorPoint: "Anchor-10" 333.574 1482.16 basechar 0
AnchorPoint: "Anchor-7" 291.534 -255.99 basechar 0
LayerCount: 2
Fore
SplineSet
-3.6240234375 180.479492188 m 2,0,-1
 88.7109375 180.479492188 l 2,1,2
 289.684850762 180.000750719 289.684850762 180.000750719 281.529296875 427.384765625 c 2,3,-1
 250.705078125 1362.38183594 l 1,4,-1
 423.440429688 1416.15332031 l 5,5,-1
 423.440429688 427.50390625 l 2,6,7
 423.00085325 180.479492188 423.00085325 180.479492188 632.266601562 180.479492188 c 2,8,-1
 675.375976562 180.479492188 l 2,9,10
 693.375976562 179.989770904 693.375976562 179.989770904 693.375976562 108 c 2,11,-1
 693.375976562 74 l 2,12,13
 693 0 693 0 674.620117188 0 c 2,14,-1
 632.885742188 0 l 2,15,16
 466 0 466 0 358.165039062 114.334960938 c 1,17,18
 255 0 255 0 86.921875 0 c 2,19,-1
 -4 0 l 2,20,21
 -51.6240234375 0 -51.6240234375 0 -51.6240234375 74 c 2,22,-1
 -51.6240234375 108 l 2,23,24
 -52 180 -52 180 -3.6240234375 180.479492188 c 2,0,-1
EndSplineSet
EndChar

StartChar: uniFEE2
Encoding: 65250 65250 236
Width: 1187
VWidth: 2311
GlyphClass: 2
Flags: W
AnchorPoint: "Anchor-10" 667.29 1049.64 basechar 0
AnchorPoint: "Anchor-7" 659.239 -312.747 basechar 0
LayerCount: 2
Fore
SplineSet
1194.37597656 180.479492188 m 2,0,1
 1212.37597656 180.687349331 1212.37597656 180.687349331 1212.37597656 108 c 2,2,-1
 1212.37597656 74 l 2,3,4
 1211.99755521 -0.481186059522 1211.99755521 -0.481186059522 1193.62011719 0 c 2,5,-1
 1164.86425781 0.7529296875 l 2,6,7
 1024 4 1024 4 951 81 c 1,8,9
 905 -83 905 -83 729.040039062 -82.93359375 c 0,10,11
 653 -83 653 -83 585.522460938 -54.3603515625 c 0,12,13
 373 36 373 36 349.77734375 347.295898438 c 1,14,15
 226.895376126 281.944358547 226.895376126 281.944358547 238.97265625 23.623046875 c 2,16,-1
 267.727539062 -591.416015625 l 1,17,-1
 96.369140625 -657.1875 l 5,18,-1
 96.369140625 86.40234375 l 2,19,20
 96 378 96 378 283.20703125 512.896484375 c 0,21,22
 473 650 473 650 694.948242188 653.083007812 c 0,23,24
 906 656 906 656 973 479.074566256 c 0,25,26
 1003 399 1003 399 1003 242 c 1,27,28
 1048.14934093 178.790922702 1048.14934093 178.790922702 1169.76660156 180.1953125 c 2,29,-1
 1194.37597656 180.479492188 l 2,0,1
485.21484375 416.708984375 m 1,30,31
 489 344 489 344 506.728515625 280 c 0,32,33
 562 80 562 80 728.219726562 80.6875 c 0,34,35
 850 81 850 81 850.005859375 249.099609375 c 0,36,37
 850 301 850 301 839.326171875 368.967773438 c 0,38,39
 820 485 820 485 711.435546875 488.12109375 c 0,40,41
 582 491 582 491 485.21484375 416.708984375 c 1,30,31
EndSplineSet
EndChar

StartChar: uniFEE3
Encoding: 65251 65251 237
Width: 968
VWidth: 2311
GlyphClass: 2
Flags: W
AnchorPoint: "Anchor-10" 476.711 1031.91 basechar 0
AnchorPoint: "Anchor-7" 480.552 -246.89 basechar 0
LayerCount: 2
Fore
SplineSet
-3.6240234375 180.479492188 m 6,0,-1
 57.1962890625 180.477539062 l 6,1,2
 129.302330412 180.010984591 129.302330412 180.010984591 164.03125 250.689453125 c 0,3,4
 260 446 260 446 312.495117188 534.240234375 c 0,5,6
 409 693 409 693 549.080078125 694.403320312 c 0,7,8
 729 696 729 696 828.071289062 457.501953125 c 0,9,10
 871 353 871 353 870.259765625 249.099609375 c 0,11,12
 870 167 870 167 844.8203125 107.920898438 c 8,13,14
 814 35 814 35 751.540039062 -5.896484375 c 0,15,16
 687 -49 687 -49 587.240234375 -47.552734375 c 0,17,18
 418 -46 418 -46 268.999023438 93.8359375 c 1,19,20
 210 0 210 0 41.3193359375 0 c 2,21,-1
 -4 0 l 2,22,23
 -51.6240234375 0 -51.6240234375 0 -51.6240234375 74 c 2,24,-1
 -51.6240234375 108 l 2,25,26
 -52 180 -52 180 -3.6240234375 180.479492188 c 6,0,-1
330.936523438 245.408203125 m 1,27,28
 478.059570312 114.48046875 478.059570312 114.48046875 585.120117188 114.466796875 c 0,29,30
 656.701171875 114.513671875 656.701171875 114.513671875 691.120117188 171.610351562 c 0,31,32
 742 255.459960938 742 255.459960938 667.834960938 411.1484375 c 0,33,34
 624.33984375 502.440429688 624.33984375 502.440429688 553.466796875 511.474609375 c 0,35,36
 486.0078125 520.002929688 486.0078125 520.002929688 429.299804688 428.240234375 c 0,37,38
 373.120117188 339.200195312 373.120117188 339.200195312 330.936523438 245.408203125 c 1,27,28
EndSplineSet
EndChar

StartChar: uniFEE4
Encoding: 65252 65252 238
Width: 1067
VWidth: 2311
GlyphClass: 2
Flags: W
AnchorPoint: "Anchor-7" 480.552 -246.89 basechar 0
AnchorPoint: "Anchor-10" 476.711 1031.91 basechar 0
LayerCount: 2
Fore
SplineSet
330.936523438 245.408203125 m 1,0,1
 478.059570312 114.48046875 478.059570312 114.48046875 585.120117188 114.466796875 c 0,2,3
 656.701171875 114.513671875 656.701171875 114.513671875 691.120117188 171.610351562 c 0,4,5
 742 255.459960938 742 255.459960938 667.834960938 411.1484375 c 0,6,7
 624.33984375 502.440429688 624.33984375 502.440429688 553.466796875 511.474609375 c 0,8,9
 486.0078125 520.002929688 486.0078125 520.002929688 429.299804688 428.240234375 c 0,10,11
 373.120117188 339.200195312 373.120117188 339.200195312 330.936523438 245.408203125 c 1,0,1
825.08984375 78.0390625 m 1,12,13
 804 29 804 29 751.540039062 -5.896484375 c 0,14,15
 687 -48 687 -48 587.240234375 -47.552734375 c 0,16,17
 418 -46 418 -46 268.999023438 93.8359375 c 1,18,19
 210 0 210 0 41.3193359375 0 c 2,20,-1
 -4 0 l 2,21,22
 -51.6240234375 0 -51.6240234375 0 -51.6240234375 74 c 2,23,-1
 -51.6240234375 108 l 2,24,25
 -52.0025119713 180.481045768 -52.0025119713 180.481045768 -3.6240234375 180.479492188 c 6,26,-1
 57.1962890625 180.477539062 l 6,27,28
 130 180 130 180 164.03125 250.689453125 c 0,29,30
 260 446 260 446 312.495117188 534.240234375 c 0,31,32
 407 693 407 693 549.080078125 694.403320312 c 0,33,34
 732 696 732 696 828.071289062 457.501953125 c 0,35,36
 860 378 860 378 869.0078125 288 c 8,37,38
 878.972103729 181.298723475 878.972103729 181.298723475 1046.65722656 180.595703125 c 6,39,-1
 1074.37597656 180.479492188 l 6,40,41
 1092.37597656 179.989770904 1092.37597656 179.989770904 1092.37597656 108 c 2,42,-1
 1092.37597656 74 l 2,43,44
 1091.99930647 -0.136501356891 1091.99930647 -0.136501356891 1073.62011719 0 c 2,45,-1
 1043.640625 0.22265625 l 2,46,47
 899 1 899 1 825.08984375 78.0390625 c 1,12,13
EndSplineSet
EndChar

StartChar: uniFEEA
Encoding: 65258 65258 244
Width: 1144
VWidth: 2311
GlyphClass: 2
Flags: W
AnchorPoint: "Anchor-10" 688.887 1248.14 basechar 0
AnchorPoint: "Anchor-7" 421.753 -193.98 basechar 0
LayerCount: 2
Fore
SplineSet
1151.37597656 180.479492188 m 6,0,1
 1169.37597656 180.471736273 1169.37597656 180.471736273 1169.37597656 108 c 2,2,-1
 1169.37597656 74 l 2,3,4
 1169 0 1169 0 1150.62011719 0 c 2,5,-1
 1102.75976562 0 l 2,6,7
 807 0 807 0 757.40625 237.259765625 c 1,8,9
 616 215 616 215 504.101612513 214.968690981 c 0,10,11
 336 215 336 215 239 263 c 0,12,13
 97 334 97 334 96.9351974503 474.519645163 c 0,14,15
 97 746 97 746 683.373046875 859.395507812 c 1,16,17
 683 872 683 872 668.592773438 976.579101562 c 1,18,-1
 826.462890625 1015.23144531 l 1,19,-1
 894.16015625 417.705078125 l 2,20,21
 921.047766758 180.578736959 921.047766758 180.578736959 1103.78125 180.5 c 6,22,-1
 1151.37597656 180.479492188 l 6,0,1
738.801757812 411.670898438 m 1,23,24
 723 578 723 578 704.403320312 697.138671875 c 1,25,26
 262 615 262 615 261.775390625 488.37890625 c 0,27,28
 262.08178458 386.917214278 262.08178458 386.917214278 467.770341094 387.045323699 c 0,29,30
 579 387 579 387 738.801757812 411.670898438 c 1,23,24
EndSplineSet
EndChar

StartChar: uniFEEB
Encoding: 65259 65259 245
Width: 1250
VWidth: 2311
GlyphClass: 2
Flags: W
AnchorPoint: "Anchor-10" 578.329 1229.2 basechar 0
AnchorPoint: "Anchor-7" 435.494 -241.623 basechar 0
LayerCount: 2
Fore
SplineSet
-3.6240234375 180.479492188 m 2,0,-1
 210.254882812 180.399414062 l 5,1,2
 131 280 131 280 131.8515625 393.240234375 c 4,3,4
 133 521 133 521 213.200195312 621.4609375 c 4,5,6
 303 735 303 735 425 772 c 5,7,-1
 393 792 l 5,8,-1
 473.965820312 931.935546875 l 5,9,-1
 804.895507812 711.850585938 l 6,10,11
 1162 474 1162 474 1160.46386719 257.284179688 c 4,12,13
 1160 176 1160 176 1122.86035156 105.961914062 c 4,14,15
 1048 -36 1048 -36 863.590820312 -35.8935546875 c 4,16,17
 651 -36 651 -36 421.65625 57.8369140625 c 5,18,19
 250 0 250 0 30.34765625 0 c 2,20,-1
 -4 0 l 2,21,22
 -51.6240234375 0 -51.6240234375 0 -51.6240234375 74 c 2,23,-1
 -51.6240234375 108 l 2,24,25
 -52 180 -52 180 -3.6240234375 180.479492188 c 2,0,-1
783.462890625 536.1015625 m 5,26,27
 785 321 785 321 599.404296875 173.2578125 c 5,28,29
 744 131 744 131 838.119140625 131.297851562 c 4,30,31
 1009 131 1009 131 1009.1796875 258.857421875 c 4,32,33
 1009 375 1009 375 783.462890625 536.1015625 c 5,26,27
644.844726562 533.149414062 m 4,34,35
 645 596 645 596 607.5 619.5 c 4,36,37
 567 646 567 646 523 645.837890625 c 4,38,39
 502 646 502 646 479.440429688 639.1796875 c 4,40,41
 413 619 413 619 363.985351562 556.994140625 c 4,42,43
 311 490 311 490 298.78515625 414.291015625 c 4,44,45
 296 397 296 397 296.038085938 380.854492188 c 4,46,47
 296 274 296 274 420 232 c 5,48,49
 494 259 494 259 551 326.09375 c 4,50,51
 645 434 645 434 644.844726562 533.149414062 c 4,34,35
EndSplineSet
EndChar

StartChar: uniFEEC
Encoding: 65260 65260 246
Width: 994
VWidth: 2311
GlyphClass: 2
Flags: W
AnchorPoint: "Anchor-7" 519.493 -803.658 basechar 0
AnchorPoint: "Anchor-10" 467.766 1110.88 basechar 0
LayerCount: 2
Fore
SplineSet
-3.6240234375 180.479492188 m 2,0,-1
 232.202148438 180.5390625 l 1,1,2
 222 475 222 475 280.22265625 606.58203125 c 0,3,4
 362 791 362 791 522.328125 790.495117188 c 0,5,6
 768 790 768 790 768.126953125 484.486328125 c 0,7,8
 768 349 768 349 723.396484375 248 c 0,9,10
 673 135 673 135 598 72.8076171875 c 0,11,12
 510 1 510 1 392.616210938 0.013671875 c 1,13,14
 408 -202 408 -202 532.522460938 -330.747070312 c 1,15,16
 655.939597415 181.749175041 655.939597415 181.749175041 956.474609375 180.64453125 c 6,17,-1
 1001.37597656 180.479492188 l 2,18,19
 1019.37597656 179.989770904 1019.37597656 179.989770904 1019.37597656 108 c 2,20,-1
 1019.37597656 74 l 2,21,22
 1019 0 1019 0 1000.62011719 0 c 2,23,-1
 953.786132812 0 l 2,24,25
 726 0 726 0 632.508789062 -473.639648438 c 1,26,-1
 532.01953125 -529.6796875 l 1,27,28
 296 -374 296 -374 234.440429688 0 c 1,29,-1
 -4 0 l 2,30,31
 -51.6240234375 0 -51.6240234375 0 -51.6240234375 74 c 2,32,-1
 -51.6240234375 108 l 2,33,34
 -52 180 -52 180 -3.6240234375 180.479492188 c 2,0,-1
381.638671875 180.5390625 m 1,35,-1
 420.146484375 182.616210938 l 2,36,37
 512 188 512 188 565.966796875 267.674804688 c 0,38,39
 613 339 613 339 613.58984375 492.293945312 c 0,40,41
 614 565 614 565 591.639648438 599.309570312 c 0,42,43
 569 634 569 634 525.252929688 633.559570312 c 0,44,45
 423 634 423 634 396.7265625 464.702148438 c 0,46,47
 372 309 372 309 381.638671875 180.5390625 c 1,35,-1
EndSplineSet
EndChar

StartChar: uniFEEE
Encoding: 65262 65262 248
Width: 905
VWidth: 2311
GlyphClass: 2
Flags: W
AnchorPoint: "Anchor-7" 336.38 -648.85 basechar 0
AnchorPoint: "Anchor-10" 440.5 1061.72 basechar 0
LayerCount: 2
Fore
SplineSet
912.375976562 180.479492188 m 6,0,1
 930.375976562 180.476578556 930.375976562 180.476578556 930.375976562 108 c 2,2,-1
 930.375976562 74 l 2,3,4
 930 0 930 0 911.620117188 0 c 2,5,-1
 776.215820312 0 l 1,6,7
 753 -162 753 -162 640.330078125 -304.215820312 c 0,8,9
 473.749848474 -516.318512059 473.749848474 -516.318512059 99.9267578125 -516.506835938 c 2,10,-1
 97.98828125 -516.5078125 l 1,11,-1
 45.962890625 -376.889648438 l 1,12,13
 544 -347 544 -347 621.619140625 1.4716796875 c 1,14,15
 589 1 589 1 446.08203125 1.3134765625 c 0,16,17
 244 1 244 1 164.5625 104.953125 c 0,18,19
 111 175 111 175 111.573952024 279 c 0,20,21
 113 436 113 436 187 559 c 0,22,23
 281 717 281 717 445.200195312 717.748046875 c 0,24,25
 633 718 633 718 724.875976562 528.258789062 c 0,26,27
 779 417 779 417 785.681640625 180.5 c 5,28,-1
 912.375976562 180.479492188 l 6,0,1
436.081054688 545.701171875 m 0,29,30
 358 545 358 545 309.396484375 454.200195312 c 0,31,32
 267 374 267 374 266.833536113 309 c 0,33,34
 267 249 267 249 300.784179688 217.904296875 c 0,35,36
 343 179 343 179 414.173828125 173.711914062 c 4,37,38
 487 168 487 168 631.02734375 175.256835938 c 5,39,40
 631 547 631 547 436.081054688 545.701171875 c 0,29,30
EndSplineSet
EndChar

StartChar: uniFEF0
Encoding: 65264 65264 250
Width: 1461
VWidth: 2311
GlyphClass: 2
Flags: W
AnchorPoint: "Anchor-10" 741.849 620.691 basechar 0
AnchorPoint: "Anchor-7" 629.391 -835.455 basechar 0
LayerCount: 2
Fore
SplineSet
1468.37597656 180.479492188 m 2,0,1
 1486.37597656 180.50485105 1486.37597656 180.50485105 1486.37597656 108 c 2,2,-1
 1486.37597656 74 l 2,3,4
 1485.99948516 -0.101331279162 1485.99948516 -0.101331279162 1467.62011719 0 c 2,5,-1
 1362.9375 0.5771484375 l 1,6,-1
 1180.91015625 0 l 2,7,8
 1066 -0 1066 -0 1066.03320312 -32.580078125 c 0,9,10
 1066.00009886 -63.906450249 1066.00009886 -63.906450249 1141.45605469 -79.810546875 c 2,11,-1
 1186 -89.19921875 l 2,12,13
 1368 -128 1368 -128 1367.72299922 -286.442569002 c 0,14,15
 1368 -465 1368 -465 1144 -554.013671875 c 0,16,17
 971 -623 971 -623 737.80859375 -623.716796875 c 0,18,19
 736.507951021 -623.717389735 l 0,20,21
 427 -624 427 -624 266 -489 c 0,22,23
 97 -346 97 -346 97.1008612514 -104.02205006 c 0,24,25
 97 105 97 105 212.884765625 352.415039062 c 1,26,-1
 360 292 l 1,27,28
 263 71 263 71 262.871824062 -105.16659824 c 0,29,30
 263 -274 263 -274 406 -371 c 0,31,32
 515 -445 515 -445 740.333219252 -447.967940402 c 0,33,34
 743 -448 743 -448 746.275390625 -447.954101562 c 0,35,36
 942 -447 942 -447 1081 -395 c 0,37,38
 1215 -344 1215 -344 1214.94949844 -296.129747816 c 0,39,40
 1215.00015473 -261.895433434 1215.00015473 -261.895433434 1155 -246.186523438 c 2,41,-1
 1104 -232.833984375 l 2,42,43
 1016 -210 1016 -210 956 -158.61328125 c 0,44,45
 902 -113 902 -113 901.982421875 -34.138671875 c 0,46,47
 901.999973861 179.681567108 901.999973861 179.681567108 1178.62890625 180.071289062 c 6,48,-1
 1468.37597656 180.479492188 l 2,0,1
EndSplineSet
EndChar

StartChar: uniFEFB
Encoding: 65275 65275 261
Width: 1153
VWidth: 2311
GlyphClass: 3
Flags: W
AnchorPoint: "Anchor-9" 182.739 1408.51 baselig 1
AnchorPoint: "Anchor-9" 921.751 1476.28 baselig 0
AnchorPoint: "Anchor-6" 857.132 -187.49 baselig 0
AnchorPoint: "Anchor-6" 319.09 -211.622 baselig 1
LayerCount: 2
Fore
SplineSet
659.513671875 196.98828125 m 5,0,1
 875 241 875 241 863.430664062 616.012695312 c 2,2,-1
 841.068359375 1361.36914062 l 1,3,-1
 1014.87988281 1417.33203125 l 1,4,-1
 1014.87988281 548.75 l 2,5,6
 1015 259 1015 259 858.915039062 124.333007812 c 24,7,8
 715 0 715 0 459.900390625 0 c 2,9,-1
 206.091796875 0 l 1,10,-1
 176.091796875 166.75 l 1,11,-1
 519.025390625 166.75 l 5,12,-1
 87.29296875 1204.34960938 l 1,13,-1
 234 1295 l 1,14,-1
 659.513671875 196.98828125 l 5,0,1
EndSplineSet
LCarets2: 1 0
Ligature2: "'rlig' Required Ligatures in Arabic lookup 16 subtable" uniFEDF uniFE8E
EndChar

StartChar: uniFEFC
Encoding: 65276 65276 262
Width: 1268
VWidth: 2311
GlyphClass: 3
Flags: W
AnchorPoint: "Anchor-9" 182.739 1408.51 baselig 1
AnchorPoint: "Anchor-6" 319.09 -211.622 baselig 1
AnchorPoint: "Anchor-6" 857.132 -187.49 baselig 0
AnchorPoint: "Anchor-9" 915.751 1480.28 baselig 0
LayerCount: 2
Fore
SplineSet
1014.87988281 548.75 m 2,0,1
 1014.87988281 372.209111337 1014.87988281 372.209111337 1064.68261719 285.5078125 c 0,2,3
 1124.01217158 181.978760803 1124.01217158 181.978760803 1232.68554688 180.90234375 c 2,4,-1
 1275.37597656 180.479492188 l 2,5,6
 1293.37597656 179.989770904 1293.37597656 179.989770904 1293.37597656 108 c 2,7,-1
 1293.37597656 74 l 2,8,9
 1292.998839 -0.228508367701 1292.998839 -0.228508367701 1274.62011719 0 c 2,10,-1
 1231.97070312 0.5302734375 l 2,11,12
 976 4 976 4 936.740234375 216 c 1,13,14
 904 164 904 164 858.915039062 124.333007812 c 0,15,16
 717 0 717 0 459.900390625 0 c 2,17,18
 206.091796875 0 l 1,19,-1
 176.091796875 166.75 l 1,20,21
 519.025390625 166.75 l 5,22,-1
 87.29296875 1204.34960938 l 1,23,-1
 234 1295 l 1,24,-1
 659.513671875 196.98828125 l 5,25,26
 878 240 878 240 865.430664062 616.012695312 c 2,27,-1
 841.068359375 1361.36914062 l 1,28,-1
 1014.87988281 1417.33203125 l 1,29,-1
 1014.87988281 548.75 l 2,0,1
EndSplineSet
LCarets2: 1 0
Ligature2: "'rlig' Required Ligatures in Arabic lookup 16 subtable" uniFEE0 uniFE8E
EndChar

StartChar: arabic_dot
Encoding: 65536 -1 263
Width: 165
VWidth: 2170
GlyphClass: 2
Flags: W
LayerCount: 2
Fore
SplineSet
113.283203125 200.033203125 m 2,0,-1
 196.493164062 116.823242188 l 2,1,2
 222.6875 90.6298828125 222.6875 90.6298828125 197.0234375 64.966796875 c 2,3,-1
 110.103515625 -21.953125 l 2,4,5
 82.150390625 -49.908203125 82.150390625 -49.908203125 54.7265625 -22.4833984375 c 2,6,-1
 -32.193359375 64.4365234375 l 2,7,8
 -58.3876953125 90.6298828125 -58.3876953125 90.6298828125 -29.013671875 120.00390625 c 2,9,-1
 52.076171875 201.09375 l 2,10,11
 82.150390625 231.16796875 82.150390625 231.16796875 113.283203125 200.033203125 c 2,0,-1
EndSplineSet
EndChar

StartChar: arabic_2dots
Encoding: 65537 -1 264
Width: 485
VWidth: 2170
GlyphClass: 2
Flags: W
LayerCount: 2
Fore
SplineSet
423.86328125 200.033203125 m 6,0,-1
 507.073242188 116.823242188 l 6,1,2
 533.267578125 90.6298828125 533.267578125 90.6298828125 507.603515625 64.966796875 c 6,3,-1
 420.68359375 -21.953125 l 6,4,5
 392.73046875 -49.9072265625 392.73046875 -49.9072265625 365.306640625 -22.4833984375 c 6,6,-1
 278.38671875 64.4365234375 l 6,7,8
 252.192382812 90.6298828125 252.192382812 90.6298828125 281.56640625 120.00390625 c 6,9,-1
 362.65625 201.09375 l 6,10,11
 392.73046875 231.16796875 392.73046875 231.16796875 423.86328125 200.033203125 c 6,0,-1
123.883789062 200.033203125 m 6,12,-1
 207.09375 116.823242188 l 6,13,14
 233.288085938 90.6298828125 233.288085938 90.6298828125 207.623046875 64.966796875 c 6,15,-1
 120.703125 -21.953125 l 6,16,17
 92.75 -49.9072265625 92.75 -49.9072265625 65.326171875 -22.4833984375 c 6,18,-1
 -21.59375 64.4365234375 l 6,19,20
 -47.787109375 90.6298828125 -47.787109375 90.6298828125 -18.4130859375 120.00390625 c 6,21,-1
 62.6767578125 201.09375 l 6,22,23
 92.75 231.16796875 92.75 231.16796875 123.883789062 200.033203125 c 6,12,-1
EndSplineSet
EndChar

StartChar: arabic_3dots
Encoding: 65538 -1 265
Width: 488
VWidth: 2170
GlyphClass: 2
Flags: W
LayerCount: 2
Fore
SplineSet
424.681640625 187.313476562 m 6,0,-1
 507.891601562 104.103515625 l 6,1,2
 534.0859375 77.91015625 534.0859375 77.91015625 508.420898438 52.24609375 c 6,3,-1
 421.500976562 -34.673828125 l 6,4,5
 393.547851562 -62.626953125 393.547851562 -62.626953125 366.124023438 -35.203125 c 6,6,-1
 279.204101562 51.716796875 l 6,7,8
 253.009765625 77.91015625 253.009765625 77.91015625 282.384765625 107.283203125 c 6,9,-1
 363.474609375 188.374023438 l 6,10,11
 393.547851562 218.448242188 393.547851562 218.448242188 424.681640625 187.313476562 c 6,0,-1
124.701171875 187.313476562 m 6,12,-1
 207.911132812 104.103515625 l 6,13,14
 234.10546875 77.91015625 234.10546875 77.91015625 208.44140625 52.24609375 c 6,15,-1
 121.521484375 -34.673828125 l 6,16,17
 93.5673828125 -62.626953125 93.5673828125 -62.626953125 66.14453125 -35.203125 c 6,18,-1
 -20.775390625 51.716796875 l 6,19,20
 -46.96875 77.91015625 -46.96875 77.91015625 -17.595703125 107.283203125 c 6,21,-1
 63.494140625 188.374023438 l 6,22,23
 93.5673828125 218.448242188 93.5673828125 218.448242188 124.701171875 187.313476562 c 6,12,-1
274.65234375 425.188476562 m 2,24,-1
 357.862304688 341.978515625 l 2,25,26
 384.060546875 315.788085938 384.060546875 315.788085938 358.392578125 290.120117188 c 2,27,-1
 271.47265625 203.200195312 l 2,28,29
 243.518554688 175.247070312 243.518554688 175.247070312 216.095703125 202.669921875 c 2,30,-1
 129.17578125 289.58984375 l 2,31,32
 103.134765625 315.939453125 103.134765625 315.939453125 132.35546875 345.158203125 c 2,33,-1
 213.4453125 426.248046875 l 2,34,35
 243.518554688 456.321289062 243.518554688 456.321289062 274.65234375 425.188476562 c 2,24,-1
EndSplineSet
EndChar

StartChar: arabic_3dots_a
Encoding: 65539 -1 266
Width: 487
VWidth: 2170
GlyphClass: 2
Flags: W
LayerCount: 2
Fore
SplineSet
424.181640625 208.513671875 m 6,0,-1
 507.391601562 125.303710938 l 6,1,2
 533.5859375 99.1103515625 533.5859375 99.1103515625 507.920898438 73.4462890625 c 6,3,-1
 421.000976562 -13.4736328125 l 6,4,5
 393.047851562 -41.4267578125 393.047851562 -41.4267578125 365.624023438 -14.00390625 c 6,6,-1
 278.704101562 72.916015625 l 6,7,8
 252.509765625 99.1103515625 252.509765625 99.1103515625 281.884765625 128.483398438 c 6,9,-1
 362.974609375 209.573242188 l 6,10,11
 393.047851562 239.6484375 393.047851562 239.6484375 424.181640625 208.513671875 c 6,0,-1
124.201171875 208.513671875 m 6,12,-1
 207.411132812 125.303710938 l 6,13,14
 233.60546875 99.1103515625 233.60546875 99.1103515625 207.94140625 73.4462890625 c 6,15,-1
 121.021484375 -13.4736328125 l 6,16,17
 93.0673828125 -41.4267578125 93.0673828125 -41.4267578125 65.64453125 -14.00390625 c 6,18,-1
 -21.275390625 72.916015625 l 6,19,20
 -47.46875 99.1103515625 -47.46875 99.1103515625 -18.095703125 128.483398438 c 6,21,-1
 62.994140625 209.573242188 l 6,22,23
 93.0673828125 239.6484375 93.0673828125 239.6484375 124.201171875 208.513671875 c 6,12,-1
274.19140625 -12.1123046875 m 2,24,-1
 357.401367188 -95.322265625 l 2,25,26
 383.595703125 -121.515625 383.595703125 -121.515625 357.931640625 -147.180664062 c 2,27,-1
 271.010742188 -234.100585938 l 2,28,29
 243.057617188 -262.053710938 243.057617188 -262.053710938 215.634765625 -234.630859375 c 2,30,-1
 128.71484375 -147.7109375 l 2,31,32
 102.520507812 -121.515625 102.520507812 -121.515625 131.89453125 -92.142578125 c 2,33,-1
 213.381835938 -10.6552734375 l 2,34,35
 243.485351562 18.59375 243.485351562 18.59375 274.19140625 -12.1123046875 c 2,24,-1
EndSplineSet
EndChar

StartChar: uni066E.fina
Encoding: 65540 -1 267
Width: 2082
VWidth: 2311
GlyphClass: 2
Flags: W
AnchorPoint: "Anchor-10" 743.06 1127.31 basechar 0
AnchorPoint: "Anchor-7" 743.06 -186.56 basechar 0
LayerCount: 2
Fore
SplineSet
2089.37597656 180.479492188 m 6,0,1
 2107.37597656 180.292059823 2107.37597656 180.292059823 2107.37597656 108 c 6,2,-1
 2107.37597656 74 l 6,3,4
 2106.99921527 -0.154450982888 2106.99921527 -0.154450982888 2088.62011719 0 c 6,5,-1
 2025.51953125 0.5302734375 l 6,6,7
 1791 3 1791 3 1688.09179688 219.603515625 c 5,8,9
 1636 159 1636 159 1498.49316406 94.513671875 c 4,10,11
 1298 0 1298 0 907.125976562 0 c 4,12,13
 567 0 567 0 398.397460938 70.6044921875 c 4,14,15
 125 184 125 184 99.65234375 467.181640625 c 4,16,17
 88 600 88 600 131.100585938 751.973632812 c 5,18,-1
 273.30859375 714.452148438 l 5,19,20
 252 573 252 573 254.96875 507.0546875 c 4,21,22
 267 243 267 243 593.8359375 195.705078125 c 4,23,24
 697 181 697 181 921 180.604492188 c 4,25,26
 1283 181 1283 181 1452.77734375 261.155273438 c 4,27,28
 1651 355 1651 355 1678.50097656 576.422851562 c 5,29,-1
 1799.67285156 576.422851562 l 5,30,31
 1814 393 1814 393 1841.31542969 322.538085938 c 4,32,33
 1895.1917826 182.501514552 1895.1917826 182.501514552 2048.76757812 180.90234375 c 6,34,-1
 2089.37597656 180.479492188 l 6,0,1
EndSplineSet
EndChar

StartChar: uni066E.init
Encoding: 65541 -1 268
Width: 590
VWidth: 2317
GlyphClass: 2
Flags: W
AnchorPoint: "Anchor-10" 243.546 1080.67 basechar 0
AnchorPoint: "Anchor-7" 327.466 -116.07 basechar 0
LayerCount: 2
Fore
SplineSet
491.465820312 426.180664062 m 0,0,1
 491 168 491 168 390.529296875 80.3642578125 c 0,2,3
 297 0 297 0 85.48828125 0 c 2,4,-1
 -2 0 l 2,5,6
 -51.6240234375 0 -51.6240234375 0 -51.6240234375 74 c 2,7,-1
 -51.6240234375 108 l 2,8,9
 -52.0025038587 180.479492188 -52.0025038587 180.479492188 -4 180.479492188 c 2,10,-1
 89.091796875 180.479492188 l 2,11,12
 130 180 130 180 159.141601562 184.481445312 c 0,13,14
 273 200 273 200 305.022460938 276.791992188 c 0,15,16
 326 327 326 327 326.485351562 413.693359375 c 0,17,18
 326 529 326 529 284.603515625 697.670898438 c 5,19,-1
 437.750976562 741.78125 l 1,20,21
 491 588 491 588 491.465820312 426.180664062 c 0,0,1
EndSplineSet
EndChar

StartChar: uni066E.medi
Encoding: 65542 -1 269
Width: 714
VWidth: 2311
GlyphClass: 2
Flags: W
AnchorPoint: "Anchor-10" 309.126 1124.13 basechar 0
AnchorPoint: "Anchor-7" 339.126 -123.49 basechar 0
LayerCount: 2
Fore
SplineSet
719.620117188 0 m 6,0,1
 676.977539062 0 l 6,2,3
 521 0 521 0 401.1953125 130.317382812 c 5,4,5
 284 0 284 0 99.21484375 0 c 6,6,-1
 -6 0 l 2,7,8
 -51.6240234375 0 -51.6240234375 0 -51.6240234375 74 c 2,9,-1
 -51.6240234375 108 l 2,10,11
 -52.0025038587 180.479492188 -52.0025038587 180.479492188 -5.6240234375 180.479492188 c 2,12,-1
 102.551757812 180.479492188 l 6,13,14
 316.264399452 179.999406051 316.264399452 179.999406051 320.291015625 366.598632812 c 6,15,-1
 325.14453125 591.517578125 l 5,16,-1
 478.528320312 618.0234375 l 5,17,-1
 487.69921875 366.637695312 l 6,18,19
 493.98381262 180.479492188 493.98381262 180.479492188 679.999023438 180.479492188 c 6,20,-1
 720.375976562 180.479492188 l 6,21,22
 738.375976562 179.989770904 738.375976562 179.989770904 738.375976562 108 c 6,23,-1
 738.375976562 74 l 6,24,25
 738 0 738 0 719.620117188 0 c 6,0,1
EndSplineSet
EndChar

StartChar: uni06A1.fina
Encoding: 65543 -1 270
Width: 2042
VWidth: 2311
GlyphClass: 2
Flags: W
AnchorPoint: "Anchor-10" 561.8 1240.73 basechar 0
AnchorPoint: "Anchor-7" 675.22 -233.73 basechar 0
LayerCount: 2
Fore
SplineSet
921 180.604492188 m 0,0,1
 1145 180 1145 180 1335.68652344 214.4609375 c 1,2,3
 1237 279 1237 279 1195.11230469 377.192382812 c 0,4,5
 1168 439 1168 439 1168.20019531 506.313476562 c 0,6,7
 1168 554 1168 554 1181.8984375 605.30078125 c 0,8,9
 1203 686 1203 686 1268 755 c 0,10,11
 1374 868 1374 868 1519.625 868.24609375 c 0,12,13
 1676 868 1676 868 1779.45019531 753 c 0,14,15
 1836 691 1836 691 1855.66015625 603.635742188 c 0,16,17
 1866 558 1866 558 1865.83300781 515.197265625 c 0,18,19
 1866 451 1866 451 1843.21875 393.736328125 c 0,20,21
 1800 286 1800 286 1684.64257812 211.6328125 c 1,22,23
 1728.33073729 180.477274396 1728.33073729 180.477274396 1908.00976562 180.478515625 c 2,24,-1
 2049.37597656 180.479492188 l 2,25,26
 2067.37597656 179.989770904 2067.37597656 179.989770904 2067.37597656 108 c 2,27,-1
 2067.37597656 74 l 2,28,29
 2067 0 2067 0 2048.62011719 0 c 2,30,-1
 1911.92382812 0 l 2,31,32
 1666 0 1666 0 1516.09082031 113.47265625 c 1,33,34
 1299 0 1299 0 907.125976562 0 c 0,35,36
 567 0 567 0 398.397460938 70.6044921875 c 0,37,38
 125 184 125 184 99.65234375 467.181640625 c 0,39,40
 88 600 88 600 131.100585938 751.973632812 c 1,41,-1
 273.30859375 714.452148438 l 1,42,43
 252 573 252 573 254.96875 507.0546875 c 0,44,45
 267 241 267 241 593.8359375 195.705078125 c 0,46,47
 700 181 700 181 921 180.604492188 c 0,0,1
1330.92285156 503.780273438 m 0,48,49
 1331 427 1331 427 1385.234375 372.966796875 c 0,50,51
 1471 285 1471 285 1516.46777344 285.387695312 c 0,52,53
 1562 285 1562 285 1648.5078125 372.966796875 c 0,54,55
 1703 428 1703 428 1702.8046875 506.956054688 c 0,56,57
 1703 585 1703 585 1648.40527344 639.91796875 c 0,58,59
 1583 705 1583 705 1516.87304688 705.359375 c 0,60,61
 1450 705 1450 705 1385.33886719 639.920898438 c 0,62,63
 1331 586 1331 586 1330.92285156 503.780273438 c 0,48,49
EndSplineSet
EndChar

StartChar: uni06A1.init
Encoding: 65544 -1 271
Width: 870
VWidth: 2311
GlyphClass: 2
Flags: W
AnchorPoint: "Anchor-10" 433.042 1281.15 basechar 0
AnchorPoint: "Anchor-7" 406.542 -177.02 basechar 0
LayerCount: 2
Fore
SplineSet
433.104492188 1051.00195312 m 0,0,1
 602 1051 602 1051 686.634765625 907.232421875 c 0,2,3
 776 756 776 756 776.55078125 537.419921875 c 0,4,5
 776 178 776 178 597.702148438 64.0966796875 c 0,6,7
 497 0 497 0 253.583984375 0 c 2,8,-1
 -4 0 l 2,9,10
 -51.6240234375 0 -51.6240234375 0 -51.6240234375 74 c 2,11,-1
 -51.6240234375 108 l 2,12,13
 -52.0024695592 181.479492188 -52.0024695592 181.479492188 -3.6240234375 181.479492188 c 6,14,-1
 259.700195312 181.479492188 l 6,15,16
 471 181 471 181 527.325195312 226.01953125 c 4,17,18
 610 290 610 290 614.493164062 408.2890625 c 1,19,20
 541 357 541 357 396.440429688 356.759765625 c 0,21,22
 231 357 231 357 151.908203125 465.633789062 c 0,23,24
 104 532 104 532 105.192382812 628.4453125 c 0,25,26
 107 761 107 761 159.544921875 865.521484375 c 0,27,28
 253 1052 253 1052 433.104492188 1051.00195312 c 0,0,1
415.237304688 528.8828125 m 0,29,30
 538 528 538 528 616.709960938 586.138671875 c 1,31,32
 616 611 616 611 603.49609375 689.212890625 c 0,33,34
 574 879 574 879 434 879.219726562 c 0,35,36
 306 880 306 880 264.221679688 707.064453125 c 0,37,38
 255 668 255 668 254.415039062 636.341796875 c 0,39,40
 254.999806845 530.035114229 254.999806845 530.035114229 415.237304688 528.8828125 c 0,29,30
EndSplineSet
EndChar

StartChar: uni06A1.medi
Encoding: 65545 -1 272
Width: 1070
VWidth: 2311
GlyphClass: 2
Flags: W
AnchorPoint: "Anchor-10" 544.056 1070.6 basechar 0
AnchorPoint: "Anchor-7" 544.056 -177.02 basechar 0
LayerCount: 2
Fore
SplineSet
-3.6240234375 181.479492188 m 6,0,-1
 120.299804688 181.479492188 l 6,1,2
 318 181 318 181 363.686523438 214.4609375 c 5,3,4
 265 279 265 279 223.112304688 377.192382812 c 4,5,6
 196 439 196 439 196.200209133 506.313202195 c 4,7,8
 196 554 196 554 209.8984375 605.30078125 c 4,9,10
 231 686 231 686 296 755 c 4,11,12
 402 868 402 868 547.625279285 868.246409221 c 4,13,14
 704 868 704 868 807.450195312 753 c 4,15,16
 864 691 864 691 883.66015625 603.635742188 c 4,17,18
 894 558 894 558 893.832788616 515.197727468 c 4,19,20
 894 451 894 451 871.21875 393.736328125 c 4,21,22
 828 286 828 286 712.642578125 211.6328125 c 5,23,24
 768.121773589 181.477355849 768.121773589 181.477355849 936.009765625 181.478515625 c 6,25,-1
 1077.37597656 181.479492188 l 6,26,27
 1095.37597656 180.989770904 1095.37597656 180.989770904 1095.37597656 108 c 6,28,-1
 1095.37597656 74 l 6,29,30
 1095 0 1095 0 1076.62011719 0 c 6,31,-1
 939.923828125 0 l 6,32,33
 694 0 694 0 544.090820312 113.47265625 c 5,34,35
 412 0 412 0 138.637695312 0 c 6,36,-1
 -4 0 l 6,37,38
 -51.6240234375 0 -51.6240234375 0 -51.6240234375 74 c 6,39,-1
 -51.6240234375 108 l 6,40,41
 -52 181 -52 181 -3.6240234375 181.479492188 c 6,0,-1
358.922797489 503.780641962 m 4,42,43
 358.922797489 427.080563478 358.922797489 427.080563478 413.234375 372.966796875 c 4,44,45
 498.621776977 285.387930104 498.621776977 285.387930104 544.4676744 285.387930104 c 132,-1,46
 590.398198395 285.387930104 590.398198395 285.387930104 676.5078125 372.966796875 c 4,47,48
 730.804414144 427.812549924 730.804414144 427.812549924 730.804414144 506.956466556 c 4,49,50
 730.804414144 585.196743872 730.804414144 585.196743872 676.405273438 639.91796875 c 4,51,52
 611 705 611 705 544.873046875 705.359375 c 4,53,54
 478 705 478 705 413.338867188 639.920898438 c 4,55,56
 358.922797489 585.923391322 358.922797489 585.923391322 358.922797489 503.780641962 c 4,42,43
EndSplineSet
EndChar

StartChar: uni066F.fina
Encoding: 65546 -1 273
Width: 1456
VWidth: 2311
GlyphClass: 2
Flags: W
AnchorPoint: "Anchor-10" 243.8 957.18 basechar 0
AnchorPoint: "Anchor-7" 332.464 -758.77 basechar 0
LayerCount: 2
Fore
SplineSet
743.024414062 -344.501953125 m 0,0,1
 1174 -346 1174 -346 1175.46582031 2.59765625 c 1,2,3
 1142 2 1142 2 991.448242188 2.4384765625 c 0,4,5
 791 2 791 2 709.928710938 106.079101562 c 0,6,7
 646 189 646 189 659.45703125 324.067382812 c 0,8,9
 679 518 679 518 805.0703125 641.626953125 c 0,10,11
 885 720 885 720 990.565429688 718.874023438 c 0,12,13
 1180 717 1180 717 1270.2421875 529.383789062 c 0,14,15
 1324 418 1324 418 1331.04785156 180.565429688 c 5,16,-1
 1463.37597656 180.479492188 l 6,17,18
 1481.37597656 179.989770904 1481.37597656 179.989770904 1481.37597656 108 c 2,19,-1
 1481.37597656 74 l 2,20,21
 1480.99881276 -0.233674221718 1480.99881276 -0.233674221718 1462.62011719 0 c 2,22,-1
 1322.67675781 1.779296875 l 1,23,24
 1321 -515 1321 -515 750.364257812 -517.545898438 c 24,25,26
 435 -519 435 -519 272 -394.520507812 c 0,27,28
 99 -261 99 -261 99.55859375 18.3544921875 c 0,29,30
 100 225 100 225 192.405273438 433.759765625 c 1,31,-1
 341.139648438 379.267578125 l 1,32,33
 261 184 261 184 260.893554688 35.2705078125 c 0,34,35
 261 -343 261 -343 743.024414062 -344.501953125 c 0,0,1
981.447265625 546.826171875 m 0,36,37
 900 546 900 546 846.76171875 446.325195312 c 0,38,39
 819 394 819 394 813.286132812 332.22265625 c 0,40,41
 806 256 806 256 846.150390625 219.029296875 c 0,42,43
 889 180 889 180 959.540039062 174.836914062 c 0,44,45
 1032 169 1032 169 1176.39257812 176.381835938 c 1,46,47
 1176 548 1176 548 981.447265625 546.826171875 c 0,36,37
EndSplineSet
EndChar

StartChar: arabic_gaf_bar
Encoding: 65550 -1 274
Width: 690
VWidth: 2170
GlyphClass: 2
Flags: W
LayerCount: 2
Fore
SplineSet
669 1713 m 5,0,-1
 0 1398.16308594 l 1,1,-1
 0 1520.89648438 l 1,2,-1
 669 1835.73339844 l 5,3,-1
 669 1713 l 5,0,-1
EndSplineSet
EndChar

StartChar: guillemotleft
Encoding: 171 171 283
Width: 986
VWidth: 2170
Flags: W
LayerCount: 2
Fore
SplineSet
307.524414062 5.48828125 m 5,0,1
 112 314 112 314 111.9375 498.900390625 c 132,-1,2
 112 684 112 684 307.490234375 993.323242188 c 5,3,-1
 456.717773438 993.323242188 l 5,4,-1
 426.991210938 941.052734375 l 6,5,6
 271 667 271 667 270.9375 499.9140625 c 4,7,8
 271 330.91796875 271 330.91796875 426.942382812 57.8125 c 6,9,-1
 456.819335938 5.48828125 l 5,10,-1
 307.524414062 5.48828125 l 5,0,1
706.084960938 5.48828125 m 5,11,12
 510 314 510 314 510.498046875 498.900390625 c 4,13,14
 510 684 510 684 706.05078125 993.323242188 c 5,15,-1
 855.27734375 993.323242188 l 5,16,-1
 825.55078125 941.052734375 l 6,17,18
 669 666 669 666 669.498046875 499.9140625 c 4,19,20
 669 331.908203125 669 331.908203125 825.224609375 58.2998046875 c 6,21,-1
 855.37890625 5.48828125 l 5,22,-1
 706.084960938 5.48828125 l 5,11,12
EndSplineSet
EndChar

StartChar: guillemotright
Encoding: 187 187 284
Width: 986
VWidth: 2170
Flags: W
LayerCount: 2
Fore
SplineSet
678.569335938 993.323242188 m 1,0,1
 874 684 874 684 874.122070312 498.908203125 c 0,2,3
 874 314 874 314 678.53515625 5.48828125 c 1,4,-1
 529.241210938 5.48828125 l 1,5,-1
 559.1171875 57.8125 l 2,6,7
 715 331 715 331 715.122070312 499.9140625 c 0,8,9
 715.000096693 666.867649964 715.000096693 666.867649964 559.069335938 941.052734375 c 2,10,-1
 529.342773438 993.323242188 l 1,11,-1
 678.569335938 993.323242188 l 1,0,1
280.009765625 993.323242188 m 1,12,13
 476 684 476 684 475.5625 498.903320312 c 0,14,15
 476 314 476 314 279.975585938 5.48828125 c 1,16,-1
 130.680664062 5.48828125 l 1,17,-1
 160.557617188 57.8125 l 2,18,19
 317 332 317 332 316.5625 499.9140625 c 0,20,21
 316.999691038 665.882710447 316.999691038 665.882710447 160.508789062 941.052734375 c 2,22,-1
 130.782226562 993.323242188 l 1,23,-1
 280.009765625 993.323242188 l 1,12,13
EndSplineSet
EndChar

StartChar: NameMe.337
Encoding: 65562 -1 291
Width: 658
VWidth: 2311
Flags: W
LayerCount: 2
Fore
SplineSet
-3.6240234375 180.479492188 m 2,0,-1
 69.310546875 180.479492188 l 2,1,2
 262.315008179 179.999216128 262.315008179 179.999216128 251.529296875 427.384765625 c 2,3,-1
 220.705078125 1134.38183594 l 1,4,-1
 393.440429688 1188.15332031 l 5,5,-1
 393.440429688 427.50390625 l 2,6,7
 393.00085325 180.479492188 393.00085325 180.479492188 594.247070312 180.479492188 c 2,8,-1
 665.375976562 180.479492188 l 2,9,10
 683.375976562 179.989770904 683.375976562 179.989770904 683.375976562 108 c 2,11,-1
 683.375976562 74 l 2,12,13
 683 0 683 0 664.620117188 0 c 2,14,-1
 584.865234375 0 l 2,15,16
 436 0 436 0 328.165039062 114.334960938 c 1,17,18
 225 0 225 0 67.5224609375 0 c 2,19,-1
 -4 0 l 2,20,21
 -51.6240234375 0 -51.6240234375 0 -51.6240234375 74 c 2,22,-1
 -51.6240234375 108 l 2,23,24
 -52 180 -52 180 -3.6240234375 180.479492188 c 2,0,-1
EndSplineSet
EndChar

StartChar: NameMe.338
Encoding: 65563 -1 292
Width: 561
VWidth: 2311
Flags: W
LayerCount: 2
Fore
SplineSet
-3.6240234375 180.479492188 m 2,0,-1
 59.2001953125 180.479492188 l 2,1,2
 290.251670188 179.999477149 290.251670188 179.999477149 279.08984375 479.5546875 c 2,3,-1
 249.323242188 1278.41503906 l 1,4,-1
 423.120117188 1334.37207031 l 5,5,-1
 423.120117188 466.072265625 l 2,6,7
 423 220 423 220 323.564453125 109.725585938 c 0,8,9
 224 0 224 0 68.58203125 0 c 2,10,-1
 -4 0 l 2,11,12
 -51.6240234375 0 -51.6240234375 0 -51.6240234375 74 c 2,13,-1
 -51.6240234375 108 l 2,14,15
 -52 180 -52 180 -3.6240234375 180.479492188 c 2,0,-1
EndSplineSet
EndChar

StartChar: NameMe.65564
Encoding: 65564 -1 297
Width: 557
VWidth: 2311
Flags: W
AnchorPoint: "Anchor-10" 216.907 1353.98 basechar 0
AnchorPoint: "Anchor-7" 264.947 -215.71 basechar 0
LayerCount: 2
Fore
SplineSet
564.375976562 180.479492188 m 2,0,1
 582.375976562 180.479492188 582.375976562 180.479492188 582.375976562 108 c 2,2,-1
 582.375976562 74 l 2,3,4
 582 0 582 0 563.620117188 0 c 2,5,-1
 523.619140625 0 l 2,6,7
 322 0 322 0 233.518554688 132.852539062 c 0,8,9
 174.486170155 221.773990342 174.486170155 221.773990342 166.962890625 431.23828125 c 2,10,-1
 138.262695312 1230.31347656 l 1,11,-1
 310.995117188 1286.28515625 l 5,12,-1
 310.568359375 444.966796875 l 2,13,14
 310.001028521 180.479492188 310.001028521 180.479492188 523.459960938 180.479492188 c 2,15,-1
 564.375976562 180.479492188 l 2,0,1
EndSplineSet
EndChar
